<svg width="20" height="20" viewBox="0 0 20 20" fill="none" xmlns="http://www.w3.org/2000/svg">
    <path opacity="0.3"
          d="M10 19.1668C15.0627 19.1668 19.1667 15.0628 19.1667 10.0002C19.1667 4.93755 15.0627 0.833496 10 0.833496C4.93743 0.833496 0.833374 4.93755 0.833374 10.0002C0.833374 15.0628 4.93743 19.1668 10 19.1668Z"
          fill="currentColor"/>
    <path d="M14.5833 9.08333H10.9167V5.41667C10.9167 5.17355 10.8201 4.94039 10.6482 4.76849C10.4763 4.59658 10.2431 4.5 10 4.5C9.75688 4.5 9.52373 4.59658 9.35182 4.76849C9.17991 4.94039 9.08333 5.17355 9.08333 5.41667V9.08333H5.41667C5.17355 9.08333 4.94039 9.17991 4.76849 9.35182C4.59658 9.52373 4.5 9.75688 4.5 10C4.5 10.2431 4.59658 10.4763 4.76849 10.6482C4.94039 10.8201 5.17355 10.9167 5.41667 10.9167H9.08333V14.5833C9.08333 14.8264 9.17991 15.0596 9.35182 15.2315C9.52373 15.4034 9.75688 15.5 10 15.5C10.2431 15.5 10.4763 15.4034 10.6482 15.2315C10.8201 15.0596 10.9167 14.8264 10.9167 14.5833V10.9167H14.5833C14.8264 10.9167 15.0596 10.8201 15.2315 10.6482C15.4034 10.4763 15.5 10.2431 15.5 10C15.5 9.75688 15.4034 9.52373 15.2315 9.35182C15.0596 9.17991 14.8264 9.08333 14.5833 9.08333Z"
          fill="currentColor"/>
</svg>
