<svg xmlns="http://www.w3.org/2000/svg" width="14" height="14" viewBox="0 0 14 14" fill="none">
    <path d="M12.5997 13.9333C12.2461 13.9333 11.907 13.7928 11.6569 13.5428C11.4069 13.2927 11.2664 12.9536 11.2664 12.6V2.73332H1.39974C1.04612 2.73332 0.706979 2.59284 0.45693 2.34279C0.206882 2.09274 0.0664062 1.75361 0.0664062 1.39998C0.0664062 1.04636 0.206882 0.707223 0.45693 0.457174C0.706979 0.207126 1.04612 0.0666504 1.39974 0.0666504H12.5997C12.9534 0.0666504 13.2925 0.207126 13.5425 0.457174C13.7926 0.707223 13.9331 1.04636 13.9331 1.39998V12.6C13.9331 12.9536 13.7926 13.2927 13.5425 13.5428C13.2925 13.7928 12.9534 13.9333 12.5997 13.9333V13.9333Z"
          fill="currentColor"/>
    <path d="M1.40001 13.9333C1.13631 13.9322 0.878864 13.8529 0.660219 13.7055C0.441575 13.5581 0.271553 13.3491 0.171652 13.1051C0.0717513 12.861 0.0464583 12.5929 0.0989719 12.3344C0.151485 12.076 0.279447 11.839 0.466676 11.6533L11.6533 0.46662C12.1733 -0.0667133 14.0667 1.79995 13.5333 2.34662L2.34668 13.5333C2.22319 13.6593 2.07593 13.7595 1.91343 13.8282C1.75093 13.8968 1.57642 13.9326 1.40001 13.9333V13.9333Z"
          fill="currentColor"/>
</svg>
