<svg xmlns="http://www.w3.org/2000/svg" width="10" height="6" viewBox="0 0 10 6" fill="none">
    <path d="M4.99963 5.49329C4.9119 5.49379 4.82492 5.47698 4.7437 5.4438C4.66247 5.41062 4.58859 5.36174 4.5263 5.29995L0.5263 1.29995C0.463815 1.23798 0.414219 1.16424 0.380373 1.083C0.346527 1.00176 0.329102 0.914627 0.329102 0.826619C0.329102 0.738611 0.346527 0.651474 0.380373 0.570234C0.414219 0.488995 0.463815 0.415261 0.5263 0.353285C0.651209 0.229118 0.820177 0.159424 0.9963 0.159424C1.17242 0.159424 1.34139 0.229118 1.4663 0.353285L4.99963 3.88662L8.5263 0.353285C8.65121 0.229118 8.82018 0.159424 8.9963 0.159424C9.17242 0.159424 9.34139 0.229118 9.4663 0.353285C9.52879 0.415261 9.57838 0.488995 9.61223 0.570234C9.64607 0.651474 9.6635 0.738611 9.6635 0.826619C9.6635 0.914627 9.64607 1.00176 9.61223 1.083C9.57838 1.16424 9.52879 1.23798 9.4663 1.29995L5.4663 5.29995C5.34213 5.42312 5.17453 5.49255 4.99963 5.49329Z"
          fill="currentColor"/>
</svg>
