<svg xmlns="http://www.w3.org/2000/svg" width="10" height="10" viewBox="0 0 10 10" fill="none">
    <path d="M8.96003 5.66668C8.87229 5.66719 8.78532 5.65037 8.70409 5.61719C8.62287 5.58402 8.54899 5.53513 8.48669 5.47334L5.00003 1.99334L1.51336 5.48001C1.4536 5.5498 1.38005 5.60648 1.29734 5.6465C1.21463 5.68651 1.12454 5.709 1.03273 5.71254C0.940917 5.71609 0.849363 5.70062 0.763813 5.6671C0.678263 5.63359 0.600564 5.58275 0.535594 5.51778C0.470624 5.45281 0.419786 5.37511 0.386269 5.28956C0.352753 5.20401 0.337282 5.11246 0.340829 5.02064C0.344375 4.92883 0.366862 4.83874 0.406877 4.75603C0.446893 4.67332 0.503574 4.59978 0.573361 4.54001L4.52669 0.580011C4.58867 0.517526 4.6624 0.46793 4.74364 0.434084C4.82488 0.400238 4.91202 0.382812 5.00003 0.382812C5.08804 0.382812 5.17517 0.400238 5.25641 0.434084C5.33765 0.46793 5.41139 0.517526 5.47336 0.580011L9.42669 4.54001C9.55086 4.66492 9.62056 4.83389 9.62056 5.01001C9.62056 5.18614 9.55086 5.3551 9.42669 5.48001C9.30145 5.60074 9.13398 5.66772 8.96003 5.66668Z"
          fill="currentColor"/>
    <path opacity="0.5"
          d="M5.00016 9.66672C4.82335 9.66672 4.65378 9.59648 4.52876 9.47146C4.40373 9.34643 4.3335 9.17686 4.3335 9.00005V1.05339C4.3335 0.876574 4.40373 0.707005 4.52876 0.581981C4.65378 0.456957 4.82335 0.386719 5.00016 0.386719C5.17697 0.386719 5.34654 0.456957 5.47157 0.581981C5.59659 0.707005 5.66683 0.876574 5.66683 1.05339V9.00005C5.66683 9.17686 5.59659 9.34643 5.47157 9.47146C5.34654 9.59648 5.17697 9.66672 5.00016 9.66672Z"
          fill="currentColor"/>
</svg>
