<svg xmlns="http://www.w3.org/2000/svg" width="20" height="19" viewBox="0 0 20 19" fill="none">
    <path opacity="0.3"
          d="M0.833008 5.65913L0.833008 13.3408C0.833008 16.2822 3.21746 18.6666 6.15884 18.6666H13.8405C16.7819 18.6666 19.1663 16.2822 19.1663 13.3408V5.65913C19.1663 2.71775 16.7819 0.333294 13.8405 0.333294H6.15884C3.21746 0.333294 0.833008 2.71775 0.833008 5.65913Z"
          fill="currentColor"/>
    <path d="M5.81089 7.96914C5.81183 7.73313 5.90377 7.50657 6.06756 7.33665C6.23931 7.16592 6.47164 7.07008 6.71381 7.07008C6.95598 7.07008 7.18831 7.16592 7.36006 7.33665L10.0001 9.87581L12.5667 7.19914C12.7385 7.02841 12.9708 6.93258 13.213 6.93258C13.4551 6.93258 13.6875 7.02841 13.8592 7.19914C13.9451 7.28436 14.0133 7.38575 14.0599 7.49745C14.1064 7.60915 14.1304 7.72897 14.1304 7.84998C14.1304 7.97099 14.1064 8.0908 14.0599 8.20251C14.0133 8.31421 13.9451 8.4156 13.8592 8.50081L10.7334 11.81C10.5616 11.9807 10.3293 12.0765 10.0871 12.0765C9.84497 12.0765 9.61264 11.9807 9.44089 11.81L6.09506 8.58331C5.92547 8.42233 5.82381 8.20262 5.81089 7.96914Z"
          fill="currentColor"/>
</svg>
