<svg xmlns="http://www.w3.org/2000/svg" width="14" height="15" viewBox="0 0 14 15" fill="none">
    <path d="M7.12962 15C6.86728 14.9989 6.61588 14.8948 6.42962 14.71L0.429618 8.71002C0.25337 8.5165 0.160024 8.26159 0.169618 8.00002C0.168857 7.86841 0.194082 7.73795 0.243847 7.61611C0.293611 7.49427 0.366937 7.38346 0.459618 7.29002L6.45962 1.29002C6.65092 1.12619 6.897 1.04059 7.14867 1.05031C7.40035 1.06003 7.63909 1.16436 7.81718 1.34245C7.99528 1.52055 8.09961 1.75929 8.10933 2.01096C8.11905 2.26264 8.03344 2.50872 7.86962 2.70002L2.57962 8.00002L7.83962 13.26C8.02587 13.4474 8.13041 13.7008 8.13041 13.965C8.13041 14.2292 8.02587 14.4827 7.83962 14.67C7.74956 14.77 7.64025 14.8507 7.51826 14.9074C7.39626 14.9641 7.26408 14.9956 7.12962 15Z"
          fill="currentColor"/>
    <path opacity="0.3"
          d="M12.4998 15C12.2374 14.9989 11.986 14.8947 11.7998 14.71L5.79978 8.70997C5.7071 8.61653 5.63378 8.50572 5.58401 8.38388C5.53425 8.26204 5.50902 8.13158 5.50978 7.99997C5.50902 7.86837 5.53425 7.7379 5.58401 7.61607C5.63378 7.49423 5.7071 7.38341 5.79978 7.28997L11.7998 1.28997C11.8894 1.18529 11.9997 1.10027 12.1238 1.04025C12.2479 0.980224 12.383 0.946494 12.5207 0.941175C12.6584 0.935855 12.7958 0.959061 12.9241 1.00934C13.0524 1.05961 13.169 1.13587 13.2664 1.23332C13.3639 1.33078 13.4401 1.44732 13.4904 1.57565C13.5407 1.70398 13.5639 1.84131 13.5586 1.97903C13.5533 2.11675 13.5195 2.25188 13.4595 2.37594C13.3995 2.50001 13.3145 2.61033 13.2098 2.69997L7.99978 7.99997L13.2598 13.26C13.446 13.4473 13.5506 13.7008 13.5506 13.965C13.5506 14.2292 13.446 14.4826 13.2598 14.67C13.164 14.7761 13.0467 14.8605 12.9156 14.9174C12.7845 14.9743 12.6427 15.0025 12.4998 15Z"
          fill="currentColor"/>
</svg>
