<svg width="16" height="16" viewBox="0 0 16 16" fill="none" xmlns="http://www.w3.org/2000/svg">
    <path d="M14.6669 7.3128V8.68613C14.6669 9.0528 14.3735 9.3528 14.0002 9.36613H12.6935C11.9735 9.36613 11.3135 8.83947 11.2535 8.11947C11.2135 7.69947 11.3735 7.30613 11.6535 7.0328C11.9002 6.77947 12.2402 6.63281 12.6135 6.63281H14.0002C14.3735 6.64615 14.6669 6.94613 14.6669 7.3128Z"
          fill="currentColor"/>
    <path fill-rule="evenodd" clip-rule="evenodd"
          d="M4.00004 10C2.52728 10 1.33337 11.1939 1.33337 12.6667C1.33337 14.1394 2.52728 15.3333 4.00004 15.3333C5.4728 15.3333 6.66671 14.1394 6.66671 12.6667C6.66671 11.1939 5.4728 10 4.00004 10ZM6.15955 13.3467C6.15955 13.4259 6.13039 13.5051 6.06787 13.5676L5.55947 14.076C5.43861 14.1969 5.23855 14.1969 5.11769 14.076L4.60929 13.5676C4.48843 13.4467 4.48843 13.2467 4.60929 13.1259C4.72726 13.0079 4.92068 13.0051 5.04225 13.1174V12.128C5.04225 12.0363 4.96723 11.9571 4.87138 11.9571H3.89621L3.8895 11.9571H3.12935C3.0335 11.9571 2.95848 12.0363 2.95848 12.1279V12.4037L2.95855 12.4101V13.3603C2.95855 13.452 3.03357 13.5311 3.12941 13.5311H4.02147C4.19233 13.5311 4.33403 13.6728 4.33403 13.8437C4.33403 14.0145 4.19233 14.1563 4.02147 14.1563H3.12941C2.69184 14.1563 2.33344 13.7979 2.33344 13.3603V13.0845L2.33337 13.0781V12.1279C2.33337 11.6903 2.69177 11.3319 3.12935 11.3319H4.10452L4.11123 11.332H4.87138C5.30896 11.332 5.66736 11.6904 5.66736 12.128V13.0913C5.7888 13.0064 5.95993 13.0179 6.06787 13.1259C6.13039 13.1884 6.15955 13.2675 6.15955 13.3467Z"
          fill="currentColor"/>
    <path fill-rule="evenodd" clip-rule="evenodd"
          d="M12.6934 10.3668H13.6467C13.84 10.3668 14 10.5268 13.98 10.7202C13.82 12.5002 12.5334 13.6668 10.6667 13.6668H7.96937C7.74831 13.6668 7.58864 13.455 7.62271 13.2366C7.65164 13.0509 7.66671 12.8606 7.66671 12.6668C7.66671 10.6418 6.02509 9.00016 4.00004 9.00016C3.25067 9.00016 2.5538 9.22496 1.9732 9.61083C1.722 9.77776 1.33337 9.61316 1.33337 9.31156V5.66683C1.33337 3.8535 2.42671 2.58683 4.12671 2.3735C4.30004 2.34683 4.48004 2.3335 4.66671 2.3335H10.6667C10.84 2.3335 11.0067 2.34016 11.1667 2.36683C12.76 2.5535 13.8334 3.66016 13.98 5.28016C14 5.4735 13.84 5.6335 13.6467 5.6335H12.6134C11.9734 5.6335 11.38 5.88016 10.9534 6.32016C10.4467 6.8135 10.1934 7.50683 10.2534 8.20016C10.36 9.4135 11.4267 10.3668 12.6934 10.3668ZM4.66671 6.50016H8.66671C8.94004 6.50016 9.16671 6.2735 9.16671 6.00016C9.16671 5.72683 8.94004 5.50016 8.66671 5.50016H4.66671C4.39337 5.50016 4.16671 5.72683 4.16671 6.00016C4.16671 6.2735 4.39337 6.50016 4.66671 6.50016Z"
          fill="currentColor"/>
</svg>
