<svg xmlns="http://www.w3.org/2000/svg" width="20" height="22" viewBox="0 0 20 22" fill="none">
    <path d="M18.7797 21.0599H1.21973C1.02081 21.0599 0.830049 20.9809 0.689396 20.8403C0.548744 20.6996 0.469727 20.5088 0.469727 20.3099C0.469727 20.111 0.548744 19.9203 0.689396 19.7796C0.830049 19.639 1.02081 19.5599 1.21973 19.5599H18.7797C18.9786 19.5599 19.1694 19.639 19.3101 19.7796C19.4507 19.9203 19.5297 20.111 19.5297 20.3099C19.5297 20.5088 19.4507 20.6996 19.3101 20.8403C19.1694 20.9809 18.9786 21.0599 18.7797 21.0599Z"
          fill="currentColor"/>
    <g opacity="0.3">
        <path d="M15.7894 5.22998H14.8294C14.1777 5.22998 13.6494 5.75828 13.6494 6.40998V16.87C13.6494 17.5217 14.1777 18.05 14.8294 18.05H15.7894C16.4411 18.05 16.9694 17.5217 16.9694 16.87V6.40998C16.9694 5.75828 16.4411 5.22998 15.7894 5.22998Z"
              fill="currentColor"/>
    </g>
    <path d="M9.95969 0.939941H9.21969C8.50724 0.939941 7.92969 1.51749 7.92969 2.22994V16.7599C7.92969 17.4724 8.50724 18.0499 9.21969 18.0499H9.95969C10.6721 18.0499 11.2497 17.4724 11.2497 16.7599V2.22994C11.2497 1.51749 10.6721 0.939941 9.95969 0.939941Z"
          fill="currentColor"/>
    <g opacity="0.3">
        <path d="M4.35973 10.1599H3.39973C2.74803 10.1599 2.21973 10.6882 2.21973 11.3399V16.8699C2.21973 17.5216 2.74803 18.0499 3.39973 18.0499H4.35973C5.01142 18.0499 5.53973 17.5216 5.53973 16.8699V11.3399C5.53973 10.6882 5.01142 10.1599 4.35973 10.1599Z"
              fill="currentColor"/>
    </g>
</svg>
