<svg xmlns="http://www.w3.org/2000/svg" width="12" height="9" viewBox="0 0 12 9" fill="none">
    <path d="M10.3084 0.541643L4.74172 6.10831L1.50839 2.87498C1.35226 2.71977 1.14105 2.63265 0.920892 2.63265C0.700737 2.63265 0.489527 2.71977 0.333392 2.87498C0.178182 3.03111 0.0910645 3.24232 0.0910645 3.46248C0.0910645 3.68263 0.178182 3.89384 0.333392 4.04998L4.15839 7.87498C4.31453 8.03019 4.52574 8.1173 4.74589 8.1173C4.96605 8.1173 5.17726 8.03019 5.33339 7.87498L11.4834 1.72498C11.5615 1.64751 11.6235 1.55534 11.6658 1.45379C11.7081 1.35224 11.7299 1.24332 11.7299 1.13331C11.7299 1.0233 11.7081 0.914379 11.6658 0.81283C11.6235 0.711281 11.5615 0.619113 11.4834 0.541643C11.3273 0.386434 11.116 0.299316 10.8959 0.299316C10.6757 0.299316 10.4645 0.386434 10.3084 0.541643Z"
          fill="currentColor"/>
</svg>
