<svg xmlns="http://www.w3.org/2000/svg" width="21" height="20" viewBox="0 0 21 20" fill="none">
    <path opacity="0.3"
          d="M10.82 6H4.18C2.14759 6 0.5 7.64759 0.5 9.68V16.32C0.5 18.3524 2.14759 20 4.18 20H10.82C12.8524 20 14.5 18.3524 14.5 16.32V9.68C14.5 7.64759 12.8524 6 10.82 6Z"
          fill="currentColor"/>
    <path d="M10.7244 11.6994L7.02442 15.2694C6.88254 15.4074 6.69238 15.4847 6.49442 15.4847C6.29646 15.4847 6.1063 15.4074 5.96442 15.2694L4.20442 13.4594C4.11755 13.3124 4.08344 13.1401 4.10773 12.9711C4.13201 12.8021 4.21325 12.6464 4.338 12.5298C4.46275 12.4133 4.62354 12.3427 4.79381 12.3299C4.96408 12.3171 5.13362 12.3628 5.27442 12.4594L6.51442 13.6794L9.68442 10.6194C9.82504 10.4789 10.0157 10.4 10.2144 10.4C10.4132 10.4 10.6038 10.4789 10.7444 10.6194C10.8157 10.6907 10.8719 10.7756 10.9097 10.8691C10.9474 10.9626 10.9659 11.0628 10.964 11.1636C10.9621 11.2644 10.9399 11.3638 10.8988 11.4559C10.8576 11.5479 10.7983 11.6308 10.7244 11.6994Z"
          fill="currentColor"/>
    <path d="M16.82 0H10.19C9.21308 -3.58735e-06 8.27603 0.38739 7.5843 1.07724C6.89258 1.76709 6.50265 2.70308 6.5 3.68V4.5H10.81C12.1857 4.50264 13.5042 5.05029 14.477 6.02304C15.4497 6.99578 15.9974 8.31434 16 9.69V14H16.82C17.7969 13.9974 18.7329 13.6074 19.4228 12.9157C20.1126 12.224 20.5 11.2869 20.5 10.31V3.68C20.5 2.704 20.1123 1.76798 19.4222 1.07785C18.732 0.387713 17.796 0 16.82 0Z"
          fill="currentColor"/>
</svg>
