<svg xmlns="http://www.w3.org/2000/svg" width="21" height="20" viewBox="0 0 21 20" fill="none">
    <path opacity="0.3"
          d="M10.82 6H4.18C2.14759 6 0.5 7.64759 0.5 9.68V16.32C0.5 18.3524 2.14759 20 4.18 20H10.82C12.8524 20 14.5 18.3524 14.5 16.32V9.68C14.5 7.64759 12.8524 6 10.82 6Z"
          fill="currentColor"/>
    <path d="M16.82 0H10.19C9.21308 -3.58735e-06 8.27603 0.38739 7.5843 1.07724C6.89258 1.76709 6.50265 2.70308 6.5 3.68V4.5H10.81C12.1857 4.50264 13.5042 5.05029 14.477 6.02304C15.4497 6.99578 15.9974 8.31434 16 9.69V14H16.82C17.7969 13.9974 18.7329 13.6074 19.4228 12.9157C20.1126 12.224 20.5 11.2869 20.5 10.31V3.68C20.5 2.704 20.1123 1.76798 19.4222 1.07785C18.732 0.387713 17.796 0 16.82 0Z"
          fill="currentColor"/>
</svg>
