<svg xmlns="http://www.w3.org/2000/svg" width="20" height="20" viewBox="0 0 20 20" fill="none">
    <path opacity="0.3"
          d="M14.19 0H5.81C2.60123 0 0 2.60123 0 5.81V14.19C0 17.3988 2.60123 20 5.81 20H14.19C17.3988 20 20 17.3988 20 14.19V5.81C20 2.60123 17.3988 0 14.19 0Z"
          fill="currentColor"/>
    <path d="M11.41 9.99994L14.24 7.16994C14.3447 7.0803 14.4297 6.96998 14.4898 6.84591C14.5498 6.72185 14.5835 6.58672 14.5888 6.449C14.5941 6.31128 14.5709 6.17395 14.5207 6.04562C14.4704 5.9173 14.3941 5.80075 14.2967 5.70329C14.1992 5.60584 14.0827 5.52958 13.9544 5.47931C13.826 5.42903 13.6887 5.40583 13.551 5.41115C13.4133 5.41647 13.2781 5.4502 13.1541 5.51022C13.03 5.57024 12.9197 5.65526 12.83 5.75994L10 8.58994L7.17003 5.75994C6.97873 5.59612 6.73265 5.51051 6.48098 5.52023C6.2293 5.52995 5.99056 5.63429 5.81247 5.81238C5.63437 5.99048 5.53004 6.22921 5.52032 6.48089C5.5106 6.73257 5.5962 6.97864 5.76003 7.16994L8.59003 9.99994L5.76003 12.8299C5.57378 13.0173 5.46924 13.2708 5.46924 13.5349C5.46924 13.7991 5.57378 14.0526 5.76003 14.2399C5.94739 14.4262 6.20085 14.5307 6.46503 14.5307C6.72922 14.5307 6.98267 14.4262 7.17003 14.2399L10 11.4099L12.83 14.2399C13.0174 14.4262 13.2708 14.5307 13.535 14.5307C13.7992 14.5307 14.0527 14.4262 14.24 14.2399C14.4263 14.0526 14.5308 13.7991 14.5308 13.5349C14.5308 13.2708 14.4263 13.0173 14.24 12.8299L11.41 9.99994Z"
          fill="currentColor"/>
</svg>
