<svg xmlns="http://www.w3.org/2000/svg" width="14" height="18" viewBox="0 0 14 18" fill="none">
    <path opacity="0.3"
          d="M1.88063 0.666626H8.44668C8.74225 0.666626 9.02826 0.771363 9.25393 0.962242L13.2236 4.31991C13.5044 4.55742 13.6663 4.90652 13.6663 5.27429V15.7361C13.6663 17.2282 13.6493 17.3333 12.1187 17.3333H1.88063C0.350048 17.3333 0.333008 17.2282 0.333008 15.7361V2.26385C0.333008 0.77173 0.350048 0.666626 1.88063 0.666626Z"
          fill="currentColor"/>
    <path fill-rule="evenodd" clip-rule="evenodd"
          d="M9.40553 8.85889H7.77514V7.18583C7.77514 6.95571 7.58859 6.76917 7.35847 6.76917H6.50572C6.2756 6.76917 6.08905 6.95571 6.08905 7.18583V8.85889H4.45866C4.22854 8.85889 4.04199 9.04544 4.04199 9.27556C4.04199 9.37415 4.07695 9.46955 4.14066 9.54479L6.6141 12.4662C6.76279 12.6418 7.02571 12.6636 7.20133 12.5149C7.2189 12.5001 7.23521 12.4838 7.25009 12.4662L9.72353 9.54479C9.87222 9.36917 9.85039 9.10626 9.67477 8.95756C9.59952 8.89385 9.50412 8.85889 9.40553 8.85889Z"
          fill="currentColor"/>
</svg>
