<svg width="22" height="21" viewBox="0 0 22 21" fill="none" xmlns="http://www.w3.org/2000/svg">
    <g opacity="0.3">
        <path d="M16.9999 4.18018H5.04994C4.46709 4.18111 3.89094 4.30451 3.35883 4.54239C2.82673 4.78026 2.35055 5.1273 1.96116 5.561C1.57177 5.9947 1.27787 6.50538 1.0985 7.05995C0.919126 7.61452 0.858293 8.20059 0.919942 8.78018L1.80994 17.1202C1.92076 18.1386 2.40345 19.0803 3.16554 19.7649C3.92763 20.4495 4.91552 20.8288 5.93994 20.8302H16.1699C17.2061 20.832 18.2055 20.4462 18.9715 19.7486C19.7376 19.051 20.2151 18.092 20.3099 17.0602L21.0899 8.73018C21.1424 8.15816 21.076 7.58148 20.8951 7.0363C20.7142 6.49112 20.4226 5.9892 20.0386 5.56201C19.6546 5.13481 19.1864 4.79156 18.6636 4.55378C18.1407 4.31599 17.5743 4.1888 16.9999 4.18018ZM12.8299 12.8502C12.8299 13.0296 12.7944 13.2073 12.7255 13.3729C12.6565 13.5386 12.5554 13.689 12.4281 13.8154C12.3007 13.9418 12.1496 14.0418 11.9835 14.1095C11.8173 14.1773 11.6394 14.2115 11.4599 14.2102H10.2999C10.1205 14.2115 9.94258 14.1773 9.77642 14.1095C9.61026 14.0418 9.45915 13.9418 9.33181 13.8154C9.20446 13.689 9.10338 13.5386 9.03441 13.3729C8.96544 13.2073 8.92994 13.0296 8.92994 12.8502V10.4702H12.7799L12.8299 12.8502Z"
              fill="currentColor"/>
    </g>
    <path d="M21.0899 8.73021C21.1424 8.1582 21.076 7.58152 20.8951 7.03634C20.7142 6.49116 20.4226 5.98924 20.0386 5.56205C19.6546 5.13485 19.1864 4.7916 18.6636 4.55382C18.1407 4.31603 17.5743 4.18884 16.9999 4.18021H15.3899V3.18021C15.3899 2.46148 15.1044 1.77218 14.5962 1.26396C14.088 0.755732 13.3987 0.470215 12.6799 0.470215H9.28994C8.57978 0.470094 7.89796 0.748737 7.39115 1.2462C6.88434 1.74366 6.59304 2.42018 6.57994 3.13021V4.13021H5.04994C4.46709 4.13115 3.89094 4.25455 3.35883 4.49243C2.82673 4.7303 2.35055 5.07734 1.96116 5.51104C1.57177 5.94474 1.27787 6.45542 1.0985 7.00999C0.919126 7.56456 0.858293 8.15063 0.919942 8.73021L1.06994 10.1702C3.15424 11.728 5.61469 12.7046 8.19994 13.0002C8.23041 13.538 8.46444 14.044 8.85448 14.4155C9.24452 14.7869 9.76133 14.996 10.2999 15.0002H11.4099C11.9342 14.9978 12.439 14.8013 12.8268 14.4486C13.2146 14.0958 13.458 13.6119 13.5099 13.0902C16.2513 12.8 18.8513 11.7273 20.9999 10.0002L21.0899 8.73021ZM8.08994 3.13021C8.08994 2.8093 8.21742 2.50153 8.44434 2.27462C8.67126 2.0477 8.97903 1.92021 9.29994 1.92021H12.6899C13.0109 1.92021 13.3186 2.0477 13.5455 2.27462C13.7725 2.50153 13.8999 2.8093 13.8999 3.13021V4.13021H8.07994L8.08994 3.13021ZM11.9999 12.8502C12 12.9312 11.9838 13.0113 11.9526 13.086C11.9213 13.1607 11.8755 13.2283 11.8178 13.2851C11.76 13.3419 11.6916 13.3866 11.6165 13.4167C11.5413 13.4467 11.4609 13.4615 11.3799 13.4602H10.2999C10.219 13.4615 10.1386 13.4467 10.0634 13.4167C9.98827 13.3866 9.91983 13.3419 9.86213 13.2851C9.80442 13.2283 9.75859 13.1607 9.72731 13.086C9.69603 13.0113 9.67993 12.9312 9.67994 12.8502V11.2202H11.9999V12.8502Z"
          fill="currentColor"/>
</svg>
