<svg xmlns="http://www.w3.org/2000/svg" width="18" height="18" viewBox="0 0 18 18" fill="none">
    <path opacity="0.3"
          d="M17.3334 8.99996H13.4167C12.8673 8.98965 12.3256 8.86856 11.8242 8.64394C11.3227 8.41932 10.8717 8.0958 10.4982 7.69275C10.1247 7.2897 9.83641 6.81541 9.65058 6.2983C9.46475 5.78118 9.3852 5.23188 9.41669 4.68329V0.666626H5.33336C4.08386 0.679823 2.89065 1.1883 2.01571 2.08044C1.14076 2.97257 0.655582 4.17544 0.666691 5.42496V12.575C0.655582 13.8245 1.14076 15.0274 2.01571 15.9195C2.89065 16.8116 4.08386 17.3201 5.33336 17.3333H12.6667C13.9162 17.3201 15.1094 16.8116 15.9843 15.9195C16.8593 15.0274 17.3445 13.8245 17.3334 12.575V8.99996Z"
          fill="currentColor"/>
    <path d="M17.0082 8.1666H13.0749C12.6987 8.15942 12.328 8.07628 11.9848 7.9222C11.6416 7.76811 11.3331 7.54625 11.0778 7.26994C10.8225 6.99362 10.6256 6.66856 10.4991 6.31428C10.3726 5.95999 10.319 5.58379 10.3415 5.20827V1.2666L17.0082 8.1666ZM7.99988 11.9916L6.65821 13.1666V8.99993C6.65821 8.83417 6.59236 8.6752 6.47515 8.55799C6.35794 8.44078 6.19897 8.37493 6.03321 8.37493C5.86745 8.37493 5.70848 8.44078 5.59127 8.55799C5.47406 8.6752 5.40821 8.83417 5.40821 8.99993V13.1666L3.86654 11.9749C3.80198 11.924 3.72802 11.8864 3.64889 11.8641C3.56977 11.8418 3.48702 11.8353 3.40539 11.8449C3.32375 11.8546 3.24481 11.8803 3.17309 11.9204C3.10137 11.9606 3.03826 12.0145 2.98738 12.0791C2.8846 12.2095 2.83784 12.3754 2.85738 12.5403C2.87691 12.7051 2.96114 12.8555 3.09154 12.9583L5.66654 14.9833L5.75821 15.0333L5.83321 15.0749C5.90549 15.1008 5.98146 15.1149 6.05821 15.1166C6.13599 15.1168 6.21284 15.0997 6.28321 15.0666L6.36654 15.0249L6.46654 14.9666L8.83321 12.9416C8.95759 12.8323 9.03421 12.6786 9.04667 12.5135C9.05913 12.3484 9.00644 12.185 8.89988 12.0583C8.8469 11.9922 8.7809 11.9378 8.70598 11.8984C8.63105 11.8589 8.54881 11.8354 8.46438 11.8291C8.37995 11.8229 8.29513 11.8341 8.21522 11.862C8.1353 11.89 8.062 11.9341 7.99988 11.9916V11.9916Z"
          fill="currentColor"/>
</svg>
