<svg xmlns="http://www.w3.org/2000/svg" width="16" height="18" viewBox="0 0 16 18" fill="none">
    <path d="M2.80846 7.33329L7.08346 0.666626H2.6918C2.20623 0.666606 1.7403 0.858349 1.3954 1.20013C1.05049 1.54191 0.854524 2.00608 0.850129 2.49163V4.56663C0.84728 5.0497 1.03607 5.51419 1.37513 5.85829L2.80846 7.33329Z"
          fill="currentColor"/>
    <path opacity="0.3"
          d="M13.3085 0.666626H8.57516L3.7085 8.22496L4.54183 9.05829C5.13358 9.65778 5.46582 10.4659 5.46683 11.3083V15.6666C5.45307 15.9839 5.53026 16.2986 5.68931 16.5735C5.84837 16.8484 6.08266 17.0721 6.3646 17.2184C6.64654 17.3646 6.9644 17.4272 7.28074 17.3988C7.59707 17.3705 7.89872 17.2523 8.15016 17.0583L9.29183 16.225C9.50022 16.0782 9.6703 15.8834 9.78776 15.6572C9.90522 15.431 9.96664 15.1799 9.96683 14.925V11.4166C9.96028 10.9631 10.0497 10.5134 10.2292 10.0969C10.4087 9.6804 10.6743 9.30658 11.0085 8.99996L14.5335 5.85829C14.7298 5.68565 14.8864 5.47269 14.9929 5.23395C15.0993 4.99522 15.1529 4.73633 15.1502 4.47496V2.49163C15.1458 2.00608 14.9498 1.54191 14.6049 1.20013C14.26 0.858349 13.7941 0.666606 13.3085 0.666626Z"
          fill="currentColor"/>
</svg>
