<svg width="24" height="24" viewBox="0 0 24 24" fill="none" xmlns="http://www.w3.org/2000/svg">
    <path d="M16.9817 15.3831C17.1395 14.2623 17.2178 13.1318 17.216 12C17.2178 10.8682 17.1395 9.73768 16.9817 8.61691H21.4127C22.1958 10.8043 22.1958 13.1957 21.4127 15.3831H16.9817ZM12 21.9986C11.0236 21.9986 10.0269 20.9964 9.26251 19.2493C8.91334 18.4514 8.62901 17.5418 8.41615 16.5544H15.5839C15.371 17.5414 15.0867 18.451 14.7375 19.2493C13.9732 20.9964 12.9764 21.9986 12 21.9986ZM8.20212 15.3831C7.87299 13.1397 7.87299 10.8603 8.20212 8.61691H15.7979C15.9643 9.73689 16.0468 10.8677 16.0447 12C16.0468 13.1323 15.9643 14.2631 15.7979 15.3831H8.20212ZM2.58731 15.3831C1.80423 13.1957 1.80423 10.8043 2.58731 8.61691H7.0183C6.70533 10.8615 6.70533 13.1386 7.0183 15.3831H2.58731ZM12 2.00146C12.9764 2.00146 13.9732 3.00327 14.7375 4.75067C15.0867 5.54861 15.371 6.45824 15.5839 7.44559H8.41615C8.62901 6.45863 8.91334 5.549 9.26251 4.75067C10.0269 3.00327 11.0236 2.00146 12 2.00146ZM20.905 7.4452H16.7798C16.5454 6.28522 16.2197 5.21467 15.8112 4.2816C15.4804 3.52468 15.1054 2.88376 14.6949 2.36743C16.026 2.73603 17.2656 3.37793 18.3348 4.25219C19.404 5.12645 20.2793 6.2139 20.905 7.4452ZM9.30508 2.36704C8.89576 2.88376 8.52121 3.52429 8.19001 4.28082C7.78147 5.21467 7.45613 6.28522 7.2214 7.44442H3.09505C3.72082 6.21326 4.59619 5.12595 5.66538 4.25177C6.73456 3.37759 7.97413 2.73571 9.30508 2.36704ZM3.09505 16.5548H7.22023C7.45457 17.7148 7.7803 18.7854 8.18884 19.7184C8.52004 20.4749 8.89459 21.1155 9.30391 21.6322C7.97312 21.2635 6.73373 20.6216 5.66474 19.7474C4.59575 18.8732 3.72059 17.7859 3.09505 16.5548ZM14.6949 21.6322C15.1042 21.1155 15.4792 20.4749 15.81 19.7184C16.2185 18.7846 16.5439 17.714 16.7786 16.5548H20.905C20.2793 17.7862 19.404 18.8737 18.3348 19.748C17.2656 20.6223 16.026 21.2643 14.6949 21.633V21.6322Z"
          fill="currentColor"/>
</svg>
