<svg width="20" height="20" viewBox="0 0 20 20" fill="none" xmlns="http://www.w3.org/2000/svg">
    <path d="M6.72 0H1.77C0.792456 0 0 0.792456 0 1.77V6.72C0 7.69754 0.792456 8.49 1.77 8.49H6.72C7.69754 8.49 8.49 7.69754 8.49 6.72V1.77C8.49 0.792456 7.69754 0 6.72 0Z"
          fill="currentColor"/>
    <g opacity="0.3">
        <path d="M18.23 0H13.28C12.3025 0 11.51 0.792456 11.51 1.77V6.72C11.51 7.69754 12.3025 8.49 13.28 8.49H18.23C19.2076 8.49 20 7.69754 20 6.72V1.77C20 0.792456 19.2076 0 18.23 0Z"
              fill="currentColor"/>
    </g>
    <path d="M18.22 11.5H13.27C12.2925 11.5 11.5 12.2925 11.5 13.27V18.22C11.5 19.1975 12.2925 19.99 13.27 19.99H18.22C19.1975 19.99 19.99 19.1975 19.99 18.22V13.27C19.99 12.2925 19.1975 11.5 18.22 11.5Z"
          fill="currentColor"/>
    <g opacity="0.3">
        <path d="M6.72 11.5H1.77C0.792456 11.5 0 12.2925 0 13.27V18.22C0 19.1975 0.792456 19.99 1.77 19.99H6.72C7.69754 19.99 8.49 19.1975 8.49 18.22V13.27C8.49 12.2925 7.69754 11.5 6.72 11.5Z"
              fill="currentColor"/>
    </g>
</svg>
