<svg xmlns="http://www.w3.org/2000/svg" width="21" height="20" viewBox="0 0 21 20" fill="none">
    <path opacity="0.3"
          d="M2.28 5.39L7.38 1C8.11189 0.350507 9.05647 -0.00817871 10.035 -0.00817871C11.0135 -0.00817871 11.9581 0.350507 12.69 1L17.76 5.46C18.4723 6.0834 19.0426 6.8523 19.4324 7.71483C19.8223 8.57736 20.0226 9.51346 20.02 10.46V16.07C20.0016 17.1222 19.5693 18.1247 18.8168 18.8603C18.0644 19.596 17.0523 20.0054 16 20H4C2.93913 20 1.92172 19.5786 1.17157 18.8284C0.421427 18.0783 0 17.0609 0 16V10.33C0.00515792 9.39151 0.21132 8.46502 0.604608 7.6129C0.997895 6.76078 1.56918 6.0028 2.28 5.39Z"
          fill="currentColor"/>
    <path d="M10 17.85C9.80109 17.85 9.61032 17.771 9.46967 17.6303C9.32902 17.4897 9.25 17.2989 9.25 17.1V14.24C9.25 14.0411 9.32902 13.8503 9.46967 13.7097C9.61032 13.569 9.80109 13.49 10 13.49C10.1989 13.49 10.3897 13.569 10.5303 13.7097C10.671 13.8503 10.75 14.0411 10.75 14.24V17.1C10.75 17.2989 10.671 17.4897 10.5303 17.6303C10.3897 17.771 10.1989 17.85 10 17.85Z"
          fill="currentColor"/>
</svg>
