<svg xmlns="http://www.w3.org/2000/svg" width="18" height="18" viewBox="0 0 18 18" fill="none">
    <path opacity="0.3"
          d="M8.99984 17.3333C13.6022 17.3333 17.3332 13.6023 17.3332 8.99996C17.3332 4.39759 13.6022 0.666626 8.99984 0.666626C4.39746 0.666626 0.666504 4.39759 0.666504 8.99996C0.666504 13.6023 4.39746 17.3333 8.99984 17.3333Z"
          fill="currentColor"/>
    <path d="M8.99984 7.83325C9.22085 7.83325 9.43281 7.92105 9.58909 8.07733C9.74537 8.23361 9.83317 8.44557 9.83317 8.66659V12.5499C9.83317 12.7709 9.74537 12.9829 9.58909 13.1392C9.43281 13.2955 9.22085 13.3833 8.99984 13.3833C8.77882 13.3833 8.56686 13.2955 8.41058 13.1392C8.2543 12.9829 8.1665 12.7709 8.1665 12.5499V8.66659C8.1665 8.44557 8.2543 8.23361 8.41058 8.07733C8.56686 7.92105 8.77882 7.83325 8.99984 7.83325Z"
          fill="currentColor"/>
    <path d="M8.99967 6.69991C9.57497 6.69991 10.0413 6.23354 10.0413 5.65824C10.0413 5.08295 9.57497 4.61658 8.99967 4.61658C8.42438 4.61658 7.95801 5.08295 7.95801 5.65824C7.95801 6.23354 8.42438 6.69991 8.99967 6.69991Z"
          fill="currentColor"/>
</svg>
