<svg xmlns="http://www.w3.org/2000/svg" width="22" height="22" viewBox="0 0 22 22" fill="none">
    <path d="M11 10.2375C10.7524 10.2342 10.5158 10.1344 10.3407 9.95928C10.1655 9.78416 10.0657 9.54758 10.0625 9.29995V5.38745C10.0625 5.13881 10.1613 4.90035 10.3371 4.72454C10.5129 4.54872 10.7514 4.44995 11 4.44995C11.2486 4.44995 11.4871 4.54872 11.6629 4.72454C11.8387 4.90035 11.9375 5.13881 11.9375 5.38745V9.29995C11.9343 9.54758 11.8345 9.78416 11.6593 9.95928C11.4842 10.1344 11.2476 10.2342 11 10.2375Z"
          fill="currentColor"/>
    <g opacity="0.3">
        <path d="M19.8248 13.075C18.697 11.3815 18.1127 9.3843 18.1498 7.35001V7.12501C18.1464 5.96628 17.856 4.82644 17.3044 3.80741C16.7528 2.78837 15.9573 1.92189 14.989 1.28544C14.0207 0.648995 12.9098 0.262408 11.7556 0.160245C10.6014 0.0580828 9.43982 0.243529 8.37479 0.700005C7.12711 1.21586 6.06319 2.09466 5.32098 3.22246C4.57877 4.35026 4.19251 5.67504 4.21229 7.02501V7.11251C4.22766 9.29189 3.53939 11.4181 2.24979 13.175L1.39979 14.325C1.06265 14.7805 0.882776 15.3333 0.88729 15.9C0.9002 16.5877 1.17998 17.2434 1.66749 17.7286C2.155 18.2138 2.81206 18.4904 3.49979 18.5H18.4998C18.8478 18.5 19.1924 18.4315 19.5139 18.2983C19.8354 18.1651 20.1275 17.9699 20.3736 17.7238C20.6197 17.4778 20.8149 17.1856 20.9481 16.8641C21.0812 16.5426 21.1498 16.198 21.1498 15.85V15.775C21.1528 15.2548 21.0005 14.7456 20.7123 14.3125L19.8248 13.075Z"
              fill="currentColor"/>
    </g>
    <path d="M8.5874 19.75C8.73133 20.2796 9.04553 20.7471 9.48153 21.0805C9.91752 21.4138 10.4511 21.5944 10.9999 21.5944C11.5487 21.5944 12.0823 21.4138 12.5183 21.0805C12.9543 20.7471 13.2685 20.2796 13.4124 19.75H8.5874Z"
          fill="currentColor"/>
</svg>
