<svg xmlns="http://www.w3.org/2000/svg" width="20" height="20" viewBox="0 0 20 20" fill="none">
    <path d="M14.2676 2.39886C13.5353 1.66663 12.3568 1.66663 9.9998 1.66663C7.64278 1.66663 6.46427 1.66663 5.73204 2.39886C5.32173 2.80917 5.14134 3.3596 5.06203 4.17899C5.52807 4.1666 6.04319 4.16661 6.60786 4.16663H13.3921C13.9567 4.16661 14.4716 4.1666 14.9376 4.17898C14.8583 3.35959 14.6779 2.80916 14.2676 2.39886Z"
          fill="currentColor"/>
    <path d="M15 12.9166C15 15.2736 15 16.8688 14.2678 17.6011C13.5355 18.3333 12.357 18.3333 10 18.3333C7.64298 18.3333 6.46447 18.3333 5.73223 17.6011C5 16.8688 5 15.2736 5 12.9166H15Z"
          fill="currentColor"/>
    <path opacity="0.5"
          d="M13.3332 5H6.6665C4.30948 5 3.13097 5 2.39874 5.73223C1.6665 6.46447 1.6665 7.64298 1.6665 10C1.6665 12.357 1.6665 13.5355 2.39874 14.2678C2.81086 14.6799 3.36436 14.8601 4.18979 14.9388C4.16649 14.3365 4.16649 13.6269 4.1665 12.9167C3.93639 12.9167 3.74984 12.7301 3.74984 12.5C3.74984 12.2699 3.93639 12.0833 4.1665 12.0833H15.8332C16.0633 12.0833 16.2498 12.2699 16.2498 12.5C16.2498 12.7301 16.0633 12.917 15.8332 12.917C15.8332 13.6271 15.8332 14.3366 15.8099 14.9388C16.6353 14.8601 17.1888 14.6799 17.6009 14.2678C18.3332 13.5355 18.3332 12.357 18.3332 10C18.3332 7.64298 18.3332 6.46447 17.6009 5.73223C16.8687 5 15.6902 5 13.3332 5Z"
          fill="currentColor"/>
    <path d="M7.5 8.95833C7.84518 8.95833 8.125 8.67851 8.125 8.33333C8.125 7.98816 7.84518 7.70833 7.5 7.70833H5C4.65482 7.70833 4.375 7.98816 4.375 8.33333C4.375 8.67851 4.65482 8.95833 5 8.95833H7.5Z"
          fill="currentColor"/>
    <path d="M15 8.33333C15 8.79357 14.6269 9.16667 14.1667 9.16667C13.7064 9.16667 13.3333 8.79357 13.3333 8.33333C13.3333 7.8731 13.7064 7.5 14.1667 7.5C14.6269 7.5 15 7.8731 15 8.33333Z"
          fill="currentColor"/>
</svg>
