<svg width="24" height="24" viewBox="0 0 24 24" fill="none" xmlns="http://www.w3.org/2000/svg">
    <path d="M20.25 2H3.75C2.7835 2 2 2.7835 2 3.75V8.75C2 9.7165 2.7835 10.5 3.75 10.5H20.25C21.2165 10.5 22 9.7165 22 8.75V3.75C22 2.7835 21.2165 2 20.25 2Z"
          fill="currentColor"/>
    <g opacity="0.3">
        <path d="M20.25 13.5H3.75C2.7835 13.5 2 14.2835 2 15.25V20.25C2 21.2165 2.7835 22 3.75 22H20.25C21.2165 22 22 21.2165 22 20.25V15.25C22 14.2835 21.2165 13.5 20.25 13.5Z"
              fill="currentColor"/>
    </g>
</svg>
