<svg width="16" height="16" viewBox="0 0 16 16" fill="none" xmlns="http://www.w3.org/2000/svg">
    <path d="M5.43319 13.8335C5.43319 14.0103 5.36295 14.1799 5.23792 14.3049C5.1129 14.4299 4.94333 14.5002 4.76652 14.5002C4.58971 14.5002 4.42014 14.4299 4.29512 14.3049C4.17009 14.1799 4.09985 14.0103 4.09985 13.8335H5.43319Z"
          fill="currentColor"/>
    <path d="M10.5132 13.8335C10.5132 14.0103 10.5834 14.1799 10.7084 14.3049C10.8335 14.4299 11.003 14.5002 11.1799 14.5002C11.3567 14.5002 11.5262 14.4299 11.6513 14.3049C11.7763 14.1799 11.8465 14.0103 11.8465 13.8335H10.5132Z"
          fill="currentColor"/>
    <path d="M12.0934 13.8335H3.90671C3.56877 13.8335 3.23415 13.7669 2.92194 13.6376C2.60972 13.5083 2.32604 13.3187 2.08709 13.0798C1.60449 12.5972 1.33337 11.9427 1.33337 11.2602V4.40683C1.33337 3.72434 1.60449 3.0698 2.08709 2.58721C2.56968 2.10461 3.22422 1.8335 3.90671 1.8335H12.0934C12.7759 1.8335 13.4304 2.10461 13.913 2.58721C14.3956 3.0698 14.6667 3.72434 14.6667 4.40683V11.2602C14.6667 11.9427 14.3956 12.5972 13.913 13.0798C13.4304 13.5624 12.7759 13.8335 12.0934 13.8335Z"
          fill="currentColor"/>
    <path d="M12.3332 7.83347C12.3341 7.66644 12.2932 7.50185 12.2141 7.35472C12.135 7.20759 12.0204 7.08261 11.8806 6.99119C11.7408 6.89978 11.5803 6.84483 11.4138 6.83138C11.2473 6.81792 11.0801 6.84638 10.9275 6.91416C10.7748 6.98194 10.6415 7.08689 10.5399 7.21941C10.4382 7.35193 10.3713 7.50781 10.3454 7.67281C10.3194 7.83781 10.3352 8.00669 10.3914 8.16402C10.4475 8.32134 10.5421 8.46211 10.6666 8.57347V9.1668C10.6666 9.34361 10.7368 9.51318 10.8618 9.63821C10.9869 9.76323 11.1564 9.83347 11.3332 9.83347C11.51 9.83347 11.6796 9.76323 11.8046 9.63821C11.9297 9.51318 11.9999 9.34361 11.9999 9.1668V8.57347C12.1041 8.48027 12.1876 8.36627 12.245 8.23881C12.3024 8.11134 12.3325 7.97326 12.3332 7.83347Z"
          fill="#F1F1F2"/>
</svg>
