<svg xmlns="http://www.w3.org/2000/svg" width="16" height="16" viewBox="0 0 16 16" fill="none">
    <path opacity="0.3"
          d="M15.1251 13.5649L12.7476 11.3149C12.2955 11.8969 11.7538 12.4033 11.1426 12.8149L13.5876 15.1399C13.6904 15.26 13.8175 15.3569 13.9605 15.4242C14.1036 15.4916 14.2592 15.5278 14.4173 15.5305C14.5753 15.5332 14.7322 15.5023 14.8774 15.44C15.0227 15.3776 15.153 15.2851 15.2599 15.1686C15.3668 15.0521 15.4477 14.9143 15.4974 14.7642C15.547 14.6141 15.5643 14.4552 15.548 14.298C15.5317 14.1408 15.4822 13.9888 15.4029 13.8521C15.3235 13.7154 15.216 13.597 15.0876 13.5049L15.1251 13.5649Z"
          fill="currentColor"/>
    <path d="M7.35547 0.5C6.02045 0.5 4.7154 0.895881 3.60537 1.63758C2.49534 2.37928 1.63018 3.43349 1.11928 4.66689C0.608393 5.90029 0.474721 7.25749 0.735171 8.56686C0.995621 9.87623 1.6385 11.079 2.5825 12.023C3.52651 12.967 4.72924 13.6099 6.03861 13.8703C7.34798 14.1308 8.70518 13.9971 9.93859 13.4862C11.172 12.9753 12.2262 12.1101 12.9679 11.0001C13.7096 9.89007 14.1055 8.58502 14.1055 7.25C14.1055 5.45979 13.3943 3.7429 12.1284 2.47703C10.8626 1.21116 9.14568 0.5 7.35547 0.5ZM7.35547 12.02C6.41386 12.02 5.49338 11.7409 4.71035 11.2179C3.92732 10.6949 3.3169 9.95155 2.95622 9.08176C2.59554 8.21196 2.50079 7.25477 2.68394 6.33114C2.8671 5.40751 3.31994 4.5589 3.98523 3.89255C4.65053 3.22621 5.49843 2.77203 6.42176 2.58743C7.3451 2.40282 8.30245 2.49606 9.17281 2.85537C10.0432 3.21469 10.7875 3.82394 11.3117 4.60614C11.8359 5.38835 12.1165 6.30839 12.118 7.25C12.1199 7.87633 11.9982 8.49688 11.7596 9.076C11.5211 9.65513 11.1705 10.1814 10.7279 10.6247C10.2854 11.0679 9.75966 11.4193 9.18091 11.6588C8.60216 11.8982 7.9818 12.021 7.35547 12.02Z"
          fill="currentColor"/>
</svg>
