<svg xmlns="http://www.w3.org/2000/svg" width="26" height="26" viewBox="0 0 26 26" fill="none">
    <path d="M13 3.87502C12.7618 3.87555 12.5324 3.78541 12.3582 3.62289C12.1841 3.46038 12.0784 3.23768 12.0625 3.00002V1.46252C12.0625 1.21388 12.1613 0.975427 12.3371 0.799612C12.5129 0.623796 12.7514 0.525024 13 0.525024C13.2486 0.525024 13.4871 0.623796 13.6629 0.799612C13.8387 0.975427 13.9375 1.21388 13.9375 1.46252V3.00002C13.9216 3.23768 13.8159 3.46038 13.6418 3.62289C13.4676 3.78541 13.2382 3.87555 13 3.87502Z"
          fill="currentColor"/>
    <path d="M13 25.5C12.7524 25.4968 12.5158 25.397 12.3407 25.2218C12.1655 25.0467 12.0657 24.8101 12.0625 24.5625V23.0625C12.0625 22.8139 12.1613 22.5754 12.3371 22.3996C12.5129 22.2238 12.7514 22.125 13 22.125C13.2486 22.125 13.4871 22.2238 13.6629 22.3996C13.8387 22.5754 13.9375 22.8139 13.9375 23.0625V24.5375C13.9392 24.6623 13.9162 24.7861 13.87 24.902C13.8238 25.0179 13.7552 25.1236 13.6681 25.2129C13.5811 25.3023 13.4772 25.3737 13.3626 25.4229C13.248 25.4722 13.1248 25.4984 13 25.5Z"
          fill="currentColor"/>
    <path d="M5.88747 6.82497C5.76429 6.82555 5.64224 6.80153 5.52848 6.7543C5.41471 6.70708 5.31153 6.63761 5.22497 6.54997L4.17497 5.49997C4.06255 5.41984 3.96895 5.31618 3.90068 5.19619C3.8324 5.0762 3.7911 4.94278 3.77964 4.8052C3.76819 4.66763 3.78685 4.52921 3.83434 4.39958C3.88183 4.26995 3.957 4.15223 4.05462 4.05462C4.15223 3.957 4.26995 3.88183 4.39958 3.83434C4.52921 3.78685 4.66763 3.76819 4.8052 3.77964C4.94278 3.7911 5.0762 3.8324 5.19619 3.90068C5.31618 3.96895 5.41984 4.06255 5.49997 4.17497L6.53747 5.22497C6.71303 5.40075 6.81165 5.63903 6.81165 5.88747C6.81165 6.13591 6.71303 6.37419 6.53747 6.54997C6.36566 6.72394 6.13197 6.82281 5.88747 6.82497Z"
          fill="currentColor"/>
    <path d="M21.1498 22.1C20.9023 22.0946 20.6658 21.9965 20.4873 21.825L19.4498 20.775C19.3576 20.6892 19.2838 20.5857 19.2325 20.4707C19.1813 20.3557 19.1537 20.2315 19.1515 20.1057C19.1493 19.9798 19.1724 19.8547 19.2196 19.738C19.2668 19.6213 19.3369 19.5152 19.426 19.4262C19.515 19.3372 19.621 19.267 19.7378 19.2198C19.8545 19.1727 19.9795 19.1495 20.1054 19.1518C20.2313 19.154 20.3554 19.1815 20.4704 19.2328C20.5854 19.284 20.6889 19.3579 20.7748 19.45L21.8248 20.4875C21.9981 20.667 22.095 20.9067 22.095 21.1562C22.095 21.4058 21.9981 21.6455 21.8248 21.825C21.6431 21.9994 21.4016 22.0978 21.1498 22.1Z"
          fill="currentColor"/>
    <path d="M2.9999 13.9375H1.4624C1.21376 13.9375 0.975305 13.8387 0.79949 13.6629C0.623674 13.4871 0.524902 13.2486 0.524902 13C0.524902 12.7514 0.623674 12.5129 0.79949 12.3371C0.975305 12.1613 1.21376 12.0625 1.4624 12.0625H2.9999C3.24854 12.0625 3.487 12.1613 3.66282 12.3371C3.83863 12.5129 3.9374 12.7514 3.9374 13C3.9374 13.2486 3.83863 13.4871 3.66282 13.6629C3.487 13.8387 3.24854 13.9375 2.9999 13.9375Z"
          fill="currentColor"/>
    <path d="M24.5375 13.9375H23.0625C22.8139 13.9375 22.5754 13.8387 22.3996 13.6629C22.2238 13.4871 22.125 13.2486 22.125 13C22.125 12.7514 22.2238 12.5129 22.3996 12.3371C22.5754 12.1613 22.8139 12.0625 23.0625 12.0625H24.5375C24.7861 12.0625 25.0246 12.1613 25.2004 12.3371C25.3762 12.5129 25.475 12.7514 25.475 13C25.475 13.2486 25.3762 13.4871 25.2004 13.6629C25.0246 13.8387 24.7861 13.9375 24.5375 13.9375Z"
          fill="currentColor"/>
    <path d="M4.85006 22.1C4.59822 22.0978 4.35676 21.9994 4.17506 21.825C4.00169 21.6455 3.90479 21.4058 3.90479 21.1562C3.90479 20.9067 4.00169 20.667 4.17506 20.4875L5.22506 19.45C5.31088 19.3579 5.41439 19.284 5.52938 19.2328C5.64438 19.1815 5.76853 19.154 5.8944 19.1518C6.02028 19.1495 6.14532 19.1727 6.26205 19.2198C6.37879 19.267 6.48483 19.3372 6.57385 19.4262C6.66288 19.5152 6.73306 19.6213 6.78021 19.738C6.82736 19.8547 6.85052 19.9798 6.8483 20.1057C6.84608 20.2315 6.81852 20.3557 6.76728 20.4707C6.71604 20.5857 6.64217 20.6892 6.55006 20.775L5.50006 21.825C5.32466 21.9936 5.0932 22.0915 4.85006 22.1Z"
          fill="currentColor"/>
    <path d="M20.1125 6.82497C19.9893 6.82555 19.8672 6.80153 19.7535 6.7543C19.6397 6.70708 19.5365 6.63761 19.45 6.54997C19.2744 6.37419 19.1758 6.13591 19.1758 5.88747C19.1758 5.63903 19.2744 5.40075 19.45 5.22497L20.5 4.17497C20.5801 4.06255 20.6837 3.96895 20.8037 3.90068C20.9237 3.8324 21.0571 3.7911 21.1947 3.77964C21.3323 3.76819 21.4707 3.78685 21.6003 3.83434C21.73 3.88183 21.8477 3.957 21.9453 4.05462C22.0429 4.15223 22.1181 4.26995 22.1656 4.39958C22.2131 4.52921 22.2317 4.66763 22.2203 4.8052C22.2088 4.94278 22.1675 5.0762 22.0993 5.19619C22.031 5.31618 21.9374 5.41984 21.825 5.49997L20.775 6.53747C20.6895 6.62737 20.5867 6.69916 20.4729 6.74855C20.3591 6.79794 20.2365 6.82393 20.1125 6.82497Z"
          fill="currentColor"/>
    <g opacity="0.3">
        <path d="M13.0001 20.025C16.8799 20.025 20.0251 16.8798 20.0251 13C20.0251 9.12017 16.8799 5.97498 13.0001 5.97498C9.1203 5.97498 5.9751 9.12017 5.9751 13C5.9751 16.8798 9.1203 20.025 13.0001 20.025Z"
              fill="currentColor"/>
    </g>
</svg>
