<svg width="24" height="24" viewBox="0 0 24 24" fill="none" xmlns="http://www.w3.org/2000/svg">
    <path d="M12.8139 15.7491L9.68261 18.8574C9.5889 18.9134 9.46702 19.0535 9.21387 18.9788C9.08265 18.9321 8.92324 18.7827 8.89515 18.6147V18.6054L7.99512 13.2475L8.7264 12.6968C8.82108 12.7521 10.6281 13.8071 10.517 13.7422L12.8139 15.0864C12.992 15.273 12.992 15.5624 12.8139 15.7491Z"
          fill="currentColor"/>
    <path d="M20.1578 4.56031L17.3139 18.6239C17.2857 18.7732 17.1732 18.9039 17.0232 18.9599C16.967 18.9879 16.9107 18.9973 16.8545 18.9973C16.7607 18.9973 16.667 18.9692 16.5826 18.9132C16.4883 18.8462 9.5807 13.9335 10.0201 14.246C5.83762 12.1831 8.01927 13.2674 4.42949 11.4831C4.26074 11.3991 4.16699 11.231 4.16699 11.0537C4.17637 10.867 4.27949 10.7083 4.44824 10.6336L19.511 4.03758C19.6703 3.97224 19.8578 3.99091 19.9891 4.10292C20.0078 4.12159 20.036 4.1496 20.0547 4.16826C20.1485 4.28028 20.186 4.42029 20.1578 4.56031Z"
          fill="currentColor"/>
    <path d="M20.0548 4.16846L10.5171 13.7422L10.0203 14.2462L9.21399 18.9787C9.08277 18.9321 8.92336 18.7827 8.89527 18.6147V18.6054L7.99524 13.2474L8.72652 12.6967L20.0548 4.16846Z"
          fill="#7E8299"/>
</svg>
