<svg xmlns="http://www.w3.org/2000/svg" width="24" height="24" viewBox="0 0 24 24" fill="none">
    <g opacity="0.3">
        <path d="M14.92 8.98999H9.08C7.93125 8.98999 7 9.92124 7 11.07V16.93C7 18.0787 7.93125 19.01 9.08 19.01H14.92C16.0688 19.01 17 18.0787 17 16.93V11.07C17 9.92124 16.0688 8.98999 14.92 8.98999Z"
              fill="#3F4254"/>
    </g>
    <path d="M4 16.66C3.73478 16.66 3.48043 16.5547 3.29289 16.3671C3.10536 16.1796 3 15.9253 3 15.66V11.66C3 11.3948 3.10536 11.1405 3.29289 10.9529C3.48043 10.7654 3.73478 10.66 4 10.66C4.26522 10.66 4.51957 10.7654 4.70711 10.9529C4.89464 11.1405 5 11.3948 5 11.66V15.66C5 15.9253 4.89464 16.1796 4.70711 16.3671C4.51957 16.5547 4.26522 16.66 4 16.66Z"
          fill="#3F4254"/>
    <path d="M9.08008 19V21C9.08008 21.2652 9.18544 21.5196 9.37297 21.7071C9.56051 21.8946 9.81486 22 10.0801 22C10.3453 22 10.5996 21.8946 10.7872 21.7071C10.9747 21.5196 11.0801 21.2652 11.0801 21V19H9.08008Z"
          fill="#3F4254"/>
    <path d="M14.92 19H13V21C13 21.2652 13.1054 21.5196 13.2929 21.7071C13.4804 21.8946 13.7348 22 14 22C14.2652 22 14.5196 21.8946 14.7071 21.7071C14.8946 21.5196 15 21.2652 15 21V19H14.92Z"
          fill="#3F4254"/>
    <path d="M20 16.66C19.7348 16.66 19.4804 16.5547 19.2929 16.3671C19.1054 16.1796 19 15.9253 19 15.66V11.66C19 11.3948 19.1054 11.1405 19.2929 10.9529C19.4804 10.7654 19.7348 10.66 20 10.66C20.2652 10.66 20.5196 10.7654 20.7071 10.9529C20.8946 11.1405 21 11.3948 21 11.66V15.66C21 15.9253 20.8946 16.1796 20.7071 16.3671C20.5196 16.5547 20.2652 16.66 20 16.66Z"
          fill="#3F4254"/>
    <g opacity="0.3">
        <path d="M13.8299 7.59002C14.2999 7.59839 14.7548 7.42357 15.0982 7.10256C15.4416 6.78155 15.6466 6.33953 15.6699 5.87002C15.6621 5.35305 15.5524 4.84271 15.347 4.36822C15.1416 3.89374 14.8446 3.46445 14.473 3.10494C14.1014 2.74544 13.6626 2.46278 13.1816 2.27318C12.7006 2.08358 12.1869 1.99075 11.6699 2.00002C11.153 1.99075 10.6393 2.08358 10.1583 2.27318C9.67727 2.46278 9.2384 2.74544 8.86682 3.10494C8.49524 3.46445 8.19825 3.89374 7.99286 4.36822C7.78747 4.84271 7.67773 5.35305 7.66992 5.87002C7.69322 6.33953 7.89827 6.78155 8.24168 7.10256C8.58509 7.42357 9.03991 7.59839 9.50992 7.59002H13.8299Z"
              fill="#3F4254"/>
    </g>
</svg>
