<svg width="228" height="75" viewBox="0 0 228 75" fill="none" xmlns="http://www.w3.org/2000/svg">
 <path d="M103.287 41.8033V67.0712H105.999V57.6943H112.856C115.178 57.6943 117.114 56.9364 118.66 55.4147C120.206 53.8929 120.976 52.0044 120.976 49.7429C120.976 47.4812 120.206 45.5927 118.672 44.077C117.133 42.5612 115.19 41.8033 112.856 41.8033H103.287ZM112.856 44.3415C114.486 44.3415 115.797 44.8349 116.784 45.8211C117.77 46.8076 118.263 48.1188 118.263 49.7488C118.263 51.3849 117.77 52.69 116.784 53.6765C115.797 54.6689 114.486 55.162 112.856 55.162H105.999V44.3415H112.856ZM129.451 57.1528C127.821 57.4237 126.57 58.0009 125.698 58.8851C124.831 59.7754 124.392 60.9363 124.392 62.3857C124.392 63.697 124.982 64.8699 126.167 65.8924C127.346 66.9149 128.801 67.4262 130.527 67.4262C131.219 67.4262 131.893 67.3298 132.542 67.1433C133.198 66.951 133.721 66.7405 134.118 66.4998C134.521 66.2592 134.894 65.9824 135.237 65.6699C135.586 65.3571 135.808 65.1405 135.911 65.0203C136.007 64.8939 136.085 64.7977 136.127 64.7254V67.0712H138.647V56.0582C138.647 54.1637 137.998 52.5819 136.704 51.3005C135.405 50.0194 133.769 49.382 131.797 49.382C131.021 49.382 130.257 49.4961 129.511 49.7248C128.765 49.9534 128.164 50.212 127.707 50.5066C127.249 50.8015 126.81 51.1322 126.395 51.5051C125.974 51.8721 125.71 52.1307 125.583 52.2811C125.457 52.4253 125.361 52.5455 125.295 52.642L126.913 54.2599L127.46 53.6463C127.827 53.2072 128.41 52.7803 129.216 52.3652C130.016 51.9501 130.876 51.7396 131.797 51.7396C133.066 51.7396 134.106 52.1427 134.912 52.9366C135.724 53.7366 136.127 54.7771 136.127 56.0582L129.451 57.1528ZM130.527 65.0804C129.397 65.0804 128.512 64.8218 127.875 64.3105C127.231 63.8052 126.913 63.1616 126.913 62.3857C126.925 60.7498 128.013 59.7273 130.173 59.3183L136.127 58.2234V59.3183C136.127 61.0204 135.604 62.4097 134.551 63.4745C133.499 64.5451 132.158 65.0804 130.527 65.0804ZM148.199 69.5915C147.555 71.4018 146.466 72.3041 144.939 72.3041C144.337 72.292 143.742 72.1716 143.14 71.9371V74.2949L143.387 74.367C143.567 74.4392 143.832 74.4993 144.193 74.5596C144.548 74.6197 144.92 74.6497 145.312 74.6497C146.557 74.6497 147.585 74.2647 148.409 73.4949C149.233 72.725 150.003 71.4258 150.719 69.5915L158.664 49.7488H155.951L150.364 63.8292L144.764 49.7488H142.052L149.095 67.0712L148.199 69.5915Z" fill="#FEFEFE"/>
 <path fill-rule="evenodd" clip-rule="evenodd" d="M13.7368 9.4836C29.7894 -4.25973 53.9442 -2.38767 67.6875 13.6652C80.3628 28.4702 79.7554 50.1665 66.9915 64.2311L10.1471 64.1085C9.94791 63.8865 9.75015 63.6623 9.55497 63.4346C-4.18835 47.3817 -2.31607 23.2269 13.7368 9.4836Z" fill="#FEFEFE"/>
 <path d="M120.763 18.1965V20.0544V24.0262L120.13 24.5547C119.692 24.9512 118.941 25.3406 117.87 25.7302C116.792 26.1128 115.609 26.3077 114.301 26.3077C111.568 26.3077 109.287 25.3894 107.457 23.56C105.621 21.7238 104.703 19.4423 104.703 16.709C104.703 13.9822 105.621 11.7007 107.457 9.86476C109.287 8.02831 111.568 7.11727 114.301 7.11727C115.296 7.11727 116.263 7.27024 117.216 7.56936C118.169 7.87532 118.934 8.20909 119.518 8.57068C120.102 8.9325 120.645 9.34995 121.139 9.82279C121.633 10.3027 121.953 10.6367 122.099 10.8314C122.238 11.0332 122.349 11.1793 122.432 11.2906L126.404 7.3188L125.938 6.70689C125.639 6.31018 125.145 5.83027 124.464 5.26008C123.775 4.68965 122.989 4.11921 122.099 3.54902C121.208 2.97859 120.068 2.49161 118.684 2.08831C117.299 1.69183 115.839 1.4903 114.301 1.4903C109.843 1.4903 106.087 2.97859 103.02 5.95567C99.9592 8.92543 98.429 12.5147 98.429 16.709C98.429 20.9101 99.9592 24.4991 103.02 27.483C106.087 30.4601 109.843 31.9554 114.301 31.9554C115.853 31.9554 117.355 31.7539 118.816 31.3435C120.276 30.9331 121.459 30.481 122.363 29.987C123.267 29.4934 124.123 28.9227 124.93 28.2762C125.736 27.6291 126.258 27.177 126.495 26.9128C126.738 26.6483 126.912 26.4465 127.016 26.3077V18.1965H120.763Z" fill="#FEFEFE"/>
 <path d="M138.486 2.30658H132.845V31.5269H138.486V2.30658Z" fill="#FEFEFE"/>
 <path d="M148.697 21.1048C148.697 19.5748 149.191 18.2878 150.178 17.2445C151.173 16.1942 152.349 15.6725 153.705 15.6725C155.068 15.6725 156.237 16.1942 157.231 17.2445C158.226 18.2878 158.72 19.5748 158.72 21.1048C158.72 22.628 158.226 23.9148 157.231 24.9512C156.237 25.9945 155.068 26.5163 153.705 26.5163C152.349 26.5163 151.173 25.9945 150.178 24.9512C149.191 23.9148 148.697 22.628 148.697 21.1048ZM164.548 21.0909C164.548 18.2529 163.471 15.7699 161.314 13.6416C159.165 11.52 156.626 10.4559 153.705 10.4559C150.783 10.4559 148.245 11.52 146.088 13.6416C143.925 15.7699 142.847 18.2529 142.847 21.0909C142.847 23.9289 143.925 26.4119 146.088 28.5404C148.245 30.6687 150.783 31.7329 153.705 31.7329C156.626 31.7329 159.165 30.6687 161.314 28.5404C163.471 26.4119 164.548 23.9289 164.548 21.0909Z" fill="#FEFEFE"/>
 <path d="M227.843 2.30658H222.202V31.5269H227.843V2.30658Z" fill="#FEFEFE"/>
 <path d="M174.78 21.1047C174.78 19.5747 175.274 18.2877 176.262 17.2445C177.256 16.1941 178.432 15.6725 179.788 15.6725C181.151 15.6725 182.32 16.1941 183.315 17.2445C184.309 18.2877 184.803 19.5747 184.803 21.1047C184.803 22.6279 184.309 23.9147 183.315 24.9511C182.32 25.9944 181.151 26.5163 179.788 26.5163C178.432 26.5163 177.256 25.9944 176.262 24.9511C175.274 23.9147 174.78 22.6279 174.78 21.1047ZM174.593 2.10217H168.952V20.404C168.938 20.6305 168.93 20.8596 168.93 21.0908C168.93 23.9288 170.009 26.4119 172.172 28.5404C174.328 30.6686 176.867 31.7329 179.788 31.7329C182.71 31.7329 185.248 30.6686 187.397 28.5404C189.554 26.4119 190.632 23.9288 190.632 21.0908C190.632 18.2528 189.554 15.7698 187.397 13.6416C185.248 11.5199 182.71 10.4559 179.788 10.4559C177.896 10.4559 176.164 10.9026 174.593 11.7936V2.10217Z" fill="#FEFEFE"/>
 <path d="M210.524 21.1048C210.524 19.5748 210.03 18.2878 209.042 17.2445C208.048 16.1942 206.872 15.6725 205.516 15.6725C204.152 15.6725 202.984 16.1942 201.989 17.2445C200.995 18.2878 200.5 19.5748 200.5 21.1048C200.5 22.628 200.995 23.9148 201.989 24.9512C202.984 25.9945 204.152 26.5163 205.516 26.5163C206.872 26.5163 208.048 25.9945 209.042 24.9512C210.03 23.9148 210.524 22.628 210.524 21.1048ZM210.732 10.6676H216.373V21.0909V31.5213H210.732V30.3809C209.155 31.282 207.417 31.7329 205.516 31.7329C202.594 31.7329 200.055 30.6687 197.906 28.5404C195.75 26.4119 194.672 23.9289 194.672 21.0909C194.672 18.2529 195.75 15.7699 197.906 13.6416C200.055 11.52 202.594 10.4559 205.516 10.4559C207.417 10.4559 209.155 10.9066 210.732 11.8059V10.6676Z" fill="#FEFEFE"/>
</svg>

