<svg width="113" height="36" viewBox="0 0 113 36" fill="none" xmlns="http://www.w3.org/2000/svg">
<path d="M49.876 20.0991V32.3314H51.1892V27.792H54.5085C55.6325 27.792 56.57 27.4251 57.3184 26.6884C58.0667 25.9517 58.4394 25.0375 58.4394 23.9427C58.4394 22.8478 58.0667 21.9336 57.3242 21.1998C56.5788 20.466 55.6383 20.0991 54.5085 20.0991H49.876ZM54.5085 21.3279C55.2976 21.3279 55.9324 21.5667 56.41 22.0441C56.8875 22.5217 57.1262 23.1565 57.1262 23.9456C57.1262 24.7376 56.8875 25.3694 56.41 25.847C55.9324 26.3274 55.2976 26.5661 54.5085 26.5661H51.1892V21.3279H54.5085ZM62.5421 27.5299C61.7531 27.661 61.1474 27.9405 60.7252 28.3685C60.3059 28.7995 60.0933 29.3615 60.0933 30.0631C60.0933 30.6979 60.3787 31.2658 60.9524 31.7608C61.523 32.2558 62.2277 32.5033 63.0633 32.5033C63.3982 32.5033 63.7243 32.4566 64.0388 32.3664C64.3562 32.2732 64.6095 32.1713 64.8016 32.0548C64.9968 31.9383 65.1773 31.8044 65.3432 31.653C65.5121 31.5016 65.6198 31.3968 65.6693 31.3386C65.7159 31.2774 65.7538 31.2308 65.7742 31.1958V32.3314H66.9942V27C66.9942 26.0829 66.6798 25.3171 66.0537 24.6968C65.4248 24.0766 64.6328 23.768 63.6778 23.768C63.3021 23.768 62.9323 23.8232 62.5712 23.9339C62.2102 24.0446 61.919 24.1698 61.6977 24.3124C61.4765 24.4552 61.2639 24.6153 61.0629 24.7958C60.8591 24.9735 60.731 25.0987 60.6698 25.1715C60.6088 25.2413 60.5621 25.2995 60.5301 25.3462L61.3134 26.1294L61.5784 25.8324C61.7559 25.6198 62.0383 25.4131 62.4286 25.2122C62.8158 25.0112 63.2322 24.9093 63.6778 24.9093C64.2921 24.9093 64.7958 25.1045 65.186 25.4888C65.5791 25.8761 65.7742 26.3798 65.7742 27L62.5421 27.5299ZM63.0633 31.3677C62.5159 31.3677 62.0879 31.2425 61.7792 30.995C61.4677 30.7503 61.3134 30.4388 61.3134 30.0631C61.3192 29.2712 61.8462 28.7762 62.8915 28.5782L65.7742 28.0482V28.5782C65.7742 29.4022 65.5209 30.0748 65.0113 30.5902C64.5018 31.1085 63.8525 31.3677 63.0633 31.3677ZM71.618 33.5515C71.3065 34.4279 70.7794 34.8647 70.0399 34.8647C69.7487 34.8589 69.4604 34.8006 69.1692 34.687V35.8285L69.2886 35.8634C69.376 35.8983 69.5041 35.9274 69.6789 35.9566C69.8506 35.9857 70.0311 36.0002 70.2204 36.0002C70.8232 36.0002 71.321 35.8139 71.7199 35.4412C72.1189 35.0685 72.4916 34.4395 72.8381 33.5515L76.6844 23.9456H75.3713L72.6663 30.762L69.9555 23.9456H68.6423L72.0519 32.3314L71.618 33.5515Z" fill="#727271"/>
<path fill-rule="evenodd" clip-rule="evenodd" d="M6.52401 4.45275C14.2952 -2.20047 25.9887 -1.2942 32.6419 6.47708C38.7781 13.6443 38.484 24.1476 32.3049 30.9563L4.78623 30.897C4.6898 30.7895 4.59406 30.681 4.49958 30.5707C-2.15364 22.7995 -1.24726 11.106 6.52401 4.45275Z" fill="#E9532F"/>
<path d="M58.3365 8.67072V9.57014V11.4929L58.0301 11.7487C57.818 11.9407 57.4543 12.1292 56.9358 12.3178C56.4139 12.503 55.8414 12.5974 55.2084 12.5974C53.8852 12.5974 52.7807 12.1528 51.8951 11.2672C51.0062 10.3783 50.5616 9.2738 50.5616 7.95057C50.5616 6.63054 51.0062 5.52606 51.8951 4.63725C52.7807 3.74822 53.8852 3.30718 55.2084 3.30718C55.6899 3.30718 56.1579 3.38124 56.6193 3.52604C57.0806 3.67416 57.451 3.83574 57.7339 4.01078C58.0167 4.18594 58.2793 4.38803 58.5184 4.61694C58.7575 4.84927 58.9123 5.01096 58.9831 5.10522C59.0505 5.2029 59.1044 5.27365 59.1446 5.32751L61.0674 3.40474L60.8418 3.10851C60.697 2.91646 60.4579 2.68414 60.1279 2.4081C59.7946 2.13196 59.4141 1.8558 58.9831 1.57977C58.5521 1.30362 57.9999 1.06787 57.3298 0.87263C56.6597 0.680696 55.9526 0.58313 55.2084 0.58313C53.0501 0.58313 51.2318 1.30362 49.7468 2.74484C48.2652 4.18252 47.5244 5.92008 47.5244 7.95057C47.5244 9.98436 48.2652 11.7218 49.7468 13.1663C51.2318 14.6076 53.0501 15.3315 55.2084 15.3315C55.9594 15.3315 56.6867 15.2339 57.3937 15.0352C58.1009 14.8366 58.6734 14.6177 59.1111 14.3785C59.5487 14.1396 59.9629 13.8633 60.3535 13.5503C60.7441 13.2371 60.9968 13.0182 61.1112 12.8903C61.229 12.7623 61.3132 12.6646 61.3636 12.5974V8.67072H58.3365Z" fill="#E9532F"/>
<path d="M66.9153 0.978394H64.1846V15.1241H66.9153V0.978394Z" fill="#E9532F"/>
<path d="M71.8592 10.0788C71.8592 9.33807 72.0983 8.71502 72.5764 8.20997C73.0578 7.70149 73.627 7.44897 74.2836 7.44897C74.9435 7.44897 75.5093 7.70149 75.9907 8.20997C76.4723 8.71502 76.7113 9.33807 76.7113 10.0788C76.7113 10.8161 76.4723 11.4391 75.9907 11.9408C75.5093 12.4459 74.9435 12.6985 74.2836 12.6985C73.627 12.6985 73.0578 12.4459 72.5764 11.9408C72.0983 11.4391 71.8592 10.8161 71.8592 10.0788ZM79.5331 10.072C79.5331 8.69814 79.0112 7.4961 77.9673 6.46579C76.9268 5.43868 75.6978 4.92358 74.2836 4.92358C72.8693 4.92358 71.6404 5.43868 70.5965 6.46579C69.5493 7.4961 69.0273 8.69814 69.0273 10.072C69.0273 11.4459 69.5493 12.648 70.5965 13.6784C71.6404 14.7087 72.8693 15.2239 74.2836 15.2239C75.6978 15.2239 76.9268 14.7087 77.9673 13.6784C79.0112 12.648 79.5331 11.4459 79.5331 10.072Z" fill="#E9532F"/>
<path d="M110.174 0.978394H107.443V15.1241H110.174V0.978394Z" fill="#E9532F"/>
<path d="M84.4862 10.0788C84.4862 9.33808 84.7252 8.71503 85.2034 8.20998C85.6849 7.7015 86.254 7.44898 86.9107 7.44898C87.5705 7.44898 88.1364 7.7015 88.6178 8.20998C89.0992 8.71503 89.3384 9.33808 89.3384 10.0788C89.3384 10.8162 89.0992 11.4391 88.6178 11.9408C88.1364 12.4459 87.5705 12.6985 86.9107 12.6985C86.254 12.6985 85.6849 12.4459 85.2034 11.9408C84.7252 11.4391 84.4862 10.8162 84.4862 10.0788ZM84.3956 0.879517H81.6648V9.73952C81.6578 9.84918 81.6543 9.9601 81.6543 10.072C81.6543 11.4459 82.1762 12.648 83.2234 13.6784C84.2673 14.7087 85.4964 15.2239 86.9107 15.2239C88.3249 15.2239 89.5538 14.7087 90.5943 13.6784C91.6382 12.648 92.1601 11.4459 92.1601 10.072C92.1601 8.69815 91.6382 7.49611 90.5943 6.4658C89.5538 5.43869 88.3249 4.9236 86.9107 4.9236C85.9946 4.9236 85.1562 5.13983 84.3956 5.57117V0.879517Z" fill="#E9532F"/>
<path d="M101.79 10.0788C101.79 9.33807 101.551 8.71502 101.073 8.20997C100.591 7.70149 100.022 7.44897 99.3656 7.44897C98.7057 7.44897 98.14 7.70149 97.6584 8.20997C97.177 8.71502 96.9378 9.33807 96.9378 10.0788C96.9378 10.8161 97.177 11.4391 97.6584 11.9408C98.14 12.4459 98.7057 12.6985 99.3656 12.6985C100.022 12.6985 100.591 12.4459 101.073 11.9408C101.551 11.4391 101.79 10.8161 101.79 10.0788ZM101.891 5.02606H104.622V10.072V15.1214H101.891V14.5694C101.128 15.0056 100.286 15.2239 99.3656 15.2239C97.9515 15.2239 96.7224 14.7087 95.6819 13.6784C94.638 12.648 94.1162 11.4459 94.1162 10.072C94.1162 8.69814 94.638 7.4961 95.6819 6.46579C96.7224 5.43868 97.9515 4.92358 99.3656 4.92358C100.286 4.92358 101.128 5.14176 101.891 5.5771V5.02606Z" fill="#E9532F"/>
<rect x="81.6875" y="20.0625" width="29" height="15" rx="6" fill="#FFC700"/>
<path d="M89.1575 27.4925C89.5308 27.5592 89.8475 27.7558 90.1075 28.0825C90.3675 28.4092 90.4975 28.7792 90.4975 29.1925C90.4975 29.5458 90.4042 29.8658 90.2175 30.1525C90.0375 30.4325 89.7742 30.6558 89.4275 30.8225C89.0808 30.9825 88.6775 31.0625 88.2175 31.0625H85.4375V24.1125H88.0875C88.5608 24.1125 88.9675 24.1925 89.3075 24.3525C89.6475 24.5125 89.9042 24.7292 90.0775 25.0025C90.2508 25.2692 90.3375 25.5692 90.3375 25.9025C90.3375 26.3025 90.2308 26.6358 90.0175 26.9025C89.8042 27.1692 89.5175 27.3658 89.1575 27.4925ZM86.5775 27.0325H87.9875C88.3608 27.0325 88.6508 26.9492 88.8575 26.7825C89.0708 26.6092 89.1775 26.3625 89.1775 26.0425C89.1775 25.7292 89.0708 25.4858 88.8575 25.3125C88.6508 25.1325 88.3608 25.0425 87.9875 25.0425H86.5775V27.0325ZM88.1175 30.1325C88.5042 30.1325 88.8075 30.0392 89.0275 29.8525C89.2475 29.6658 89.3575 29.4058 89.3575 29.0725C89.3575 28.7325 89.2408 28.4625 89.0075 28.2625C88.7742 28.0625 88.4642 27.9625 88.0775 27.9625H86.5775V30.1325H88.1175ZM96.7863 28.1725C96.7863 28.3792 96.773 28.5658 96.7463 28.7325H92.5363C92.5697 29.1725 92.733 29.5258 93.0263 29.7925C93.3197 30.0592 93.6797 30.1925 94.1063 30.1925C94.7197 30.1925 95.153 29.9358 95.4063 29.4225H96.6363C96.4697 29.9292 96.1663 30.3458 95.7263 30.6725C95.293 30.9925 94.753 31.1525 94.1063 31.1525C93.5797 31.1525 93.1063 31.0358 92.6863 30.8025C92.273 30.5625 91.9463 30.2292 91.7063 29.8025C91.473 29.3692 91.3563 28.8692 91.3563 28.3025C91.3563 27.7358 91.4697 27.2392 91.6963 26.8125C91.9297 26.3792 92.253 26.0458 92.6663 25.8125C93.0863 25.5792 93.5663 25.4625 94.1063 25.4625C94.6263 25.4625 95.0897 25.5758 95.4963 25.8025C95.903 26.0292 96.2197 26.3492 96.4463 26.7625C96.673 27.1692 96.7863 27.6392 96.7863 28.1725ZM95.5963 27.8125C95.5897 27.3925 95.4397 27.0558 95.1463 26.8025C94.853 26.5492 94.4897 26.4225 94.0563 26.4225C93.663 26.4225 93.3263 26.5492 93.0463 26.8025C92.7663 27.0492 92.5997 27.3858 92.5463 27.8125H95.5963ZM99.2382 26.4825V29.5325C99.2382 29.7392 99.2849 29.8892 99.3782 29.9825C99.4782 30.0692 99.6449 30.1125 99.8782 30.1125H100.578V31.0625H99.6782C99.1649 31.0625 98.7715 30.9425 98.4982 30.7025C98.2249 30.4625 98.0882 30.0725 98.0882 29.5325V26.4825H97.4382V25.5525H98.0882V24.1825H99.2382V25.5525H100.578V26.4825H99.2382ZM101.249 28.2825C101.249 27.7292 101.362 27.2392 101.589 26.8125C101.822 26.3858 102.136 26.0558 102.529 25.8225C102.929 25.5825 103.369 25.4625 103.849 25.4625C104.282 25.4625 104.659 25.5492 104.979 25.7225C105.306 25.8892 105.566 26.0992 105.759 26.3525V25.5525H106.909V31.0625H105.759V30.2425C105.566 30.5025 105.302 30.7192 104.969 30.8925C104.636 31.0658 104.256 31.1525 103.829 31.1525C103.356 31.1525 102.922 31.0325 102.529 30.7925C102.136 30.5458 101.822 30.2058 101.589 29.7725C101.362 29.3325 101.249 28.8358 101.249 28.2825ZM105.759 28.3025C105.759 27.9225 105.679 27.5925 105.519 27.3125C105.366 27.0325 105.162 26.8192 104.909 26.6725C104.656 26.5258 104.382 26.4525 104.089 26.4525C103.796 26.4525 103.522 26.5258 103.269 26.6725C103.016 26.8125 102.809 27.0225 102.649 27.3025C102.496 27.5758 102.419 27.9025 102.419 28.2825C102.419 28.6625 102.496 28.9958 102.649 29.2825C102.809 29.5692 103.016 29.7892 103.269 29.9425C103.529 30.0892 103.802 30.1625 104.089 30.1625C104.382 30.1625 104.656 30.0892 104.909 29.9425C105.162 29.7958 105.366 29.5825 105.519 29.3025C105.679 29.0158 105.759 28.6825 105.759 28.3025Z" fill="white"/>
</svg>
