<svg xmlns="http://www.w3.org/2000/svg" width="20" height="20" viewBox="0 0 20 20" fill="none">
    <g clip-path="url(#clip0_2545_114787)">
        <path d="M-0.109375 0.0549011H19.8906V20.0549H-0.109375V0.0549011Z" fill="#012169"/>
        <path d="M19.8906 0.0549011V2.5549L12.4688 10.0549L19.8906 17.3596V20.0549H17.2734L9.8125 12.7112L2.54688 20.0549H-0.109375V17.3987L7.15625 10.094L-0.109375 2.94553V0.0549011H2.3125L9.8125 7.39865L17.0781 0.0549011H19.8906Z"
              fill="white"/>
        <path d="M7.07812 12.7112L7.50781 14.0393L1.53125 20.0549H-0.109375V19.9377L7.07812 12.7112ZM11.9219 12.2424L14.0312 12.5549L19.8906 18.2971V20.0549L11.9219 12.2424ZM19.8906 0.0549011L12.3906 7.71115L12.2344 5.9924L18.0938 0.0549011H19.8906ZM-0.109375 0.0939636L7.42969 7.47678L5.125 7.16428L-0.109375 1.96896V0.0939636Z"
              fill="#C8102E"/>
        <path d="M6.76562 0.0549011V20.0549H13.0156V0.0549011H6.76562ZM-0.109375 6.9299V13.1799H19.8906V6.9299H-0.109375Z"
              fill="white"/>
        <path d="M-0.109375 8.1799V11.9299H19.8906V8.1799H-0.109375ZM8.01562 0.0549011V20.0549H11.7656V0.0549011H8.01562Z"
              fill="#C8102E"/>
    </g>
    <defs>
        <clipPath id="clip0_2545_114787">
            <rect width="20" height="20" fill="white" transform="translate(-0.109375 0.0549011)"/>
        </clipPath>
    </defs>
</svg>
