<svg xmlns="http://www.w3.org/2000/svg" width="20" height="20" viewBox="0 0 20 20" fill="none">
    <g clip-path="url(#clip0_2545_114541)">
        <path d="M0 13.3321H20V20.0001H0V13.3321Z" fill="#1EB53A"/>
        <path d="M0 0H20V6.66797H0V0Z" fill="#0099B5"/>
        <path d="M0 6.3985H20V13.6016H0V6.3985Z" fill="#CE1126"/>
        <path d="M0 6.79688H20V13.2031H0V6.79688Z" fill="white"/>
        <path d="M5.60156 5.59767C6.92618 5.59767 8 4.52385 8 3.19923C8 1.87461 6.92618 0.800791 5.60156 0.800791C4.27694 0.800791 3.20312 1.87461 3.20312 3.19923C3.20312 4.52385 4.27694 5.59767 5.60156 5.59767Z"
              fill="white"/>
        <path d="M6.39844 5.59767C7.72306 5.59767 8.79687 4.52385 8.79687 3.19923C8.79687 1.87461 7.72306 0.800791 6.39844 0.800791C5.07382 0.800791 4 1.87461 4 3.19923C4 4.52385 5.07382 5.59767 6.39844 5.59767Z"
              fill="#0099B5"/>
        <path d="M10.8708 4.63722L10.7188 5.09322L10.9508 5.17322" fill="white"/>
        <path d="M10.8714 4.63722L11.0234 5.09322L10.7914 5.17322" fill="white"/>
        <path d="M11.3204 4.96891L10.8398 4.96526L10.8354 5.21063" fill="white"/>
        <path d="M11.3202 4.96892L10.9335 5.25439L10.7857 5.05847" fill="white"/>
        <path d="M10.4063 4.96892L10.7931 5.25439L10.9408 5.05846" fill="white"/>
        <path d="M10.4062 4.96894L10.8868 4.96529L10.8912 5.21066" fill="white"/>
        <path d="M11.1427 5.50559L10.9976 5.04733L10.7629 5.11898" fill="white"/>
        <path d="M11.1464 5.50551L10.7554 5.22594L10.8961 5.02485" fill="white"/>
        <path d="M10.5802 5.50551L10.9712 5.22594L10.8305 5.02485" fill="white"/>
        <path d="M10.5839 5.50558L10.729 5.04733L10.9637 5.11897" fill="white"/>
        <path d="M10.8708 2.71719L10.7188 3.17319L10.9508 3.25319" fill="white"/>
        <path d="M10.8714 2.71719L11.0234 3.17319L10.7914 3.25319" fill="white"/>
        <path d="M11.3204 3.04887L10.8398 3.04522L10.8354 3.29059" fill="white"/>
        <path d="M11.3202 3.04884L10.9335 3.33431L10.7857 3.13839" fill="white"/>
        <path d="M10.4063 3.04888L10.7931 3.33436L10.9408 3.13843" fill="white"/>
        <path d="M10.4062 3.04888L10.8868 3.04523L10.8912 3.2906" fill="white"/>
        <path d="M11.1427 3.58556L10.9976 3.1273L10.7629 3.19895" fill="white"/>
        <path d="M11.1464 3.58553L10.7554 3.30596L10.8961 3.10487" fill="white"/>
        <path d="M10.5802 3.58553L10.9712 3.30596L10.8305 3.10487" fill="white"/>
        <path d="M10.5839 3.58555L10.729 3.1273L10.9637 3.19894" fill="white"/>
        <path d="M10.8708 0.797241L10.7188 1.25324L10.9508 1.33324" fill="white"/>
        <path d="M10.8714 0.797243L11.0234 1.25324L10.7914 1.33324" fill="white"/>
        <path d="M11.3204 1.12886L10.8398 1.12521L10.8354 1.37058" fill="white"/>
        <path d="M11.3202 1.12894L10.9335 1.41441L10.7857 1.21849" fill="white"/>
        <path d="M10.4063 1.12893L10.7931 1.41441L10.9408 1.21848" fill="white"/>
        <path d="M10.4062 1.12885L10.8868 1.1252L10.8912 1.37056" fill="white"/>
        <path d="M11.1427 1.66557L10.9976 1.20732L10.7629 1.27896" fill="white"/>
        <path d="M11.1464 1.66553L10.7554 1.38596L10.8961 1.18487" fill="white"/>
        <path d="M10.5802 1.66553L10.9712 1.38596L10.8305 1.18487" fill="white"/>
        <path d="M10.5839 1.66556L10.729 1.20731L10.9637 1.27895" fill="white"/>
        <path d="M12.7926 4.63722L12.6406 5.09322L12.8726 5.17322" fill="white"/>
        <path d="M12.7933 4.63722L12.9453 5.09322L12.7133 5.17322" fill="white"/>
        <path d="M13.2501 4.96891L12.7694 4.96526L12.7651 5.21063" fill="white"/>
        <path d="M13.2499 4.96892L12.8632 5.25439L12.7154 5.05847" fill="white"/>
        <path d="M12.336 4.96892L12.7227 5.25439L12.8705 5.05846" fill="white"/>
        <path d="M12.3358 4.96894L12.8165 4.96529L12.8209 5.21066" fill="white"/>
        <path d="M13.0802 5.50559L12.9351 5.04733L12.7004 5.11898" fill="white"/>
        <path d="M13.0839 5.50551L12.6929 5.22594L12.8336 5.02485" fill="white"/>
        <path d="M12.5098 5.50551L12.9008 5.22594L12.7602 5.02485" fill="white"/>
        <path d="M12.5136 5.50558L12.6587 5.04733L12.8934 5.11897" fill="white"/>
        <path d="M12.7926 2.71719L12.6406 3.17319L12.8726 3.25319" fill="white"/>
        <path d="M12.7933 2.71719L12.9453 3.17319L12.7133 3.25319" fill="white"/>
        <path d="M13.2501 3.04887L12.7694 3.04522L12.7651 3.29059" fill="white"/>
        <path d="M13.2499 3.04884L12.8632 3.33431L12.7154 3.13839" fill="white"/>
        <path d="M12.336 3.04888L12.7227 3.33436L12.8705 3.13843" fill="white"/>
        <path d="M12.3437 3.04888L12.8243 3.04523L12.8287 3.2906" fill="white"/>
        <path d="M13.0802 3.58556L12.9351 3.1273L12.7004 3.19895" fill="white"/>
        <path d="M13.0839 3.58553L12.6929 3.30596L12.8336 3.10487" fill="white"/>
        <path d="M12.5098 3.58553L12.9008 3.30596L12.7602 3.10487" fill="white"/>
        <path d="M12.5136 3.58556L12.6587 3.1273L12.8934 3.19895" fill="white"/>
        <path d="M12.7926 0.797241L12.6406 1.25324L12.8726 1.33324" fill="white"/>
        <path d="M12.7933 0.797243L12.9453 1.25324L12.7133 1.33324" fill="white"/>
        <path d="M13.2501 1.12886L12.7694 1.12521L12.7651 1.37058" fill="white"/>
        <path d="M13.2499 1.12894L12.8632 1.41441L12.7154 1.21849" fill="white"/>
        <path d="M12.336 1.12893L12.7227 1.41441L12.8705 1.21848" fill="white"/>
        <path d="M12.3358 1.12885L12.8165 1.1252L12.8209 1.37056" fill="white"/>
        <path d="M13.0802 1.66557L12.9351 1.20732L12.7004 1.27896" fill="white"/>
        <path d="M13.0839 1.66553L12.6929 1.38596L12.8336 1.18487" fill="white"/>
        <path d="M12.5177 1.66553L12.9087 1.38596L12.768 1.18487" fill="white"/>
        <path d="M12.5214 1.66556L12.6665 1.20731L12.9012 1.27895" fill="white"/>
        <path d="M14.7067 4.63722L14.5547 5.09322L14.7867 5.17322" fill="white"/>
        <path d="M14.7074 4.63722L14.8594 5.09322L14.6274 5.17322" fill="white"/>
        <path d="M15.172 4.96891L14.6913 4.96526L14.6869 5.21063" fill="white"/>
        <path d="M15.1718 4.96888L14.7851 5.25436L14.6373 5.05843" fill="white"/>
        <path d="M14.2501 4.96892L14.6368 5.25439L14.7846 5.05846" fill="white"/>
        <path d="M14.2499 4.96894L14.7306 4.96529L14.7349 5.21066" fill="white"/>
        <path d="M14.9942 5.50559L14.8492 5.04733L14.6144 5.11898" fill="white"/>
        <path d="M14.998 5.50555L14.607 5.22598L14.7476 5.02489" fill="white"/>
        <path d="M14.4239 5.50551L14.8149 5.22594L14.6742 5.02485" fill="white"/>
        <path d="M14.4277 5.50558L14.5727 5.04733L14.8074 5.11897" fill="white"/>
        <path d="M14.7067 2.71719L14.5547 3.17319L14.7867 3.25319" fill="white"/>
        <path d="M14.7074 2.71719L14.8594 3.17319L14.6274 3.25319" fill="white"/>
        <path d="M15.172 3.04888L14.6913 3.04523L14.6869 3.29059" fill="white"/>
        <path d="M15.1718 3.04884L14.7851 3.33431L14.6373 3.13839" fill="white"/>
        <path d="M14.2501 3.04888L14.6368 3.33436L14.7846 3.13843" fill="white"/>
        <path d="M14.2577 3.04888L14.7384 3.04523L14.7428 3.2906" fill="white"/>
        <path d="M14.9942 3.58556L14.8492 3.1273L14.6144 3.19895" fill="white"/>
        <path d="M14.998 3.58553L14.607 3.30596L14.7476 3.10487" fill="white"/>
        <path d="M14.4239 3.58553L14.8149 3.30596L14.6742 3.10487" fill="white"/>
        <path d="M14.4277 3.58559L14.5727 3.12734L14.8074 3.19898" fill="white"/>
        <path d="M14.7067 0.797241L14.5547 1.25324L14.7867 1.33324" fill="white"/>
        <path d="M14.7074 0.797243L14.8594 1.25324L14.6274 1.33324" fill="white"/>
        <path d="M15.172 1.12886L14.6913 1.12521L14.6869 1.37058" fill="white"/>
        <path d="M15.1718 1.12894L14.7851 1.41441L14.6373 1.21849" fill="white"/>
        <path d="M14.2501 1.12893L14.6368 1.41441L14.7846 1.21848" fill="white"/>
        <path d="M14.2499 1.12885L14.7306 1.1252L14.7349 1.37056" fill="white"/>
        <path d="M14.9942 1.66557L14.8492 1.20732L14.6144 1.27896" fill="white"/>
        <path d="M14.998 1.66553L14.607 1.38596L14.7476 1.18487" fill="white"/>
        <path d="M14.4317 1.66553L14.8227 1.38596L14.682 1.18487" fill="white"/>
        <path d="M14.4355 1.66556L14.5805 1.20731L14.8152 1.27895" fill="white"/>
        <path d="M7.04263 4.63721L6.89062 5.09321L7.12263 5.17321" fill="white"/>
        <path d="M7.04331 4.63722L7.19531 5.09322L6.96331 5.17322" fill="white"/>
        <path d="M7.5001 4.96891L7.01944 4.96526L7.01505 5.21063" fill="white"/>
        <path d="M7.4999 4.96892L7.11319 5.25439L6.96542 5.05846" fill="white"/>
        <path d="M6.58603 4.96891L6.97274 5.25438L7.12052 5.05846" fill="white"/>
        <path d="M6.58584 4.96893L7.06649 4.96529L7.07089 5.21065" fill="white"/>
        <path d="M7.32234 5.50558L7.17728 5.04733L6.94257 5.11897" fill="white"/>
        <path d="M7.3261 5.5055L6.93509 5.22593L7.07576 5.02485" fill="white"/>
        <path d="M6.75984 5.5055L7.15084 5.22593L7.01017 5.02485" fill="white"/>
        <path d="M6.7636 5.50558L6.90866 5.04733L7.14337 5.11897" fill="white"/>
        <path d="M8.95669 4.63721L8.80469 5.09321L9.03669 5.17321" fill="white"/>
        <path d="M8.95737 4.63722L9.10938 5.09322L8.87737 5.17322" fill="white"/>
        <path d="M9.42197 4.96891L8.94132 4.96526L8.93693 5.21062" fill="white"/>
        <path d="M9.42178 4.96888L9.03507 5.25435L8.88729 5.05843" fill="white"/>
        <path d="M8.51572 4.96891L8.90243 5.25438L9.05021 5.05846" fill="white"/>
        <path d="M8.52334 4.96893L9.00399 4.96529L9.00839 5.21065" fill="white"/>
        <path d="M9.24422 5.50558L9.09916 5.04733L8.86444 5.11897" fill="white"/>
        <path d="M9.24797 5.5055L8.85697 5.22593L8.99764 5.02485" fill="white"/>
        <path d="M8.68172 5.5055L9.07272 5.22593L8.93205 5.02485" fill="white"/>
        <path d="M8.68547 5.50558L8.83053 5.04732L9.06524 5.11897" fill="white"/>
        <path d="M8.95669 2.71719L8.80469 3.17319L9.03669 3.25319" fill="white"/>
        <path d="M8.95737 2.71718L9.10938 3.17318L8.87737 3.25318" fill="white"/>
        <path d="M9.42197 3.04887L8.94132 3.04522L8.93693 3.29059" fill="white"/>
        <path d="M9.42178 3.04883L9.03507 3.33431L8.88729 3.13838" fill="white"/>
        <path d="M8.51572 3.04888L8.90243 3.33435L9.05021 3.13843" fill="white"/>
        <path d="M8.51553 3.04888L8.99618 3.04523L9.00057 3.2906" fill="white"/>
        <path d="M9.24422 3.58555L9.09916 3.1273L8.86444 3.19894" fill="white"/>
        <path d="M9.24797 3.58552L8.85697 3.30596L8.99764 3.10487" fill="white"/>
        <path d="M8.68172 3.58552L9.07272 3.30595L8.93205 3.10487" fill="white"/>
        <path d="M8.68547 3.58555L8.83053 3.12729L9.06524 3.19894" fill="white"/>
    </g>
    <defs>
        <clipPath id="clip0_2545_114541">
            <rect width="20" height="20" fill="white"/>
        </clipPath>
    </defs>
</svg>
