<svg width="223" height="177" viewBox="0 0 223 177" fill="none" xmlns="http://www.w3.org/2000/svg">
<path d="M51.9677 129.519C43.4548 125.702 37.9673 116.723 36.7302 107.471C35.493 98.2194 38.0245 88.8 42.1197 80.4177C48.1012 68.1689 59.0966 56.8101 72.7418 56.4344C78.5518 56.2752 84.2925 58.137 90.1025 57.8594C99.3708 57.4144 107.431 51.6778 114.89 46.1658C122.35 40.6538 130.405 34.9132 139.678 34.4682C148.95 34.0231 159.153 41.5317 157.802 50.7101C157.357 53.7397 155.74 56.7529 156.532 59.7171C157.977 65.1066 165.723 65.4619 170.778 63.0978C175.832 60.7338 180.695 56.757 186.236 57.4307C191.478 58.0717 195.398 62.9427 196.627 68.0749C197.856 73.2072 196.974 78.5885 196.088 83.7902L190.906 114.11C189.682 121.243 188.22 128.874 183.063 133.957C177.486 139.453 169.038 140.556 161.228 141.127C127 143.634 92.5905 141.567 58.9088 134.982" fill="#F4F6F9"/>
<path d="M211.089 135.456C211.269 136.018 211.353 136.606 211.338 137.195C211.302 138.162 210.947 139.089 210.329 139.833C210.342 140.538 210.121 141.227 209.701 141.793C209.424 142.129 209.069 142.392 208.666 142.557C208.264 142.723 207.827 142.788 207.394 142.744C207.757 144.01 207.635 145.463 206.789 146.468C205.944 147.472 203.956 147.529 202.927 146.631L204.707 143.165C203.739 142.292 202.912 141.274 202.257 140.147C201.968 139.754 201.846 139.262 201.918 138.78C202.102 138.139 202.915 137.857 203.552 138.028C203.625 138.048 203.697 138.073 203.768 138.102C203.527 137.894 203.278 137.693 203.029 137.502C202.253 136.897 201.461 136.22 201.155 135.285C200.849 134.35 201.269 133.108 202.229 132.896C202.78 132.83 203.337 132.945 203.817 133.223C204.176 133.39 204.527 133.566 204.879 133.749C204.425 132.757 203.976 131.769 203.523 130.781C203.408 130.601 203.334 130.399 203.304 130.187C203.275 129.976 203.291 129.761 203.352 129.556C203.459 129.375 203.62 129.231 203.812 129.146C204.005 129.06 204.219 129.036 204.425 129.078C204.835 129.174 205.221 129.355 205.556 129.609C206.953 130.524 208.361 131.451 209.48 132.688C209.892 133.139 210.251 133.637 210.55 134.17C210.608 132.943 210.291 131.728 209.639 130.687C208.869 129.506 207.987 128.401 207.006 127.388C206.414 126.719 205.83 125.698 206.406 125.012C206.863 124.461 207.737 124.583 208.398 124.861C209.378 125.268 210.249 125.898 210.943 126.7C211.637 127.503 212.135 128.456 212.396 129.485C212.657 130.513 212.675 131.588 212.448 132.625C212.221 133.661 211.756 134.631 211.089 135.456ZM94.8798 184.835C94.4603 184.612 94.0602 184.354 93.6835 184.064C93.8668 184.668 93.9455 185.299 93.9162 185.929C93.8185 187.145 93.5618 188.342 93.1527 189.49C92.7614 190.94 92.2138 192.343 91.5195 193.675C90.8159 195.016 89.6932 196.09 88.3226 196.733C87.163 197.223 85.8728 197.272 84.6193 197.28C81.1013 197.308 77.5859 197.077 74.1016 196.59L75.0203 195.002C72.9502 197.897 70.1861 200.31 67.0749 201.514C61.1791 203.768 56.8675 200.179 52.1762 196.447C48.7873 193.748 45.5169 190.731 41.487 189.147C35.9301 186.954 29.0177 187.408 24.951 183.051C20.1617 177.923 22.4523 169.663 25.2573 163.232C33.4779 144.401 43.7866 126.551 55.9897 110.019L49.8897 83.7005C45.1412 83.2106 35.4973 82.1327 35.4973 82.1327C39.9232 74.6486 44.684 66.0458 49.657 57.5615C53.4051 51.1635 61.571 46.4272 68.6672 50.6204C69.1957 50.9325 69.6958 51.2905 70.1616 51.6902C72.5624 53.7561 74.0077 56.7449 74.8243 59.803C75.6082 62.7223 75.8777 65.7437 76.2656 68.7406C77.522 68.2761 78.8909 68.2091 80.1867 68.5487C81.4824 68.8882 82.6425 69.6179 83.5097 70.6388C84.3769 71.6598 84.9093 72.9226 85.0348 74.2563C85.1602 75.5899 84.8726 76.9299 84.211 78.0946C83.3866 79.5252 82.0569 80.5956 80.4833 81.0956C83.8966 86.5872 87.1181 91.4336 90.5845 96.4597L90.7152 96.2066C102.797 98.1419 114.78 102.27 125.134 108.79C132.239 138.526 120.79 163.518 94.8798 184.835Z" fill="white"/>
<path d="M211.938 111.133L150.608 78.9201C146.423 76.7223 141.25 78.3327 139.052 82.5171L91.3961 173.249C89.1984 177.434 90.8088 182.607 94.9932 184.805L156.324 217.018C160.508 219.216 165.682 217.605 167.879 213.421L215.535 122.689C217.733 118.504 216.122 113.331 211.938 111.133Z" fill="white"/>
<path d="M129.429 124.991C140.027 124.991 148.619 116.4 148.619 105.801C148.619 95.203 140.027 86.6115 129.429 86.6115C118.831 86.6115 110.239 95.203 110.239 105.801C110.239 116.4 118.831 124.991 129.429 124.991Z" fill="#FEAABC"/>
<path d="M167.486 166.429L174.901 154.487C175.685 153.225 176.489 151.914 176.718 150.444C176.947 148.975 176.457 147.284 175.166 146.541C173.803 145.757 172.043 146.259 170.716 147.109C169.389 147.958 168.266 149.126 166.849 149.803C165.433 150.481 163.497 150.522 162.501 149.301C161.419 147.978 161.684 145.541 160.051 144.969C159.145 144.651 158.185 145.177 157.254 145.418C156.323 145.659 155.005 145.316 155.001 144.353C151.796 147.986 150.011 152.368 147.382 156.43" fill="#9ED5F0"/>
<path d="M127.175 106.157C127.518 100.04 127.862 93.9255 128.208 87.8119C128.253 87.028 129.478 87.0239 129.433 87.8119C129.101 93.6914 128.769 99.5722 128.437 105.454H128.461L128.502 105.483C134.837 104.375 141.226 103.606 147.643 103.18C148.431 103.131 148.427 104.356 147.643 104.405C141.69 104.801 135.761 105.496 129.878 106.487L143.625 116.507C144.258 116.968 143.646 118.03 143.009 117.564L128.053 106.663C127.964 106.716 127.863 106.745 127.76 106.745C127.656 106.746 127.555 106.72 127.465 106.668C127.376 106.616 127.302 106.542 127.251 106.452C127.2 106.362 127.174 106.26 127.175 106.157ZM203.853 142.303L166.817 212.848C165.909 214.568 164.357 215.858 162.501 216.436C160.644 217.013 158.634 216.832 156.911 215.931L95.7814 183.827C95.1281 183.908 94.4626 183.953 93.793 183.978C93.7953 183.995 93.7953 184.013 93.793 184.031C94.1789 184.323 94.5886 184.583 95.0179 184.807L156.348 217.013C157.343 217.536 158.431 217.859 159.55 217.961C160.669 218.064 161.798 217.944 162.871 217.61C163.944 217.276 164.941 216.734 165.805 216.014C166.668 215.294 167.381 214.411 167.903 213.416L204.368 143.985L204.706 143.169C204.408 142.9 204.123 142.617 203.853 142.319V142.303ZM211.95 111.109L150.62 78.9152C149.625 78.3917 148.537 78.0694 147.417 77.9669C146.298 77.8644 145.169 77.9836 144.096 78.3177C143.023 78.6518 142.026 79.1942 141.163 79.914C140.299 80.6338 139.587 81.5167 139.065 82.5123L136.252 87.865C136.635 88.012 137.015 88.1712 137.387 88.3427L140.147 83.0839C140.77 81.8994 141.705 80.9075 142.85 80.2153C143.996 79.5231 145.308 79.1569 146.647 79.1561C147.834 79.1548 149.003 79.445 150.052 80.0013L211.382 112.208C213.102 113.115 214.392 114.667 214.969 116.523C215.547 118.38 215.366 120.39 214.465 122.113L211.578 127.608C211.849 128.042 212.07 128.505 212.235 128.989L215.551 122.68C216.601 120.67 216.812 118.325 216.137 116.159C215.462 113.993 213.956 112.183 211.95 111.126V111.109ZM103.947 163.167C111.297 167.704 118.753 172.05 126.318 176.204C128.455 177.377 130.599 178.534 132.753 179.674C133.451 180.042 134.071 178.984 133.373 178.617C125.752 174.575 118.232 170.339 110.815 165.911C108.719 164.656 106.635 163.389 104.564 162.109C103.894 161.685 103.298 162.755 103.947 163.167ZM107.214 158.598L116.274 163.522C116.964 163.898 117.584 162.84 116.89 162.465L107.83 157.541C107.124 157.161 106.507 158.218 107.201 158.598H107.214ZM112.003 152.955C117.428 155.865 122.971 158.541 128.633 160.983C129.351 161.289 129.976 160.235 129.253 159.921C123.586 157.488 118.038 154.809 112.607 151.886C111.913 151.522 111.293 152.58 111.991 152.955H112.003ZM115.139 148.362L118.789 150.608C118.929 150.689 119.096 150.712 119.254 150.671C119.411 150.631 119.546 150.53 119.63 150.391C119.708 150.25 119.728 150.083 119.687 149.927C119.646 149.771 119.547 149.636 119.409 149.55L115.759 147.305C115.618 147.224 115.451 147.202 115.294 147.243C115.136 147.284 115.002 147.386 114.918 147.525C114.841 147.666 114.82 147.832 114.861 147.988C114.902 148.143 115.002 148.277 115.139 148.362ZM144.536 153.556C143.846 153.176 143.225 154.233 143.919 154.613L147.271 156.446C146.145 158.387 145.031 160.335 143.932 162.289C143.548 162.979 144.605 163.6 144.989 162.91C146.092 160.942 147.21 158.983 148.345 157.034L167.988 167.809L173.705 170.933L168.805 171.251C168.021 171.3 168.017 172.525 168.805 172.476L177.812 171.892C178.286 171.86 178.694 171.206 178.245 170.847C176.461 169.408 174.993 167.616 173.933 165.584C173.566 164.886 172.508 165.506 172.876 166.205C173.763 167.894 174.92 169.428 176.301 170.745L175.664 170.786C175.644 170.712 175.608 170.643 175.56 170.583C175.511 170.523 175.451 170.474 175.383 170.439L151.293 157.263L148.945 155.969C152.032 150.699 155.232 145.497 158.545 140.364C159.906 138.273 161.276 136.196 162.656 134.133C162.703 134.066 162.735 133.989 162.748 133.909C162.761 133.828 162.756 133.745 162.733 133.666C162.71 133.588 162.669 133.516 162.614 133.455C162.559 133.394 162.491 133.347 162.415 133.316L163.64 132.116C162.902 134.86 162.161 137.605 161.415 140.351C161.377 140.506 161.401 140.669 161.481 140.807C161.562 140.944 161.693 141.045 161.846 141.087C162 141.13 162.164 141.111 162.304 141.035C162.443 140.958 162.548 140.83 162.595 140.678C163.534 137.21 164.472 133.744 165.408 130.279C165.441 130.149 165.431 130.012 165.379 129.888C165.327 129.765 165.236 129.662 165.12 129.594C165.005 129.527 164.87 129.499 164.737 129.515C164.604 129.531 164.48 129.59 164.383 129.683L156.581 137.293C156.013 137.844 156.879 138.71 157.446 138.159L160.5 135.186C156.099 141.795 151.888 148.53 147.868 155.389L144.536 153.556ZM209.569 115.176L181.805 101.506L154.139 87.8814C151.914 86.7871 149.411 85.2928 146.831 85.8399C144.809 86.2482 143.001 88.2407 143.544 90.376C143.736 91.1396 144.92 90.817 144.724 90.0535C144.238 88.1386 146.479 86.9055 148.088 86.9627C149.192 87.0533 150.268 87.3569 151.256 87.8569C152.326 88.3427 153.376 88.8858 154.433 89.4043L167.674 95.937L194.062 108.933L208.949 116.262C209.63 116.585 210.271 115.547 209.545 115.18L209.569 115.176ZM190.877 121.672C190.516 121.252 190.059 120.927 189.543 120.724C189.028 120.521 188.472 120.447 187.921 120.508C187.404 120.591 186.923 120.827 186.541 121.186C186.198 121.488 185.823 122.003 185.345 121.643C184.528 121.019 184.626 119.757 184.492 118.855C184.345 117.883 183.961 116.862 182.985 116.474C182.009 116.086 181.013 116.576 180.127 116.985C179.773 117.197 179.368 117.311 178.955 117.315C178.514 117.246 178.355 116.838 178.298 116.446C178.147 115.433 178.359 114.363 177.783 113.449C177.443 112.965 176.983 112.578 176.447 112.326C175.911 112.075 175.319 111.968 174.729 112.016C173.223 112.101 171.953 113 170.789 113.878C170.165 114.343 170.789 115.409 171.406 114.935C172.345 114.229 173.39 113.396 174.595 113.249C175.468 113.147 176.567 113.486 176.881 114.388C177.195 115.29 176.91 116.286 177.22 117.193C177.366 117.635 177.665 118.011 178.063 118.252C178.461 118.493 178.933 118.584 179.392 118.508C180.311 118.377 181.054 117.74 181.952 117.577C182.948 117.393 183.214 118.393 183.324 119.181C183.463 120.169 183.463 121.125 184.047 121.986C184.631 122.848 185.545 123.289 186.496 122.803C187.052 122.521 187.387 121.88 188.003 121.729C188.265 121.682 188.534 121.688 188.793 121.747C189.053 121.806 189.298 121.916 189.514 122.072C190.649 122.815 190.939 124.363 191.208 125.592C191.38 126.363 192.56 126.037 192.388 125.265C192.086 124.015 191.759 122.693 190.877 121.672ZM181.078 127.931C181.171 128.225 181.355 128.48 181.605 128.661C181.854 128.841 182.155 128.936 182.462 128.931C183.214 128.931 183.773 128.372 184.439 128.115C185.578 127.682 186.835 128.205 187.885 128.65C189.277 129.242 190.657 129.919 192.196 129.944C192.359 129.944 192.514 129.879 192.629 129.765C192.744 129.65 192.809 129.494 192.809 129.331C192.809 129.169 192.744 129.013 192.629 128.898C192.514 128.784 192.359 128.719 192.196 128.719C189.473 128.678 187.101 126.073 184.3 126.874C183.979 126.974 183.671 127.111 183.381 127.282C183.177 127.396 182.614 127.837 182.352 127.69C181.993 127.494 182.507 126.441 182.593 126.175C183.03 124.832 182.691 123.317 181.336 122.627C180.982 122.466 180.599 122.382 180.211 122.382C179.823 122.381 179.439 122.463 179.085 122.623C178.731 122.783 178.416 123.016 178.16 123.308C177.903 123.599 177.712 123.942 177.6 124.314C177.367 125.065 178.547 125.387 178.784 124.636C178.866 124.354 179.034 124.104 179.263 123.921C179.493 123.738 179.773 123.629 180.066 123.611C180.359 123.593 180.651 123.665 180.902 123.819C181.152 123.972 181.349 124.199 181.466 124.469C181.968 125.624 180.735 126.759 181.078 127.947V127.931ZM118.536 121.598L95.9488 164.649C96.4183 164.62 96.8878 164.604 97.3574 164.596L119.585 122.268C119.222 122.056 118.875 121.831 118.536 121.598Z" fill="#3F4254"/>
<path d="M211.399 126.33C210.399 125.146 208.541 123.73 206.908 124.064C206.5 124.138 206.135 124.365 205.888 124.698C205.641 125.03 205.53 125.445 205.577 125.857C205.671 126.812 206.336 127.555 206.945 128.241C207.896 129.303 208.986 130.524 209.558 131.891C208.366 130.739 207.036 129.739 205.597 128.915C204.87 128.474 203.939 128.229 203.209 128.796C202.359 129.45 202.706 130.458 203.074 131.271C203.258 131.679 203.445 132.087 203.629 132.496C203.297 132.335 202.933 132.256 202.564 132.264C202.196 132.272 201.835 132.366 201.51 132.541C201.159 132.783 200.877 133.112 200.689 133.495C200.502 133.878 200.416 134.303 200.44 134.729C200.485 136.04 201.302 136.848 202.216 137.587C202.011 137.681 201.828 137.817 201.677 137.984C201.526 138.152 201.411 138.349 201.339 138.563C201.028 139.535 201.718 140.515 202.249 141.274C202.838 142.123 203.523 142.901 204.291 143.593C204.87 144.12 205.74 143.258 205.156 142.727C204.156 141.852 203.319 140.807 202.682 139.641C202.445 139.192 202.404 138.714 202.992 138.604C203.159 138.575 203.331 138.591 203.49 138.649C203.845 138.795 204.163 139.018 204.421 139.302C204.683 139.563 204.96 139.865 205.238 140.188C205.566 140.573 205.865 140.983 206.132 141.413C206.503 141.985 206.778 142.614 206.949 143.275C207.07 143.728 207.089 144.202 207.004 144.663C206.92 145.124 206.733 145.561 206.459 145.941C205.858 146.757 204.47 147.206 203.601 146.5C202.996 146.002 202.127 146.864 202.735 147.366C203.322 147.82 204.046 148.062 204.788 148.05C205.53 148.038 206.246 147.774 206.818 147.3C207.998 146.365 208.357 144.769 208.157 143.324C208.916 143.217 209.611 142.842 210.117 142.266C210.629 141.637 210.916 140.856 210.934 140.045C211.414 139.425 211.738 138.698 211.877 137.926C212.008 137.14 211.968 136.335 211.758 135.566C212.734 134.206 213.229 132.559 213.164 130.887C213.099 129.214 212.478 127.611 211.399 126.33ZM208.231 142.086C208.109 142.121 207.985 142.145 207.859 142.156C207.267 140.73 206.371 139.451 205.234 138.408C204.882 138.053 204.466 137.768 204.009 137.567C203.338 137.077 202.72 136.517 202.167 135.897C201.947 135.662 201.793 135.372 201.721 135.058C201.649 134.744 201.662 134.416 201.759 134.108C202.074 133.292 202.841 133.476 203.498 133.774C203.797 133.904 204.095 134.047 204.397 134.182C205.012 134.484 205.612 134.816 206.193 135.178C206.835 135.578 207.441 136.031 208.006 136.534C208.88 137.322 209.639 138.408 209.721 139.596C209.743 139.916 209.714 140.237 209.635 140.547C209.559 140.854 209.42 141.142 209.227 141.392C208.979 141.726 208.629 141.969 208.231 142.086ZM209.864 136.779C208.729 135.276 207.006 134.194 205.336 133.324C205.254 133.153 205.177 132.981 205.099 132.806C204.727 131.989 204.282 131.173 203.984 130.356C203.65 129.45 204.568 129.756 205.046 130.054C206.749 131.12 208.798 132.483 209.917 134.296C210.12 134.626 210.289 134.974 210.423 135.337L210.403 135.362H210.435C210.572 135.74 210.662 136.134 210.705 136.534C210.726 136.708 210.737 136.884 210.738 137.06C210.737 137.408 210.689 137.754 210.595 138.089C210.415 137.608 210.169 137.155 209.864 136.742V136.779ZM211.146 134.051C211.157 132.591 210.713 131.164 209.876 129.968C209.36 129.22 208.792 128.507 208.178 127.837C207.696 127.29 206.953 126.657 206.81 125.898C206.663 125.081 207.72 125.297 208.178 125.489C208.867 125.777 209.496 126.193 210.031 126.714C211.123 127.736 211.81 129.118 211.967 130.605C212.076 131.855 211.815 133.109 211.215 134.21C211.183 134.1 211.158 134.059 211.134 134.014L211.146 134.051ZM78.6949 115.486C78.6015 116.141 78.7131 116.808 79.0143 117.396C79.3156 117.985 79.7916 118.466 80.3771 118.773C80.9173 119.082 81.5442 119.205 82.1612 119.122C82.7781 119.04 83.3507 118.756 83.7904 118.316C84.187 117.904 84.4731 117.399 84.6223 116.847C84.7715 116.295 84.7789 115.715 84.6438 115.159C84.4808 114.606 84.1542 114.115 83.7067 113.75C83.2592 113.386 82.7119 113.165 82.1368 113.118C81.5126 113.038 80.8786 113.145 80.3152 113.425C79.7518 113.706 79.2845 114.147 78.9725 114.694C78.8981 114.842 78.8806 115.012 78.9235 115.172C78.8113 115.231 78.7253 115.33 78.6826 115.449L78.6949 115.486ZM80.03 115.298C80.079 115.208 80.1321 115.123 80.1852 115.037V115.017C80.2178 114.98 80.2505 114.939 80.2872 114.902C80.3464 114.84 80.4105 114.782 80.4791 114.731L80.5445 114.686L80.7119 114.58L80.8466 114.51L80.9242 114.482C81.0057 114.45 81.0889 114.423 81.1732 114.4C81.259 114.375 81.3447 114.359 81.4305 114.343H81.508C81.576 114.339 81.6442 114.339 81.7122 114.343H82.0143H82.0674L82.2144 114.371C82.2962 114.387 82.3768 114.409 82.4553 114.437L82.5492 114.469L82.6758 114.531C82.7628 114.578 82.8473 114.63 82.9289 114.686H82.9493C82.982 114.723 83.0228 114.755 83.0596 114.792L83.1616 114.902V114.923C83.2256 115.021 83.2843 115.124 83.3372 115.229V115.253C83.3546 115.3 83.3696 115.348 83.3821 115.396C83.4055 115.48 83.4246 115.564 83.4393 115.649C83.4407 115.675 83.4407 115.701 83.4393 115.727C83.4393 115.776 83.4393 115.829 83.4393 115.878C83.4386 115.983 83.4318 116.088 83.4189 116.192C83.4189 116.217 83.3944 116.348 83.3862 116.372C83.3657 116.472 83.3371 116.571 83.3005 116.666C83.2921 116.698 83.2811 116.73 83.2678 116.76L83.227 116.85C83.1735 116.957 83.1135 117.06 83.0473 117.16L82.9861 117.246L82.9289 117.319C82.8623 117.394 82.7914 117.465 82.7166 117.532L82.639 117.593L82.5615 117.646L82.4308 117.723L82.3083 117.781C82.2232 117.814 82.1359 117.841 82.047 117.862L81.9368 117.883H81.8061C81.7218 117.889 81.6372 117.889 81.553 117.883H81.4509C81.3749 117.867 81.2999 117.846 81.2263 117.821L81.0875 117.777C81.0398 117.75 80.9907 117.725 80.9405 117.703C80.8256 117.643 80.7151 117.575 80.6098 117.499L80.5281 117.434C80.471 117.381 80.4097 117.327 80.3567 117.27C80.3036 117.213 80.275 117.185 80.2383 117.14L80.1852 117.078C80.176 117.061 80.1651 117.045 80.1525 117.029C80.0749 116.915 80.0096 116.797 79.9443 116.678C79.9361 116.667 79.9292 116.655 79.9239 116.642C79.9239 116.642 79.9239 116.642 79.9239 116.609C79.9239 116.576 79.8749 116.462 79.8545 116.388C79.834 116.315 79.8259 116.274 79.8136 116.221V116.184C79.8114 116.154 79.8114 116.124 79.8136 116.094C79.8136 116.037 79.8136 115.976 79.8136 115.919C79.8136 115.862 79.8422 115.666 79.8136 115.788C79.8282 115.68 79.8199 115.57 79.7891 115.466C79.8879 115.425 79.971 115.353 80.0259 115.261L80.03 115.298ZM108.198 118.405C107.851 120.23 106.047 121.308 104.303 121.239C104.44 121.661 104.491 122.107 104.454 122.55C104.291 124.652 102.376 126.526 100.216 125.555C99.3653 125.153 98.7046 124.435 98.3747 123.554C98.135 123.745 97.8732 123.907 97.5949 124.036C95.1859 125.134 92.4953 123.248 92.3973 120.663C92.3034 118.169 95.0512 116.339 97.3499 117.103C98.0971 117.348 97.7582 118.532 97.0233 118.283C96.5307 118.128 96.0038 118.118 95.506 118.256C95.0083 118.393 94.561 118.672 94.2183 119.059C93.88 119.44 93.6758 119.922 93.6367 120.431C93.5977 120.939 93.7259 121.447 94.0019 121.876C94.2595 122.349 94.6676 122.723 95.1616 122.938C95.6556 123.153 96.2073 123.198 96.7293 123.064C97.285 122.894 97.7725 122.553 98.1216 122.088C98.1377 121.398 98.3883 120.734 98.832 120.206C98.9184 120.122 99.0273 120.066 99.1454 120.043C99.2635 120.021 99.3856 120.033 99.4967 120.079C99.6077 120.125 99.7029 120.203 99.7706 120.302C99.8382 120.402 99.8753 120.519 99.8773 120.639C99.8551 121.28 99.6696 121.906 99.3383 122.456C99.4894 123.681 100.592 124.905 101.813 124.538C103.344 124.105 103.801 121.533 102.445 120.651C101.796 120.214 102.401 119.165 103.062 119.593C103.508 119.884 104.03 120.035 104.562 120.028C105.094 120.022 105.612 119.858 106.051 119.557C106.472 119.259 106.785 118.832 106.942 118.341C107.098 117.849 107.089 117.32 106.916 116.833C106.78 116.329 106.483 115.883 106.071 115.564C105.658 115.244 105.152 115.067 104.63 115.061C104.084 115.069 103.554 115.243 103.11 115.56C102.666 115.876 102.329 116.321 102.143 116.833C101.902 117.581 100.739 117.266 100.963 116.507C101.179 115.772 101.194 114.992 101.008 114.249C100.821 113.506 100.439 112.827 99.9017 112.281C98.1134 113.592 98.1706 116.833 100.188 117.932C100.882 118.307 100.261 119.365 99.5669 118.989C96.6436 117.393 96.6844 112.505 99.6649 110.987C99.7832 110.923 99.9183 110.898 100.052 110.915C100.185 110.932 100.309 110.989 100.408 111.081C101.482 111.979 102.17 113.254 102.331 114.645C102.812 114.279 103.371 114.03 103.964 113.918C106.565 113.428 108.696 115.849 108.198 118.405ZM101.943 176.383C102.113 176.269 102.265 176.132 102.396 175.975C102.67 175.684 102.844 175.315 102.896 174.919C102.947 174.523 102.872 174.121 102.682 173.77C102.274 173.052 101.4 172.672 100.706 172.296C99.2374 171.445 97.6608 170.796 96.0189 170.365C94.9228 170.115 93.7978 170.016 92.6749 170.071C93.3976 169.181 94.9001 168.936 95.9821 168.944C97.6725 168.965 100.094 169.499 101.412 168.091C102.731 166.682 101.478 164.722 99.9181 164.22C98.9375 163.977 97.9234 163.899 96.9171 163.987C95.7953 164.023 94.6762 164.119 93.565 164.277C91.7154 164.543 89.8291 165.02 88.4042 166.319C87.1384 167.458 86.4403 169.099 86.085 170.737C85.3174 174.268 86.2443 178.376 84.2355 181.573C83.2721 183.026 81.8117 184.079 80.128 184.533C79.9769 184.578 79.8259 184.61 79.6707 184.643C79.7973 183.236 79.7767 181.82 79.6095 180.417C79.2067 177.096 78.0716 173.905 76.2859 171.075C75.7065 170.17 75.061 169.309 74.3547 168.499C75.7388 166.592 76.584 164.175 77.3271 162.077C78.7644 158.017 79.7756 153.819 80.3444 149.55C80.6273 147.455 80.8045 145.347 80.8752 143.234C80.9038 142.446 79.6789 142.446 79.6503 143.234C79.472 148.519 78.6172 153.759 77.1066 158.827C76.4265 161.273 75.5344 163.656 74.4405 165.947C74.1592 166.513 73.84 167.058 73.485 167.58C73.3748 167.47 73.2727 167.356 73.1625 167.246C71.9376 166.074 70.5535 164.89 68.9734 164.261C67.4994 163.677 65.707 163.742 64.6577 165.057C64.2856 165.558 64.0293 166.136 63.9071 166.748C63.785 167.36 63.8001 167.991 63.9514 168.597C64.6863 171.884 68.5365 172.439 71.1986 171.222C72.0964 170.801 72.9024 170.207 73.5708 169.475C74.7876 170.913 75.8053 172.509 76.5963 174.219C78.3734 178.003 78.9504 182.241 78.2499 186.362C77.4382 190.564 75.361 194.418 72.2969 197.406C69.1775 200.469 64.87 202.563 60.5053 201.044C58.4108 200.313 56.553 198.978 54.8096 197.639C52.8947 196.165 51.0533 194.605 49.1588 193.111C47.3238 191.586 45.3276 190.266 43.2059 189.175C41.2912 188.295 39.2794 187.644 37.2121 187.236C33.3415 186.382 28.891 185.872 25.8982 182.998C22.7911 180.013 22.5298 175.55 23.3056 171.565C24.1834 167.025 26.2045 162.803 28.1234 158.631C32.4334 149.264 37.267 140.147 42.6016 131.324C45.2691 126.912 48.0591 122.578 50.9716 118.324C52.4252 116.195 53.91 114.088 55.4261 112.003C55.6752 111.664 56.1366 111.187 56.4346 110.721C61.7522 111.664 67.2043 111.538 72.4725 110.35C74.2756 109.909 76.0409 109.326 77.7517 108.606C77.7004 108.694 77.6749 108.795 77.6782 108.896C77.7455 110.622 77.4041 112.34 76.6818 113.91C75.9595 115.479 74.8768 116.856 73.5218 117.928C72.1628 118.966 70.5697 119.654 68.8825 119.932C67.1953 120.211 65.4656 120.07 63.8452 119.524C61.983 118.933 60.3201 117.839 59.0396 116.364C58.521 115.768 57.6595 116.637 58.1699 117.229C59.4275 118.647 60.9994 119.75 62.7599 120.45C64.5204 121.151 66.4204 121.429 68.3079 121.263C70.2062 121.073 72.0289 120.42 73.6162 119.361C75.2036 118.303 76.5072 116.871 77.4128 115.192C78.3086 113.576 78.8186 111.775 78.9031 109.929C81.3664 111.102 84.1483 111.428 86.8159 110.856C89.0084 110.349 91.0175 109.245 92.6199 107.665C94.2222 106.085 95.355 104.091 95.8923 101.906C96.076 101.139 94.896 100.812 94.7123 101.58C94.1019 104.045 92.6652 106.226 90.6416 107.761C88.9161 109.04 86.8516 109.781 84.7068 109.891C82.562 110.002 80.4323 109.477 78.5847 108.382C78.5377 108.354 78.4868 108.333 78.4336 108.32C81.3096 107.065 84.0051 105.431 86.4484 103.462C88.7272 101.6 90.7751 99.473 92.5483 97.125C98.7047 98.2151 104.742 99.8927 110.579 102.135C110.655 101.729 110.745 101.329 110.848 100.934C107.031 99.4618 103.124 98.2345 99.1505 97.2597C96.4557 96.5983 93.7338 96.0539 90.9846 95.6266C90.9411 95.6225 90.8974 95.6225 90.8539 95.6266C90.0047 94.4017 89.1677 93.1768 88.3307 91.9152C91.1773 90.5209 93.6981 88.5421 95.7284 86.1079C97.7588 83.6737 99.2532 80.8388 100.114 77.7881C100.228 77.3798 100.306 76.8409 99.9793 76.5633C99.4812 76.1101 98.734 76.6776 98.2645 77.1635C96.5727 78.9235 94.2747 79.9738 91.8367 80.1012C89.3988 80.2286 87.0038 79.4235 85.1378 77.8494C85.5938 76.7537 85.7834 75.5656 85.6912 74.3824C85.5989 73.1992 85.2274 72.0548 84.607 71.0431C85.1923 69.1021 85.6022 67.1126 85.8319 65.0983C86.4239 59.4516 84.0395 52.188 78.3438 47.6805C73.8933 44.161 64.674 43.1892 60.5503 47.0843C54.4585 44.753 48.3667 53.1189 48.9138 57.7858C47.5787 59.9007 46.4151 62.1504 45.182 64.3185C41.834 70.1571 38.535 76.0243 35.1135 81.8221C35.0622 81.9156 35.036 82.0207 35.0372 82.1273C35.0384 82.234 35.067 82.3385 35.1204 82.4308C35.1737 82.5231 35.2499 82.6001 35.3417 82.6544C35.4334 82.7087 35.5377 82.7384 35.6442 82.7408C40.2743 83.2593 44.9003 83.7738 49.5263 84.2555L51.4983 92.7562C52.5871 97.4816 53.6759 102.206 54.7647 106.928C54.9934 107.912 55.2179 108.892 55.4466 109.876C45.336 123.606 36.5238 138.247 29.1238 153.609C27.3314 157.328 25.5308 161.072 24.0201 164.914C22.7584 168.128 21.75 171.553 21.701 175.032C21.652 178.298 22.6319 181.54 25.0286 183.843C27.4253 186.146 30.7447 187.077 33.9335 187.771C37.4326 188.53 40.899 189.163 44.0388 190.984C47.5216 193.025 50.5062 195.81 53.6705 198.272C56.3897 200.391 59.3866 202.522 62.9388 202.763C66.4909 203.004 69.9125 201.179 72.5011 198.864C73.0965 198.325 73.6635 197.755 74.1996 197.157C76.3799 197.455 78.5724 197.668 80.769 197.774C82.8963 197.876 85.1378 198.035 87.2446 197.672C91.5439 196.929 93.022 192.527 94.0999 188.873C94.5771 187.485 94.7348 186.007 94.5612 184.549C95.8412 184.499 97.1086 184.278 98.3298 183.892C99.2526 183.577 101.351 182.765 100.592 181.385C100.186 180.79 99.5853 180.357 98.8933 180.16C99.816 180.291 100.808 180.532 101.706 180.266C102.118 180.172 102.49 179.952 102.771 179.638C103.053 179.324 103.23 178.93 103.278 178.51C103.331 177.608 102.694 176.857 101.943 176.383ZM69.6879 170.463C67.8342 170.945 65.6049 170.332 65.1395 168.266C64.7312 166.405 65.9561 164.726 67.9608 165.204C69.7736 165.637 71.4313 167.139 72.7379 168.532C71.9322 169.461 70.8674 170.13 69.6797 170.451L69.6879 170.463ZM53.842 97.419C52.8267 93.0475 51.8114 88.6733 50.7961 84.2964C50.7389 84.0432 50.6777 83.786 50.6205 83.5288C50.5829 83.4004 50.5051 83.2875 50.3985 83.2066C50.292 83.1258 50.1622 83.0813 50.0285 83.0796C45.5658 82.6183 41.1032 82.1242 36.6405 81.6261C39.3475 77.0205 41.981 72.3782 44.6267 67.7441C46.0966 65.1718 47.5719 62.6064 49.0527 60.0477C50.2775 57.9328 51.4738 55.8749 53.2295 54.1397C54.1955 53.1848 55.2698 52.3462 56.4306 51.6409C56.1819 53.3798 56.1326 55.1415 56.2836 56.8916C56.5163 58.9535 57.2798 61.0195 58.7823 62.4485C60.5707 64.1511 63.1388 64.7309 65.5968 64.9595C67.7281 65.1596 69.9574 65.131 71.9049 64.2368L72.4521 65.0248C72.9355 66.467 73.4971 67.8818 74.1342 69.2629C73.8798 69.4549 73.6397 69.6651 73.4156 69.8917C73.3523 69.9474 73.3011 70.0156 73.2653 70.092C73.2295 70.1684 73.2099 70.2513 73.2077 70.3357C73.2054 70.42 73.2207 70.5039 73.2524 70.582C73.2841 70.6602 73.3316 70.731 73.392 70.7899C73.4523 70.8489 73.5242 70.8947 73.6031 70.9246C73.682 70.9544 73.7662 70.9677 73.8505 70.9635C73.9347 70.9592 74.0172 70.9377 74.0927 70.9001C74.1683 70.8625 74.2352 70.8097 74.2894 70.7451C75.0435 69.9691 75.9938 69.412 77.0392 69.1331C78.0847 68.8543 79.1862 68.864 80.2266 69.1613C81.267 69.4586 82.2073 70.0323 82.9476 70.8215C83.6878 71.6107 84.2003 72.5857 84.4305 73.643C84.6608 74.7002 84.6001 75.8001 84.255 76.8256C83.9099 77.8511 83.2932 78.7639 82.4707 79.4669C81.6481 80.1698 80.6504 80.6367 79.5836 80.8177C78.5169 80.9988 77.421 80.8873 76.4125 80.4951C76.2609 80.4361 76.0921 80.4398 75.9432 80.5052C75.7942 80.5707 75.6774 80.6926 75.6184 80.8442C75.5594 80.9958 75.563 81.1647 75.6285 81.3136C75.6939 81.4625 75.8159 81.5793 75.9675 81.6384C76.7558 81.9406 77.5934 82.0943 78.4377 82.0916C79.0912 82.0895 79.7416 82.003 80.373 81.8343C83.5278 86.889 86.7996 91.8662 90.1884 96.7657C90.2392 96.8449 90.307 96.9117 90.3868 96.9614C90.4667 97.0111 90.5566 97.0424 90.6501 97.0529C90.7436 97.0635 90.8382 97.0531 90.9271 97.0225C91.0161 96.9919 91.0971 96.9418 91.1642 96.8759H91.2132C88.1989 100.734 84.4014 103.909 80.0709 106.193C75.5904 108.497 70.6661 109.807 65.6335 110.035C62.6487 110.176 59.6575 109.993 56.7123 109.488H56.6347C55.6983 105.465 54.7647 101.438 53.8338 97.4067L53.842 97.419ZM99.5424 182.018V182.038V182.018ZM100.661 179.192C99.7507 179.156 98.8361 178.96 97.9256 178.874C97.0151 178.788 96.1373 178.735 95.2431 178.706C93.9502 178.668 92.6586 178.691 91.3684 178.776C90.6849 178.71 89.9952 178.757 89.3269 178.915C89.2816 178.926 89.2378 178.942 89.1963 178.964C89.1582 178.962 89.12 178.962 89.0819 178.964C88.3062 179.054 88.298 180.282 89.0819 180.189C89.7025 180.111 90.3068 180.058 90.9438 180.013C91.4296 180.013 91.9155 180.054 92.3973 180.099C93.7288 180.224 95.0506 180.439 96.3537 180.74C97.3867 180.977 98.5135 181.217 99.3587 181.822C99.3179 181.793 99.3995 181.858 99.473 181.924L99.5098 181.952C99.4634 181.992 99.4197 182.034 99.3791 182.079C99.0452 182.304 98.6845 182.486 98.3053 182.622C95.8555 183.561 93.12 183.381 90.5477 183.386C90.3853 183.386 90.2295 183.45 90.1146 183.565C89.9998 183.68 89.9353 183.836 89.9353 183.998C89.9353 184.16 89.9998 184.316 90.1146 184.431C90.2295 184.546 90.3853 184.61 90.5477 184.61C91.4664 184.61 92.4054 184.61 93.3445 184.61C93.3851 184.8 93.4137 184.993 93.4303 185.186C93.5895 187.138 92.7852 189.179 92.1564 191C91.5684 192.695 90.7396 194.438 89.2616 195.545C87.7019 196.708 85.7176 196.651 83.8639 196.643C81.7734 196.643 79.6857 196.542 77.6007 196.341C76.7841 196.265 75.9675 196.172 75.1509 196.063C77.4634 193.11 78.9764 189.612 79.5442 185.905H79.6585C81.2721 185.596 82.7678 184.843 83.9782 183.733C86.7056 181.246 86.7465 177.49 86.9098 174.068C86.9264 172.444 87.222 170.835 87.7835 169.312C88.0841 168.562 88.5417 167.885 89.1255 167.326C89.7093 166.768 90.4058 166.341 91.1683 166.074C92.9811 165.429 94.9981 165.257 96.9089 165.212C97.8276 165.188 98.8688 165.106 99.7425 165.457C100.339 165.698 101.061 166.474 100.604 167.144C100.196 167.744 99.224 167.789 98.583 167.805C97.55 167.829 96.5211 167.691 95.4922 167.727C94.0019 167.776 92.385 168.283 91.5194 169.581C91.3929 169.771 91.2914 169.977 91.2173 170.193C90.8988 170.234 90.5844 170.279 90.266 170.336C89.4902 170.471 89.8209 171.655 90.5926 171.516C92.0356 171.228 93.5175 171.189 94.9736 171.402C96.3076 171.651 97.5988 172.091 98.8075 172.709C99.5098 173.047 100.2 173.419 100.873 173.807C101.437 174.129 102.033 174.624 101.429 175.236C101.198 175.457 100.904 175.599 100.588 175.644C99.1561 174.977 97.6476 174.489 96.0964 174.191C93.8306 173.745 91.5052 173.689 89.2207 174.027C88.445 174.142 88.7757 175.322 89.5474 175.211C92.0624 174.849 94.6251 175.007 97.0763 175.677H96.5129L90.2333 175.567C90.0709 175.567 89.9151 175.631 89.8003 175.746C89.6854 175.861 89.6209 176.017 89.6209 176.179C89.6209 176.342 89.6854 176.497 89.8003 176.612C89.9151 176.727 90.0709 176.792 90.2333 176.792L96.8395 176.865C97.8848 176.865 98.9382 176.926 99.9834 176.89L100.392 176.865C101.004 177.135 101.694 177.477 101.976 178.021C102.401 178.911 101.302 179.209 100.653 179.18L100.661 179.192ZM73.926 75.6895C74.5776 74.6093 75.4644 73.6899 76.5206 73C77.5767 72.31 78.7749 71.8672 80.0259 71.7045C80.3526 71.6596 80.6384 72.023 80.6384 72.317C80.6342 72.4781 80.5684 72.6315 80.4544 72.7455C80.3405 72.8594 80.1871 72.9253 80.0259 72.9294C78.9874 73.084 77.9963 73.4676 77.1242 74.0522C76.2521 74.6369 75.5209 75.4081 74.9835 76.3101C74.9012 76.4503 74.7666 76.5521 74.6092 76.5931C74.4519 76.6341 74.2847 76.6109 74.1444 76.5286C74.0042 76.4463 73.9024 76.3116 73.8615 76.1543C73.8205 75.9969 73.8437 75.8297 73.926 75.6895ZM59.9705 91.8662C61.1836 91.605 62.3389 91.1249 63.3797 90.4494C64.3841 91.315 65.6989 92.1601 67.0299 91.6457C68.3609 91.1312 68.9489 89.5675 68.7529 88.1874C68.5786 87.3013 68.2716 86.4465 67.8424 85.6519C67.7891 85.5515 67.7045 85.4713 67.6015 85.4233C68.0751 84.3161 68.3515 83.1347 68.4181 81.9323C68.4589 81.1443 67.234 81.1443 67.1932 81.9323C67.1356 82.9997 66.8867 84.0479 66.4583 85.0272C66.1916 84.7345 65.8552 84.514 65.4805 84.3862C65.1057 84.2585 64.7047 84.2275 64.3147 84.2964C63.7558 84.3937 63.2557 84.7025 62.9182 85.1585C62.5807 85.6146 62.4316 86.1831 62.5019 86.7461C62.2033 86.8306 61.9273 86.9808 61.6942 87.1856C61.4611 87.3905 61.2767 87.6449 61.1545 87.9302C61.0113 88.2522 60.9761 88.6118 61.0541 88.9555C61.1321 89.2991 61.3191 89.6083 61.5873 89.8369C61.6425 89.8824 61.7012 89.9233 61.7629 89.9594C61.0913 90.2906 60.3807 90.5361 59.6479 90.6903C58.8722 90.8454 59.2029 92.0254 59.9705 91.8662ZM66.593 87.281C66.695 87.2776 66.7947 87.2507 66.8846 87.2026C66.9745 87.1544 67.0522 87.0863 67.1116 87.0034C67.3251 87.4591 67.4722 87.9431 67.5484 88.4406C67.5894 88.7501 67.5714 89.0646 67.4954 89.3674C67.4304 89.6215 67.3182 89.8611 67.1646 90.0737C66.9915 90.2968 66.7503 90.4574 66.4777 90.5311C66.2051 90.6047 65.9159 90.5875 65.6539 90.482C65.184 90.3104 64.7514 90.0498 64.3801 89.7144C65.2353 89.0185 65.9812 88.1983 66.593 87.281ZM63.6941 86.2888C63.7094 86.2252 63.7285 86.1624 63.7513 86.101C63.7309 86.1541 63.8942 85.8846 63.8615 85.9214C63.9064 85.8724 63.9514 85.8234 64.0003 85.7785L64.0861 85.7091C64.1394 85.6699 64.1953 85.6344 64.2535 85.6029L64.3719 85.5498L64.5475 85.4968H64.5924H64.6455C64.8598 85.469 65.0773 85.5151 65.262 85.6274C65.5101 85.7705 65.7136 85.9797 65.8499 86.2317C65.6066 86.6365 65.3337 87.0227 65.0333 87.3872C64.6604 87.0821 64.2279 86.8582 63.7635 86.7298C63.7635 86.689 63.7635 86.7053 63.7635 86.7298C63.7429 86.6726 63.7265 86.6139 63.7145 86.5542C63.7145 86.5542 63.7145 86.4317 63.7145 86.4277C63.7179 86.4101 63.7179 86.3921 63.7145 86.3746C63.7127 86.3451 63.7058 86.316 63.6941 86.2888ZM62.2447 88.5141C62.2554 88.4412 62.2819 88.3715 62.3223 88.3099C62.3999 88.1776 62.5101 88.0674 62.6422 87.9895C62.7744 87.9116 62.9242 87.8687 63.0776 87.8649C63.3355 88.1313 63.6596 88.3244 64.0167 88.4242C63.8289 88.5957 63.6329 88.759 63.4287 88.9142C63.3426 88.8679 63.2455 88.8457 63.1477 88.85C63.05 88.8543 62.9552 88.885 62.8735 88.9387C62.8389 88.9651 62.802 88.9883 62.7632 89.0081H62.6734C62.6734 89.0081 62.5713 88.9713 62.5468 88.9673C62.5083 88.9391 62.4673 88.9145 62.4243 88.8938C62.3937 88.8673 62.3651 88.8386 62.3386 88.808C62.3276 88.7869 62.3153 88.7664 62.3018 88.7468C62.3018 88.7264 62.3018 88.706 62.3018 88.6896C62.3018 88.6733 62.3018 88.608 62.3018 88.5916C62.3018 88.5753 62.3018 88.5631 62.3018 88.5631C62.2826 88.5436 62.2606 88.5271 62.2365 88.5141H62.2447ZM55.5691 64.8329L54.2339 67.7767C54.1507 67.9154 54.0163 68.0158 53.8597 68.0562C53.7031 68.0967 53.5369 68.0741 53.3969 67.9931C53.2592 67.9091 53.1593 67.775 53.1182 67.619C53.0771 67.463 53.098 67.2971 53.1764 67.1561L54.5034 64.1919C54.5871 64.0595 54.7175 63.9633 54.8687 63.9224C55.02 63.8816 55.181 63.8991 55.32 63.9714C55.4607 64.0536 55.5643 64.187 55.6092 64.3436C55.6541 64.5003 55.6368 64.6683 55.5609 64.8125L55.5691 64.8329ZM52.8008 63.8898L51.2493 67.1153C51.2104 67.1879 51.1574 67.2518 51.0932 67.3034C51.0291 67.355 50.9553 67.3931 50.8761 67.4155C50.7969 67.4379 50.714 67.4441 50.6324 67.4338C50.5507 67.4234 50.472 67.3967 50.4009 67.3553C50.3298 67.3138 50.2678 67.2585 50.2186 67.1925C50.1694 67.1266 50.1339 67.0514 50.1144 66.9715C50.0949 66.8915 50.0917 66.8085 50.105 66.7272C50.1183 66.646 50.1478 66.5683 50.1918 66.4988L51.7433 63.2692C51.8256 63.1289 51.9603 63.0271 52.1176 62.9862C52.275 62.9452 52.4421 62.9684 52.5824 63.0507C52.7226 63.133 52.8244 63.2677 52.8654 63.425C52.9063 63.5824 52.8831 63.7495 52.8008 63.8898ZM50.8165 59.5333C50.7961 59.4529 50.7961 59.3687 50.8165 59.2883C50.8203 59.2082 50.8457 59.1306 50.89 59.0637C50.9725 58.9268 51.1038 58.8261 51.2575 58.782L52.074 58.5574C52.234 58.5178 52.4031 58.5396 52.5477 58.6187C52.6835 58.7024 52.7838 58.8332 52.8294 58.9862C52.8519 59.0663 52.8519 59.151 52.8294 59.2311C52.8249 59.3124 52.7996 59.3911 52.7559 59.4598C52.6738 59.5954 52.5443 59.6958 52.3925 59.7415L51.5759 59.962C51.4161 60.0038 51.2463 59.9818 51.1023 59.9007C51.0292 59.8598 50.9654 59.8042 50.9148 59.7375C50.8643 59.6707 50.828 59.5943 50.8083 59.5128L50.8165 59.5333ZM57.0512 63.0038C56.8893 63.0011 56.7346 62.9368 56.6184 62.8241L55.5119 61.6401C55.3999 61.5234 55.3358 61.369 55.3322 61.2073C55.3314 61.1267 55.3469 61.0469 55.3778 60.9725C55.4086 60.8981 55.4543 60.8307 55.5119 60.7745C55.6266 60.6596 55.7823 60.595 55.9447 60.5948C56.1069 60.5959 56.2622 60.6603 56.3775 60.7745L57.484 61.9585C57.5967 62.0747 57.6609 62.2295 57.6636 62.3913C57.6642 62.4718 57.6486 62.5516 57.6178 62.626C57.5869 62.7003 57.5414 62.7677 57.484 62.8241C57.4245 62.8783 57.355 62.9203 57.2793 62.9476C57.2037 62.9749 57.1234 62.9871 57.043 62.9834L57.0512 63.0038Z" fill="#3F4254"/>
</svg>
