<svg width="20" height="16" viewBox="0 0 20 16" fill="none" xmlns="http://www.w3.org/2000/svg">
<g clip-path="url(#clip0_5002_15768)">
<rect width="20" height="16" rx="3" fill="white"/>
<rect y="-0.145508" width="20" height="16.2909" fill="#253F4D"/>
<path fill-rule="evenodd" clip-rule="evenodd" d="M13.4047 2.52792C13.455 2.53686 13.4887 2.54506 13.537 2.56005C13.5576 2.56642 13.5851 2.5747 13.5981 2.57844C13.6112 2.58217 13.6433 2.59479 13.6694 2.60647C13.6955 2.61814 13.7307 2.63378 13.7475 2.64122C13.7643 2.64865 13.7994 2.6674 13.8255 2.68289C13.8517 2.69837 13.8894 2.72069 13.9093 2.73249C13.9293 2.74428 13.9537 2.76174 13.9636 2.77128C13.9735 2.78083 13.9923 2.79623 14.0054 2.80551C14.0185 2.81479 14.0307 2.82423 14.0326 2.8265C14.0344 2.82877 14.0467 2.83822 14.0597 2.84751C14.0904 2.86929 14.1738 2.95424 14.1952 2.98547C14.2044 2.99878 14.2167 3.01433 14.2226 3.02003C14.2286 3.02573 14.2409 3.04128 14.25 3.05459C14.2592 3.06789 14.2743 3.08702 14.2837 3.09711C14.2989 3.11347 14.3205 3.14897 14.4137 3.31074C14.4281 3.33567 14.4399 3.35989 14.4399 3.36453C14.4399 3.36918 14.4474 3.38821 14.4567 3.40682C14.466 3.42542 14.4809 3.46186 14.4899 3.4878C14.4988 3.51373 14.5094 3.54428 14.5134 3.55569C14.5331 3.61246 14.5503 3.6775 14.5621 3.73885C14.5653 3.75596 14.5715 3.78395 14.5759 3.80105C14.5802 3.81816 14.5864 3.85548 14.5897 3.88399C14.5929 3.91251 14.5992 3.95916 14.6035 3.98767C14.6137 4.05429 14.6205 11.2143 14.6104 11.2519C14.6068 11.2652 14.6009 11.2885 14.5971 11.3037C14.5773 11.3843 14.5519 11.452 14.5237 11.4995C14.5064 11.5287 14.4902 11.5541 14.4878 11.556C14.4853 11.5579 14.4759 11.5703 14.4668 11.5837C14.4056 11.673 14.2703 11.7665 14.148 11.804C14.12 11.8126 14.0877 11.8225 14.0762 11.8261C14.0642 11.8298 13.8467 11.8325 13.5646 11.8325C13.0867 11.8325 13.0726 11.8321 13.0288 11.8181C12.9768 11.8015 12.9512 11.7927 12.9227 11.7816C12.898 11.7719 12.7942 11.7093 12.7781 11.6943C12.7718 11.6884 12.7559 11.6759 12.7428 11.6666C12.7132 11.6456 12.7089 11.6413 12.6886 11.6113C12.6796 11.598 12.667 11.5824 12.6607 11.5766C12.6544 11.5708 12.6323 11.5369 12.6115 11.5013C12.5772 11.4425 12.558 11.3951 12.537 11.3176C12.5317 11.2979 12.5285 10.758 12.5259 9.45484L12.5222 7.61978L12.271 7.61447C12.1329 7.61156 11.6884 7.60614 11.2833 7.60244C10.8782 7.59873 10.3467 7.59257 10.1021 7.58873C9.8576 7.58489 9.45132 7.5787 9.1993 7.57499C8.94729 7.57127 8.69222 7.56738 8.63248 7.56635L8.52387 7.56449L8.52536 7.71309C8.5269 7.86593 8.53533 8.07339 8.54742 8.25566C8.56523 8.52445 8.5758 8.66281 8.58821 8.78959C8.59202 8.82856 8.59811 8.89076 8.60173 8.92782C8.60535 8.96488 8.61153 9.02165 8.61546 9.05396C8.61939 9.08627 8.62543 9.13915 8.62889 9.17146C8.63234 9.20377 8.63854 9.25043 8.64266 9.27514C8.64679 9.29985 8.65283 9.3465 8.65609 9.37881C8.65935 9.41113 8.6655 9.45467 8.66976 9.47558C8.67402 9.49648 8.68015 9.53692 8.68339 9.56543C8.68663 9.59394 8.69268 9.63437 8.69683 9.65528C8.70098 9.67619 8.70715 9.7104 8.71055 9.73131C8.71394 9.75222 8.72005 9.78643 8.72412 9.80734C8.72819 9.82825 8.7343 9.86246 8.7377 9.88337C8.74343 9.91867 8.74647 9.93492 8.76485 10.0285C8.76859 10.0475 8.7745 10.0779 8.778 10.0959C8.7815 10.114 8.78784 10.1427 8.7921 10.1598C8.79635 10.1769 8.80215 10.208 8.80499 10.229C8.80783 10.2499 8.81519 10.281 8.82134 10.2981C8.8275 10.3152 8.83258 10.3367 8.83263 10.346C8.83273 10.3632 8.83513 10.3727 8.85932 10.451C8.8671 10.4762 8.87346 10.5043 8.87346 10.5133C8.87346 10.5224 8.87957 10.5468 8.88704 10.5676C8.89451 10.5884 8.90062 10.6142 8.90062 10.6248C8.90062 10.6355 8.90673 10.6564 8.91419 10.6713C8.92166 10.6862 8.92777 10.7037 8.92777 10.7103C8.92777 10.7168 8.9306 10.7317 8.93406 10.7434C8.95457 10.8126 8.99751 10.9541 9.0029 10.9702C9.00638 10.9807 9.01228 10.9986 9.01602 11.01C9.01975 11.0214 9.02586 11.04 9.0296 11.0514C9.03333 11.0629 9.03944 11.0815 9.04317 11.0929C9.0759 11.1929 9.09801 11.2535 9.11175 11.2809C9.11942 11.2962 9.13119 11.3263 9.13793 11.3477C9.14466 11.3691 9.16089 11.41 9.17399 11.4385C9.18709 11.467 9.20763 11.5137 9.21964 11.5422C9.27264 11.668 9.31261 11.7478 9.38352 11.8692C9.40935 11.9135 9.41131 11.9781 9.38767 12.006C9.3475 12.0536 9.2838 12.0671 9.22494 12.0406C9.20898 12.0334 9.17911 12.0206 9.15857 12.0122C9.13804 12.0038 9.10749 11.9905 9.09069 11.9828C9.07389 11.975 9.04527 11.9631 9.02709 11.9562C9.0089 11.9493 8.97377 11.9315 8.94902 11.9168C8.92427 11.902 8.8811 11.8763 8.8531 11.8598C8.79888 11.8277 8.70262 11.764 8.69697 11.7565C8.6951 11.754 8.67372 11.7384 8.64945 11.7219C8.62518 11.7053 8.60074 11.6867 8.59514 11.6806C8.58954 11.6744 8.57427 11.6619 8.5612 11.6527C8.54814 11.6435 8.52675 11.6248 8.51368 11.6113C8.50062 11.5978 8.47923 11.579 8.46617 11.5696C8.43539 11.5476 8.27085 11.3801 8.24909 11.3487C8.23988 11.3353 8.21843 11.3105 8.20142 11.2934C8.18442 11.2763 8.1631 11.2514 8.15404 11.2381C8.14499 11.2248 8.13271 11.2092 8.12675 11.2035C8.1208 11.1978 8.10858 11.1823 8.09961 11.1689C8.09062 11.1556 8.08146 11.1432 8.07923 11.1413C8.07701 11.1394 8.06784 11.127 8.05887 11.1137C8.0499 11.1003 8.04073 11.0879 8.0385 11.086C8.03628 11.0841 8.02711 11.0717 8.01814 11.0584C8.00917 11.0451 7.99987 11.0326 7.99747 11.0307C7.99508 11.0288 7.95968 10.9759 7.91881 10.9132C7.85283 10.812 7.80575 10.7338 7.71899 10.5815C7.68868 10.5282 7.51275 10.1644 7.48254 10.0924C7.47097 10.0649 7.45267 10.0213 7.44187 9.99568C7.43108 9.97002 7.41581 9.9327 7.40793 9.91274C7.3833 9.85032 7.36533 9.80502 7.3524 9.77278C7.32666 9.70865 7.23829 9.44176 7.19103 9.2855C7.17609 9.23609 7.15562 9.16921 7.14554 9.1369C7.13546 9.10459 7.12439 9.06571 7.12094 9.05051C7.11475 9.0232 7.10726 8.99221 7.09462 8.94165C7.09106 8.92739 7.08523 8.90407 7.08167 8.88981C7.0781 8.87556 7.07185 8.84989 7.06778 8.83279C7.05961 8.7985 7.05043 8.76096 7.03989 8.71874C7.03609 8.70354 7.03031 8.6771 7.02705 8.65999C7.02378 8.64289 7.01767 8.61489 7.01347 8.59779C7.00927 8.58068 7.00297 8.55191 6.99947 8.53386C6.99597 8.5158 6.99005 8.48547 6.98632 8.46647C6.98259 8.44746 6.97648 8.41636 6.97274 8.39735C6.95435 8.30369 6.9513 8.28738 6.94528 8.25047C6.94171 8.22862 6.93564 8.1913 6.93177 8.16753C6.92791 8.14378 6.9219 8.10412 6.91844 8.07941C6.91497 8.0547 6.9088 8.01427 6.90474 7.98956C6.90068 7.96485 6.89453 7.91819 6.89109 7.88588C6.88763 7.85357 6.88157 7.80069 6.87762 7.76838C6.87367 7.73607 6.86754 7.67697 6.864 7.63706C6.86046 7.59714 6.85429 7.53183 6.8503 7.49191C6.8219 7.20792 6.82193 6.27135 6.85034 6.01972C6.85442 5.9836 6.86055 5.91829 6.86397 5.87457C6.86739 5.83085 6.87351 5.77176 6.87758 5.74325C6.88165 5.71474 6.88777 5.66497 6.89117 5.63266C6.89457 5.60035 6.90068 5.55369 6.90474 5.52898C6.9088 5.50428 6.91497 5.46384 6.91844 5.43913C6.9219 5.41442 6.92791 5.37477 6.93177 5.35101C6.93564 5.32725 6.94171 5.28993 6.94528 5.26807C6.95251 5.22371 6.95939 5.18731 6.98611 5.05208C6.98949 5.03497 6.99569 5.00698 6.9999 4.98987C7.0041 4.97276 7.00994 4.94477 7.01288 4.92766C7.01583 4.91056 7.02323 4.88257 7.02933 4.86546C7.03543 4.84835 7.04047 4.82699 7.04052 4.81798C7.04058 4.80898 7.04652 4.78254 7.05373 4.75923C7.06094 4.73593 7.07034 4.70286 7.07462 4.68575C7.08216 4.65567 7.13001 4.49464 7.1429 4.45594C7.14639 4.44548 7.15229 4.4276 7.15603 4.4162C7.17161 4.36859 7.17877 4.34793 7.19677 4.2987C7.20718 4.27019 7.22214 4.23053 7.22999 4.21057C7.23785 4.19061 7.2507 4.15796 7.25856 4.138C7.26642 4.11804 7.2771 4.09006 7.28228 4.07581C7.29932 4.02902 7.43544 3.75719 7.46134 3.71822C7.47529 3.69725 7.49164 3.67028 7.49769 3.65829C7.50375 3.64629 7.51269 3.6323 7.51757 3.62719C7.52244 3.62207 7.53382 3.60701 7.54286 3.5937C7.55189 3.5804 7.5611 3.56796 7.56332 3.56606C7.56555 3.56415 7.57471 3.55171 7.5837 3.53841C7.59267 3.5251 7.60489 3.50955 7.61084 3.50385C7.6168 3.49815 7.62914 3.4826 7.63828 3.46929C7.65984 3.43788 7.83794 3.25653 7.8688 3.23458C7.88186 3.22528 7.89714 3.21271 7.90274 3.20665C7.90834 3.20058 7.92361 3.18814 7.93668 3.17901C7.94975 3.16986 7.96197 3.16042 7.96383 3.15802C7.96911 3.15121 8.08375 3.07401 8.14033 3.03915C8.19077 3.00807 8.30327 2.95123 8.39489 2.91052C8.43726 2.8917 8.47097 2.87863 8.53744 2.85524C8.58407 2.83884 8.67508 2.81055 8.70036 2.80461C8.7153 2.80109 8.73973 2.79506 8.75467 2.7912C8.7696 2.78733 8.79557 2.78144 8.81237 2.77812C8.82917 2.77479 8.85666 2.76843 8.87346 2.76398C8.91887 2.75195 8.98231 2.74795 8.99079 2.75658C8.99596 2.76184 8.99199 2.78349 8.97705 2.83153C8.9655 2.86868 8.94949 2.9224 8.94146 2.95091C8.93344 2.97942 8.92402 3.01131 8.92053 3.02176C8.91704 3.03221 8.91133 3.04932 8.90783 3.05977C8.90187 3.07753 8.89582 3.10049 8.87916 3.16863C8.87544 3.18384 8.86676 3.2165 8.85989 3.2412C8.85301 3.26591 8.84387 3.30013 8.83958 3.31723C8.83529 3.33434 8.82589 3.36741 8.81868 3.39071C8.81148 3.41402 8.80553 3.44046 8.80548 3.44946C8.80543 3.45847 8.80039 3.47983 8.79429 3.49694C8.78818 3.51404 8.78078 3.54204 8.77784 3.55914C8.7749 3.57625 8.76905 3.60424 8.76485 3.62135C8.76065 3.63846 8.75454 3.66645 8.75128 3.68355C8.74801 3.70066 8.74186 3.72865 8.7376 3.74576C8.73335 3.76287 8.72719 3.79397 8.72391 3.81488C8.71579 3.86673 8.70613 3.91593 8.6968 3.95311C8.69251 3.97022 8.68638 4.00443 8.68318 4.02914C8.67999 4.05385 8.67394 4.09117 8.66975 4.11208C8.66556 4.13299 8.65948 4.17342 8.65624 4.20193C8.653 4.23044 8.64686 4.27088 8.64261 4.29179C8.63835 4.31269 8.63211 4.35624 8.62874 4.38855C8.62537 4.42086 8.61941 4.47374 8.61551 4.50605C8.60448 4.59728 8.59542 4.68311 8.5892 4.75487C8.58608 4.79099 8.58164 4.82675 8.57933 4.83436C8.57489 4.84896 8.56982 4.92433 8.56141 5.10046C8.5586 5.15938 8.55441 5.21537 8.5521 5.22487C8.54382 5.25892 8.53903 5.45511 8.53824 5.79163L8.53744 6.13376L9.52853 6.13896C10.0736 6.14183 10.9702 6.14494 11.5209 6.14588L12.5222 6.14758L12.5271 5.81237C12.5299 5.62799 12.5352 5.38228 12.5391 5.26634C12.5676 4.40545 12.5678 3.80396 12.5398 3.58333C12.5186 3.41678 12.5167 3.40662 12.493 3.3338C12.4713 3.26712 12.4398 3.20958 12.4067 3.17581C12.3585 3.12674 12.3286 3.114 12.2252 3.09844C12.2058 3.09552 12.1997 3.09141 12.1997 3.0812C12.1997 3.06584 12.2613 2.96985 12.2878 2.944C12.2975 2.9345 12.313 2.91584 12.3221 2.90253C12.3435 2.87137 12.4001 2.81381 12.4305 2.79219C12.4436 2.78291 12.4589 2.77027 12.4645 2.7641C12.4766 2.75079 12.557 2.69596 12.6249 2.65482C12.679 2.622 12.7098 2.60904 12.8276 2.56941C12.9433 2.53053 12.9478 2.52931 12.9775 2.52919C12.9921 2.52913 13.0087 2.52601 13.0143 2.52225C13.0275 2.51343 13.3494 2.5181 13.4047 2.52792ZM6.55225 4.5292C6.54891 4.53814 6.52455 4.58943 6.49811 4.64317C6.47166 4.69692 6.44577 4.75259 6.44057 4.76689C6.43536 4.78118 6.42431 4.80999 6.41601 4.8309C6.40189 4.86647 6.34997 5.02292 6.32052 5.11864C6.31335 5.14195 6.30744 5.16839 6.30739 5.17739C6.30733 5.1864 6.30226 5.20776 6.2961 5.22487C6.28995 5.24198 6.28249 5.27308 6.27954 5.29399C6.27658 5.31489 6.27083 5.34911 6.26676 5.37001C6.25559 5.42736 6.24651 5.48505 6.23931 5.54454C6.23574 5.574 6.22965 5.62376 6.22579 5.65512C6.22192 5.68649 6.21584 5.7448 6.21227 5.78472C6.2087 5.82463 6.20255 5.89306 6.19861 5.93678C6.18436 6.09444 6.17789 6.35585 6.17775 6.78001C6.17762 7.19418 6.18263 7.3644 6.19873 7.49191C6.20281 7.52423 6.20894 7.58332 6.21236 7.62324C6.21579 7.66315 6.22173 7.71758 6.22557 7.74419C6.2322 7.79003 6.23811 7.83241 6.2528 7.93945C6.25632 7.96511 6.2626 8.00321 6.26676 8.02412C6.27091 8.04502 6.27702 8.08235 6.28034 8.10706C6.28365 8.13177 6.28972 8.16909 6.29384 8.19C6.29795 8.2109 6.304 8.24512 6.30728 8.26603C6.31056 8.28693 6.31672 8.31804 6.32097 8.33514C6.32523 8.35225 6.33157 8.38102 6.33507 8.39908C6.33857 8.41713 6.3443 8.44668 6.34779 8.46474C6.35129 8.48279 6.35759 8.51156 6.3618 8.52867C6.366 8.54578 6.37211 8.57377 6.37537 8.59088C6.37864 8.60798 6.38475 8.63598 6.38895 8.65308C6.39315 8.67019 6.39905 8.69818 6.40206 8.71529C6.40507 8.73239 6.41276 8.7635 6.41914 8.7844C6.42552 8.80531 6.43355 8.83409 6.437 8.84834C6.44508 8.88183 6.45496 8.92206 6.46416 8.95893C6.47593 9.00615 6.51047 9.12933 6.54507 9.24749C6.57059 9.33465 6.72143 9.79595 6.74734 9.86609C6.75857 9.8965 6.77435 9.94004 6.7824 9.96285C6.79811 10.0073 6.81374 10.0469 6.84376 10.1184C6.85415 10.1431 6.86942 10.1804 6.87771 10.2013C6.89263 10.239 6.91001 10.2809 6.95223 10.381C6.97951 10.4457 7.17455 10.8454 7.20878 10.9067C7.24849 10.9779 7.44352 11.2851 7.45428 11.2934C7.45674 11.2953 7.4661 11.3077 7.47508 11.321C7.48405 11.3343 7.49321 11.3468 7.49544 11.3487C7.49767 11.3506 7.50686 11.363 7.51587 11.3763C7.52488 11.3896 7.54012 11.4083 7.54975 11.4178C7.55937 11.4273 7.57465 11.4459 7.58369 11.4592C7.59273 11.4725 7.608 11.4912 7.61763 11.5007C7.62726 11.5102 7.64263 11.5289 7.6518 11.5422C7.67349 11.5737 7.91935 11.824 7.95026 11.8461C7.96332 11.8554 7.98165 11.8711 7.99099 11.8809C8.00032 11.8907 8.01865 11.9062 8.03172 11.9154C8.04478 11.9245 8.06006 11.937 8.06566 11.9431C8.07126 11.9491 8.08653 11.9616 8.0996 11.9707C8.11267 11.9798 8.12489 11.9893 8.12675 11.9916C8.12862 11.994 8.15 12.0095 8.17427 12.026C8.19854 12.0425 8.21992 12.0581 8.22179 12.0606C8.22733 12.068 8.32336 12.1316 8.37452 12.1618C8.40066 12.1772 8.44343 12.2025 8.46956 12.2179C8.54608 12.2632 8.72548 12.3496 8.84631 12.3993C8.86685 12.4077 8.89434 12.4195 8.90741 12.4254C8.92047 12.4314 8.94873 12.4388 8.9702 12.4419C9.08365 12.4585 9.09903 12.4618 9.13934 12.4785C9.14557 12.4811 9.15855 12.4954 9.16819 12.5102C9.19766 12.5555 9.19135 12.6283 9.15242 12.6921C9.1343 12.7218 9.04395 12.7858 8.98196 12.8129C8.96149 12.8219 8.931 12.8356 8.91419 12.8433C8.86649 12.8653 8.81714 12.8831 8.80364 12.8831C8.79687 12.8831 8.78156 12.8882 8.7696 12.8946C8.73794 12.9114 8.67361 12.9252 8.49671 12.9533C8.43452 12.9631 8.05397 12.9627 7.97062 12.9527C7.93515 12.9485 7.87711 12.9421 7.84164 12.9386C7.80617 12.9351 7.7573 12.9289 7.73303 12.9247C7.70876 12.9205 7.66905 12.9143 7.64478 12.9109C7.62052 12.9074 7.58463 12.9013 7.56502 12.8973C7.54542 12.8933 7.51487 12.8871 7.49714 12.8835C7.47941 12.8799 7.45115 12.8735 7.43435 12.8692C7.41755 12.865 7.39005 12.8587 7.37325 12.8554C7.35645 12.8521 7.32972 12.8461 7.31385 12.842C7.29799 12.838 7.27278 12.8316 7.25785 12.8278C7.24292 12.824 7.21925 12.8183 7.20524 12.8151C7.19124 12.8119 7.17001 12.8042 7.15806 12.7978C7.14611 12.7915 7.13149 12.7863 7.12558 12.7863C7.11416 12.7863 6.90897 12.7178 6.87014 12.701C6.8575 12.6955 6.83036 12.6842 6.80982 12.6758C6.62528 12.6001 6.37545 12.4694 6.24639 12.381C6.20719 12.3542 6.16548 12.3271 6.1537 12.321C6.14192 12.3148 6.12817 12.3056 6.12315 12.3005C6.11813 12.2955 6.09417 12.2777 6.0699 12.2611C6.04563 12.2445 6.02119 12.2258 6.01559 12.2197C6.00999 12.2135 5.99472 12.201 5.98165 12.1919C5.96858 12.1827 5.95636 12.1734 5.9545 12.1711C5.95263 12.1689 5.94041 12.1595 5.92734 12.1503C5.91428 12.1411 5.89289 12.1225 5.87983 12.1089C5.86676 12.0954 5.84538 12.0766 5.83231 12.0673C5.80129 12.0451 5.48763 11.7257 5.46597 11.6942C5.4568 11.6809 5.44142 11.6623 5.4318 11.6528C5.42217 11.6433 5.40693 11.6246 5.39792 11.6113C5.3889 11.598 5.37666 11.5824 5.3707 11.5767C5.36475 11.571 5.35253 11.5555 5.34355 11.5422C5.33457 11.5289 5.32235 11.5133 5.3164 11.5076C5.31044 11.5019 5.29823 11.4864 5.28925 11.4731C5.28027 11.4598 5.27096 11.4473 5.26857 11.4454C5.26616 11.4435 5.22466 11.3813 5.17633 11.3072C5.09832 11.1875 5.05173 11.1106 4.96294 10.9547C4.93414 10.9041 4.82614 10.6795 4.79513 10.6056C4.75353 10.5066 4.74598 10.4862 4.7197 10.4017C4.67488 10.2577 4.66994 10.2405 4.66426 10.2082C4.66125 10.1911 4.65527 10.1631 4.65098 10.146C4.64669 10.1289 4.64049 10.0947 4.63722 10.07C4.63394 10.0453 4.62767 10.0048 4.62329 9.98013C4.61285 9.92129 4.61266 9.58367 4.62305 9.52569C4.6273 9.50193 4.6336 9.4646 4.63705 9.44275C4.6405 9.42089 4.6468 9.38901 4.65105 9.3719C4.65531 9.35479 4.66108 9.3268 4.66388 9.3097C4.66668 9.29259 4.67413 9.26864 4.68043 9.25648C4.68672 9.2443 4.69187 9.22871 4.69187 9.22182C4.69187 9.20981 4.70215 9.17978 4.73332 9.10062C4.74117 9.08066 4.75191 9.05248 4.75718 9.038C4.778 8.98077 4.89495 8.77019 4.92018 8.74449C4.92533 8.73924 4.93281 8.72875 4.93678 8.72119C4.9458 8.70404 5.02225 8.65308 5.03895 8.65308C5.05175 8.65308 5.07202 8.68516 5.07202 8.7054C5.07202 8.71174 5.07792 8.736 5.08512 8.75931C5.09233 8.78261 5.10173 8.81568 5.10602 8.83279C5.14022 8.96921 5.25577 9.337 5.3286 9.54124C5.34351 9.58305 5.36232 9.63593 5.3704 9.65874C5.37848 9.68155 5.39102 9.71499 5.39826 9.73304C5.40551 9.75109 5.41788 9.78219 5.42575 9.80216C5.44645 9.85462 5.50661 9.99749 5.54871 10.0942C5.58693 10.1819 5.76446 10.5443 5.80774 10.6229C5.89397 10.7795 5.90906 10.8055 6.02233 10.9927C6.0587 11.0528 6.1317 11.1643 6.13772 11.1689C6.14018 11.1708 6.15549 11.1926 6.17172 11.2173C6.18796 11.242 6.20315 11.2638 6.20548 11.2657C6.20781 11.2676 6.21706 11.2801 6.22603 11.2934C6.235 11.3067 6.24417 11.3191 6.24639 11.321C6.24862 11.3229 6.25779 11.3353 6.26677 11.3487C6.27574 11.362 6.28796 11.3775 6.29391 11.3832C6.29987 11.3889 6.31211 11.4045 6.32113 11.4178C6.33013 11.4311 6.34538 11.4497 6.35501 11.4592C6.36463 11.4687 6.37991 11.4874 6.38895 11.5007C6.39799 11.514 6.41326 11.5327 6.42289 11.5422C6.43252 11.5517 6.44789 11.5703 6.45706 11.5837C6.47876 11.6151 6.73818 11.8793 6.76909 11.9014C6.78216 11.9107 6.80049 11.9263 6.80982 11.9361C6.81916 11.946 6.83749 11.9615 6.85055 11.9706C6.86362 11.9798 6.87889 11.9923 6.88449 11.9984C6.89009 12.0044 6.90537 12.0169 6.91844 12.026C6.9315 12.0351 6.94372 12.0445 6.94559 12.0467C6.94746 12.049 6.95967 12.0584 6.97274 12.0676C6.98581 12.0768 7.00161 12.0891 7.00785 12.0949C7.0528 12.1367 7.43046 12.3439 7.46169 12.3439C7.46935 12.3439 7.48695 12.3496 7.5008 12.3565C7.52534 12.3687 7.59347 12.3912 7.64818 12.405C7.66311 12.4088 7.6883 12.4158 7.70415 12.4205C7.72972 12.4281 7.73451 12.4277 7.74658 12.4165C7.76189 12.4024 7.76459 12.3683 7.75251 12.3413C7.74551 12.3256 7.6436 12.251 7.59255 12.2241C7.58091 12.218 7.56729 12.2088 7.56227 12.2038C7.55725 12.1987 7.53329 12.181 7.50902 12.1643C7.48475 12.1477 7.46031 12.1291 7.45471 12.1229C7.44911 12.1168 7.43384 12.1043 7.42077 12.0951C7.4077 12.086 7.39548 12.0767 7.39362 12.0744C7.39175 12.0721 7.37953 12.0627 7.36646 12.0535C7.3534 12.0443 7.32896 12.0226 7.31216 12.0053C7.29536 11.988 7.27092 11.9661 7.25785 11.9567C7.22699 11.9346 6.98115 11.6843 6.95929 11.6528C6.95007 11.6395 6.92558 11.6115 6.90486 11.5906C6.88414 11.5697 6.85978 11.5417 6.85072 11.5284C6.84165 11.5151 6.83241 11.5026 6.83019 11.5007C6.82796 11.4988 6.81877 11.4864 6.80975 11.4731C6.80075 11.4598 6.78551 11.4411 6.77588 11.4316C6.76626 11.4221 6.75102 11.4034 6.74201 11.3901C6.73299 11.3768 6.7238 11.3644 6.72158 11.3625C6.71935 11.3606 6.71018 11.3481 6.70121 11.3348C6.69224 11.3215 6.68299 11.3091 6.68066 11.3072C6.67833 11.3053 6.66314 11.2835 6.6469 11.2588C6.63067 11.2341 6.61528 11.2123 6.61271 11.2104C6.59988 11.2009 6.42026 10.9157 6.34283 10.7819C6.22464 10.5777 6.05363 10.2245 5.96881 10.0095C5.96094 9.98955 5.94803 9.9569 5.94013 9.93693C5.93223 9.91697 5.92036 9.88665 5.91377 9.86955C5.90718 9.85244 5.89549 9.82289 5.88781 9.80388C5.85869 9.73185 5.72359 9.32422 5.69596 9.22503C5.68881 9.19936 5.67709 9.15738 5.66993 9.13172C5.65682 9.08486 5.64686 9.04656 5.63442 8.99521C5.63073 8.98001 5.62182 8.9485 5.61461 8.92519C5.60741 8.90188 5.60146 8.87545 5.6014 8.86644C5.60135 8.85743 5.59631 8.83607 5.59021 8.81896C5.58411 8.80186 5.57671 8.77386 5.57376 8.75676C5.57082 8.73965 5.56498 8.71166 5.56078 8.69455C5.55657 8.67745 5.55028 8.64867 5.54677 8.63062C5.54328 8.61257 5.53736 8.58224 5.53362 8.56323C5.51524 8.46963 5.5122 8.45339 5.50647 8.41808C5.50308 8.39718 5.49693 8.36296 5.49282 8.34205C5.48871 8.32115 5.48263 8.28382 5.47932 8.25911C5.476 8.2344 5.46989 8.19708 5.46574 8.17617C5.45086 8.10133 5.42631 7.90103 5.41111 7.73037C5.39343 7.5319 5.39009 7.43802 5.39005 7.13942C5.39002 6.79447 5.39693 6.65965 5.42464 6.46552C5.42844 6.43891 5.43449 6.39537 5.43808 6.36876C5.44167 6.34215 5.44774 6.30482 5.45156 6.28582C5.46092 6.23932 5.47072 6.18939 5.47867 6.14758C5.48229 6.12858 5.4885 6.0998 5.49247 6.08365C5.49644 6.0675 5.50233 6.04262 5.50557 6.02836C5.50881 6.0141 5.5164 5.98844 5.52244 5.97133C5.52848 5.95423 5.53347 5.93467 5.53352 5.92786C5.53358 5.92106 5.53973 5.9033 5.5472 5.88839C5.55467 5.87349 5.56078 5.85504 5.56078 5.84739C5.56078 5.83973 5.56656 5.82017 5.57363 5.80391C5.5807 5.78766 5.59324 5.75724 5.60149 5.73634C5.65393 5.60349 5.72304 5.46236 5.79694 5.3372C5.8237 5.29189 5.9009 5.17422 5.90692 5.16958C5.90938 5.16767 5.9247 5.1459 5.94095 5.12119C5.95721 5.09648 5.97545 5.0716 5.98149 5.0659C5.98754 5.0602 5.99985 5.04465 6.00887 5.03134C6.01787 5.01804 6.03312 4.99937 6.04275 4.98987C6.05237 4.98037 6.06775 4.9617 6.07691 4.9484C6.08608 4.93509 6.14553 4.87132 6.20902 4.80668C6.27252 4.74203 6.33515 4.6815 6.34822 4.67216C6.36129 4.66283 6.37961 4.64717 6.38895 4.63737C6.39828 4.62757 6.41661 4.61205 6.42968 4.60288C6.44275 4.5937 6.45802 4.58123 6.46362 4.57517C6.46922 4.56911 6.48449 4.55662 6.49756 4.54742C6.51063 4.53822 6.52536 4.52671 6.53029 4.52183C6.54599 4.50631 6.55915 4.51073 6.55225 4.5292Z" fill="#BEA645"/>
</g>
<defs>
<clipPath id="clip0_5002_15768">
<rect width="20" height="16" rx="3" fill="white"/>
</clipPath>
</defs>
</svg>
