<svg width="20" height="16" viewBox="0 0 20 16" fill="none" xmlns="http://www.w3.org/2000/svg">
<path d="M7.28894 3.07422H12.6913V13.0643H7.28894V3.07422Z" fill="#D8D8E5"/>
<path d="M7.63195 8.0206C7.63195 5.99085 8.55805 4.19048 9.98148 3.02554C8.93539 2.17834 7.61484 1.6665 6.17422 1.6665C2.76117 1.6665 0 4.50815 0 8.0206C0 11.533 2.76117 14.3747 6.17414 14.3747C7.61477 14.3747 8.93531 13.8628 9.98148 13.0156C8.55805 11.8683 7.63195 10.0503 7.63195 8.0206Z" fill="#A1A5B7"/>
<path d="M19.9805 8.06893C19.9805 11.5813 17.2193 14.423 13.8064 14.423C12.3657 14.423 11.0452 13.9112 9.99902 13.0639C11.4396 11.899 12.3486 10.0987 12.3486 8.06893C12.3486 6.03919 11.4225 4.23882 9.99902 3.07388C11.0451 2.22668 12.3657 1.71484 13.8064 1.71484C17.2193 1.71484 19.9806 4.57418 19.9806 8.06893H19.9805Z" fill="#E1E3EA"/>
</svg>
