<svg width="30" height="30" viewBox="0 0 30 30" fill="none" xmlns="http://www.w3.org/2000/svg">
<rect width="30" height="30" rx="6" fill="#F1F1F2"/>
<rect x="3" y="3" width="24" height="24" rx="4.8" fill="#A1A5B7"/>
<g clip-path="url(#clip0_5002_15783)">
<path d="M23.5312 12.3099C23.1174 11.9337 22.5908 11.708 21.989 11.708H17.475C17.475 11.8961 17.5126 12.0466 17.5502 12.2346C17.5502 12.2723 17.5502 12.3099 17.5878 12.3475V12.3851C17.964 13.5888 19.0924 14.454 20.3714 14.454H24.2459C24.2459 14.3035 24.2835 14.1907 24.2835 14.0402C24.2835 13.3631 24.0202 12.7236 23.5312 12.3099Z" fill="#F9F9F9"/>
<path d="M24.2451 14.8306H17.587V18.2913H19.6936V16.3352H20.5963L21.8001 18.2913H24.2075L22.8157 16.1847C23.4175 15.9214 23.9818 15.4324 24.2451 14.8306Z" fill="#F9F9F9"/>
<path d="M10.5158 12.5732L9.65066 15.5825H9.50021L8.63504 12.5732C8.48457 12.0842 8.03318 11.708 7.50655 11.708H5.40002V18.2909H7.50655V14.3788H7.657L8.86073 18.2532H10.3654L11.5691 14.3788H11.7196V18.2532H13.8261V11.708H11.6819C11.1177 11.708 10.6663 12.0842 10.5158 12.5732Z" fill="#F9F9F9"/>
<path d="M16.7603 11.708H14.6538V18.2909H16.7603V11.708Z" fill="#F9F9F9"/>
</g>
<defs>
<clipPath id="clip0_5002_15783">
<rect width="19.2" height="6.58286" fill="white" transform="translate(5.40002 11.708)"/>
</clipPath>
</defs>
</svg>
