<svg width="24" height="15" viewBox="0 0 24 15" fill="none" xmlns="http://www.w3.org/2000/svg">
<path d="M4.69138 0H10.6706C11.5053 0 12.0244 0.680311 11.8297 1.51773L9.04592 13.4695C8.84947 14.304 8.0138 14.9849 7.17857 14.9849H1.19991C0.366426 14.9849 -0.153863 14.304 0.0408444 13.4695L2.82577 1.51773C3.02048 0.680311 3.85571 0 4.69138 0Z" fill="#5E6278"/>
<path d="M10.1731 0H17.049C17.8835 0 17.5072 0.680311 17.3109 1.51773L14.5276 13.4695C14.3323 14.304 14.3932 14.9849 13.557 14.9849H6.68101C5.84475 14.9849 5.32723 14.304 5.52369 13.4695L8.30687 1.51773C8.50449 0.680311 9.33798 0 10.1731 0Z" fill="#7E8299"/>
<path d="M16.7764 0H22.7557C23.5915 0 24.1106 0.680311 23.9143 1.51773L21.131 13.4695C20.9345 14.304 20.0983 14.9849 19.2626 14.9849H13.2861C12.4499 14.9849 11.9312 14.304 12.127 13.4695L14.9108 1.51773C15.1055 0.680311 15.9402 0 16.7764 0Z" fill="#5E6278"/>
<path d="M6.25296 3.83018C5.63808 3.83645 5.45649 3.83018 5.39849 3.81649C5.37619 3.92244 4.96127 5.83643 4.9601 5.83803C4.87077 6.22526 4.80577 6.50129 4.58497 6.67953C4.45964 6.78315 4.31331 6.83314 4.14367 6.83314C3.871 6.83314 3.71214 6.69775 3.68547 6.44096L3.68037 6.35278C3.68037 6.35278 3.76344 5.8341 3.76344 5.83118C3.76344 5.83118 4.19891 4.08698 4.27688 3.85642C4.28096 3.8433 4.28213 3.83645 4.28315 3.83018C3.43553 3.83762 3.28527 3.83018 3.27492 3.81649C3.26924 3.83529 3.24825 3.94342 3.24825 3.94342L2.8036 5.9093L2.76542 6.07603L2.69153 6.62138C2.69153 6.78315 2.7233 6.91519 2.78655 7.02683C2.98913 7.38083 3.56698 7.43388 3.89388 7.43388C4.31506 7.43388 4.71016 7.34439 4.97716 7.18102C5.44061 6.90718 5.56186 6.47914 5.67 6.09876L5.72013 5.90362C5.72013 5.90362 6.16872 4.09208 6.24494 3.85642C6.24786 3.8433 6.24902 3.83645 6.25296 3.83018ZM7.77924 5.29157C7.6711 5.29157 7.47348 5.3178 7.29597 5.40481C7.23155 5.43789 7.17063 5.47608 7.10636 5.51411L7.16437 5.30469L7.1326 5.26942C6.75615 5.34564 6.67191 5.35584 6.32418 5.40481L6.29503 5.42419C6.25466 5.75896 6.21881 6.01065 6.06914 6.66866C6.01215 6.91117 5.95298 7.15601 5.89367 7.39794L5.9097 7.42869C6.26603 7.40989 6.37417 7.40989 6.68386 7.41499L6.70893 7.38774C6.74828 7.18618 6.75338 7.13896 6.84053 6.73074C6.88149 6.5372 6.96689 6.11194 7.00901 5.96051C7.0864 5.92466 7.16276 5.88939 7.23563 5.88939C7.40921 5.88939 7.38808 6.04082 7.38137 6.10115C7.37394 6.20244 7.31069 6.53327 7.24583 6.81731L7.20255 7.00065C7.17238 7.13605 7.1393 7.26765 7.10913 7.40187L7.12225 7.42869C7.47348 7.40989 7.5806 7.40989 7.88053 7.41499L7.9158 7.38774C7.97001 7.07294 7.9859 6.9887 8.08209 6.53035L8.13047 6.31976C8.22447 5.90761 8.27169 5.69862 8.20057 5.5284C8.12537 5.33762 7.94495 5.29157 7.77924 5.29157ZM9.48427 5.72309C9.29758 5.75894 9.17851 5.78284 9.06017 5.79829C8.94285 5.81709 8.82845 5.83414 8.64802 5.85921L8.63374 5.87218L8.62062 5.88253C8.60182 6.0169 8.5887 6.13305 8.56378 6.26961C8.54265 6.41083 8.51015 6.57129 8.45725 6.80185C8.41629 6.97834 8.39516 7.03984 8.37184 7.10193C8.34911 7.16401 8.32404 7.22435 8.27799 7.39792L8.28877 7.41396L8.29781 7.42867C8.46643 7.42066 8.57675 7.41498 8.69014 7.41396C8.80338 7.40987 8.9207 7.41396 9.10229 7.41498L9.11818 7.402L9.13523 7.38772C9.16146 7.2312 9.16539 7.18908 9.18143 7.11271C9.19731 7.03081 9.22471 6.91742 9.2919 6.61458C9.32367 6.47233 9.35908 6.33053 9.39202 6.18537C9.42627 6.0408 9.46212 5.89841 9.49622 5.75617L9.49112 5.73897L9.48427 5.72309ZM9.48825 5.14127C9.31861 5.04115 9.02086 5.07292 8.82047 5.21122C8.62066 5.34676 8.59793 5.53914 8.76699 5.64057C8.93371 5.73793 9.23262 5.70892 9.43127 5.56945C9.63064 5.431 9.65556 5.24037 9.48825 5.14127ZM10.5142 7.46005C10.8574 7.46005 11.2092 7.36547 11.474 7.08477C11.6778 6.85713 11.7712 6.51843 11.8035 6.37896C11.9089 5.91667 11.8269 5.70083 11.7238 5.56938C11.5673 5.36899 11.2907 5.30472 11.0037 5.30472C10.8312 5.30472 10.4202 5.32177 10.0991 5.61776C9.86856 5.83127 9.76202 6.121 9.69775 6.39878C9.6329 6.6818 9.55828 7.19131 10.0268 7.38092C10.1714 7.443 10.3798 7.46005 10.5142 7.46005ZM10.4874 6.41991C10.5665 6.06985 10.6599 5.77604 10.8983 5.77604C11.0852 5.77604 11.0987 5.99464 11.0157 6.34588C11.0008 6.42385 10.9326 6.71372 10.8403 6.83716C10.7759 6.92825 10.6997 6.98349 10.6155 6.98349C10.5904 6.98349 10.4413 6.98349 10.439 6.76211C10.4378 6.6528 10.4601 6.54117 10.4874 6.41991ZM12.6615 7.41503L12.6883 7.38778C12.7264 7.18622 12.7326 7.13886 12.8169 6.73079C12.859 6.53725 12.9461 6.11198 12.9871 5.96056C13.0646 5.92456 13.1397 5.88929 13.2149 5.88929C13.3873 5.88929 13.3663 6.04071 13.3594 6.10105C13.3532 6.20248 13.2899 6.53317 13.2239 6.81721L13.183 7.00055C13.1516 7.13609 13.1175 7.26755 13.0874 7.40192L13.1005 7.42873C13.4529 7.40993 13.5559 7.40993 13.8576 7.41503L13.894 7.38778C13.9469 7.07284 13.9612 6.9886 14.0603 6.5304L14.1075 6.31966C14.202 5.90751 14.2498 5.69866 14.1798 5.52844C14.1024 5.33767 13.9208 5.29161 13.7575 5.29161C13.6492 5.29161 13.4505 5.3177 13.274 5.40485C13.2109 5.43794 13.1477 5.47597 13.0856 5.51416L13.1397 5.30473L13.1107 5.26932C12.7344 5.34568 12.6484 5.35588 12.3011 5.40485L12.2744 5.42424C12.2323 5.759 12.1981 6.01055 12.0484 6.6687C11.9914 6.91121 11.9322 7.15606 11.8731 7.39798L11.8889 7.42873C12.2459 7.40993 12.3524 7.40993 12.6615 7.41503ZM15.2506 7.42866C15.2728 7.32052 15.4044 6.67956 15.4056 6.67956C15.4056 6.67956 15.5176 6.20926 15.5245 6.19221C15.5245 6.19221 15.5597 6.14324 15.595 6.12386H15.6469C16.1364 6.12386 16.6892 6.12386 17.1225 5.80513C17.4173 5.58652 17.6189 5.2637 17.7088 4.87137C17.7321 4.77519 17.7493 4.66078 17.7493 4.54638C17.7493 4.39612 17.7192 4.24747 17.632 4.13131C17.4111 3.8222 16.9711 3.81651 16.4632 3.81418C16.4616 3.81418 16.2128 3.81651 16.2128 3.81651C15.5627 3.82453 15.3019 3.8222 15.1948 3.80908C15.1858 3.85645 15.1687 3.94068 15.1687 3.94068C15.1687 3.94068 14.9358 5.02003 14.9358 5.02178C14.9358 5.02178 14.3785 7.31659 14.3523 7.42472C14.92 7.41788 15.1527 7.41788 15.2506 7.42866ZM15.6822 5.51132C15.6822 5.51132 15.9298 4.43416 15.9286 4.43824L15.9366 4.383L15.9401 4.34088L16.0391 4.35109C16.0391 4.35109 16.5498 4.39495 16.5617 4.39612C16.7633 4.47409 16.8463 4.67506 16.7883 4.93739C16.7354 5.17714 16.5799 5.37869 16.3801 5.47605C16.2156 5.55853 16.014 5.56538 15.8063 5.56538H15.672L15.6822 5.51132ZM17.2239 6.43986C17.1584 6.71881 17.0832 7.22831 17.5494 7.4099C17.6981 7.47315 17.8313 7.49195 17.9667 7.4851C18.1097 7.47738 18.2421 7.40568 18.3648 7.30249C18.3538 7.3449 18.3427 7.38731 18.3316 7.42987L18.3527 7.45712C18.6881 7.44299 18.7922 7.44299 19.1555 7.44576L19.1884 7.42069C19.2415 7.10881 19.2915 6.80596 19.4293 6.2093C19.4965 5.92351 19.5636 5.64048 19.6325 5.35586L19.6217 5.32452C19.2466 5.39404 19.1463 5.4089 18.7854 5.46006L18.7581 5.48236C18.7544 5.51136 18.7506 5.5392 18.7471 5.56703C18.691 5.47638 18.6097 5.39899 18.4842 5.35075C18.3237 5.28765 17.9469 5.36897 17.6229 5.66395C17.3952 5.87454 17.2859 6.1631 17.2239 6.43986ZM18.0117 6.45692C18.092 6.11312 18.1843 5.82222 18.4233 5.82222C18.5744 5.82222 18.654 5.96169 18.6378 6.19954C18.625 6.25886 18.6111 6.32138 18.5947 6.39206C18.5708 6.49422 18.5448 6.59551 18.5196 6.69695C18.494 6.76632 18.4641 6.83176 18.4313 6.87533C18.3698 6.96248 18.2235 7.01655 18.1392 7.01655C18.1153 7.01655 17.9679 7.01655 17.9628 6.79911C17.9616 6.69083 17.9839 6.57934 18.0117 6.45692ZM22.126 5.32174L22.097 5.28866C21.7258 5.36386 21.6586 5.37581 21.3176 5.42186L21.2925 5.44693C21.2914 5.45101 21.2903 5.45728 21.2886 5.46296L21.2874 5.45728C21.0335 6.043 21.041 5.91665 20.8343 6.37776C20.8332 6.35678 20.8332 6.34366 20.832 6.32136L20.7803 5.32174L20.7478 5.28866C20.3589 5.36386 20.3497 5.37581 19.9906 5.42186L19.9627 5.44693C19.9587 5.45888 19.9587 5.472 19.9564 5.48628L19.9587 5.49138C20.0036 5.72077 19.9928 5.66962 20.0379 6.03163C20.0588 6.20929 20.0868 6.38797 20.1078 6.56344C20.1432 6.8571 20.163 7.00167 20.2063 7.44982C19.9638 7.85002 19.9064 8.00144 19.6729 8.35268L19.6745 8.35617L19.5101 8.61617C19.4913 8.64357 19.4743 8.66237 19.4504 8.67039C19.4242 8.68336 19.39 8.68569 19.3427 8.68569H19.2516L19.1162 9.13602L19.5807 9.14404C19.8534 9.14287 20.0247 9.01535 20.117 8.84396L20.4091 8.34349H20.4044L20.4351 8.30823C20.6316 7.88529 22.126 5.32174 22.126 5.32174ZM17.2238 11.2362H17.0268L17.7561 8.82407H17.998L18.0748 8.57558L18.0822 8.85191C18.0732 9.02271 18.2076 9.17413 18.5606 9.14907H18.9688L19.1093 8.6846H18.9557C18.8673 8.6846 18.8264 8.6623 18.8315 8.6145L18.8241 8.33336H18.0681V8.33482C17.8237 8.33992 17.0938 8.35829 16.9461 8.39764C16.7672 8.44369 16.5788 8.57923 16.5788 8.57923L16.6528 8.33045H15.9457L15.7984 8.82407L15.0593 11.2731H14.9159L14.7753 11.7342H16.1837L16.1365 11.8879H16.8305L16.8765 11.7342H17.0712L17.2238 11.2362ZM16.646 9.31419C16.5327 9.34552 16.322 9.44055 16.322 9.44055L16.5094 8.82407H17.0712L16.9357 9.27324C16.9357 9.27324 16.7621 9.28344 16.646 9.31419ZM16.6568 10.1949C16.6568 10.1949 16.4803 10.217 16.3641 10.2433C16.2497 10.278 16.0352 10.3873 16.0352 10.3873L16.2287 9.74572H16.7935L16.6568 10.1949ZM16.342 11.2419H15.7784L15.9418 10.7005H16.5036L16.342 11.2419ZM17.6992 9.74572H18.5115L18.3948 10.1238H17.5717L17.4481 10.5371H18.1683L17.623 11.305C17.5848 11.3614 17.5505 11.3814 17.5125 11.3972C17.4743 11.4166 17.4242 11.4394 17.3662 11.4394H17.1664L17.0291 11.892H17.5517C17.8234 11.892 17.9838 11.7684 18.1023 11.6062L18.4763 11.0944L18.5566 11.6141C18.5736 11.7115 18.6436 11.7684 18.6909 11.7906C18.7433 11.8168 18.7973 11.8619 18.8737 11.8686C18.9556 11.8721 19.0148 11.8748 19.0541 11.8748H19.3109L19.4651 11.3682H19.3638C19.3057 11.3682 19.2055 11.3585 19.1885 11.3403C19.1714 11.3181 19.1714 11.284 19.1623 11.2321L19.0808 10.7112H18.7472L18.8935 10.5371H19.715L19.8414 10.1238H19.0808L19.1993 9.74572H19.9576L20.0982 9.2795H17.8375L17.6992 9.74572ZM10.838 11.3472L11.0276 10.7164H11.8069L11.9493 10.2473H11.1693L11.2884 9.85901H12.0506L12.1918 9.40474H10.2847L10.1464 9.85901H10.5796L10.4641 10.2473H10.0296L9.88564 10.7244H10.3188L10.0661 11.5589C10.032 11.6694 10.0821 11.7115 10.1139 11.7628C10.1464 11.8128 10.1793 11.8459 10.2533 11.8647C10.3297 11.8817 10.382 11.8919 10.4531 11.8919H11.3317L11.4882 11.3722L11.0988 11.4257C11.0236 11.4257 10.8153 11.4167 10.838 11.3472ZM10.9274 8.32761L10.7299 8.68452C10.6877 8.76249 10.6496 8.81088 10.6154 8.83318C10.5852 8.85198 10.5255 8.85985 10.4389 8.85985H10.3359L10.1981 9.31645H10.5403C10.7049 9.31645 10.8312 9.25611 10.8916 9.22594C10.9564 9.19126 10.9735 9.21108 11.0236 9.16269L11.1392 9.06257H12.2077L12.3495 8.58717H11.5674L11.7039 8.32761H10.9274ZM12.505 11.3563C12.4867 11.3301 12.4999 11.2839 12.5277 11.1877L12.8198 10.221H13.8587C14.0102 10.2188 14.1195 10.2171 14.1906 10.212C14.267 10.204 14.35 10.1767 14.4405 10.1277C14.5339 10.0764 14.5817 10.0224 14.6221 9.96028C14.6672 9.89834 14.7394 9.7628 14.8015 9.55381L15.1686 8.33048L14.0905 8.33675C14.0905 8.33675 13.7585 8.38572 13.6123 8.43978C13.4648 8.50012 13.2541 8.66859 13.2541 8.66859L13.3514 8.33325H12.6854L11.753 11.4257C11.7199 11.5458 11.6977 11.6329 11.6926 11.6853C11.6909 11.7417 11.7637 11.7975 11.811 11.8396C11.8668 11.8817 11.9493 11.8749 12.0284 11.8817C12.1116 11.888 12.23 11.8919 12.3933 11.8919H12.9052L13.0623 11.3614L12.6041 11.4047C12.5551 11.4047 12.5197 11.3785 12.505 11.3563ZM13.0082 9.5681H14.0995L14.0301 9.78554C14.0204 9.79064 13.997 9.77476 13.886 9.78787H12.941L13.0082 9.5681ZM13.2268 8.83882H14.3273L14.2482 9.10071C14.2482 9.10071 13.7295 9.09561 13.6464 9.11091C13.2809 9.17416 13.0674 9.36945 13.0674 9.36945L13.2268 8.83882ZM14.0546 10.5137C14.0455 10.5462 14.0312 10.566 14.0113 10.5809C13.9891 10.5952 13.9533 10.6003 13.8998 10.6003H13.7443L13.7535 10.3355H13.1067L13.0804 11.6301C13.0794 11.7235 13.0884 11.7775 13.1568 11.8208C13.2251 11.8749 13.4357 11.8817 13.7192 11.8817H14.1245L14.2708 11.3972L13.918 11.4166L13.8007 11.4234C13.7846 11.4166 13.7693 11.4103 13.7523 11.3932C13.7374 11.3785 13.7124 11.3875 13.7164 11.2941L13.7192 10.9623L14.0892 10.947C14.289 10.947 14.3744 10.882 14.4473 10.82C14.5168 10.7607 14.5396 10.6925 14.5658 10.6003L14.6279 10.3065H14.1194L14.0546 10.5137Z" fill="#FEFEFE"/>
</svg>
