<svg width="20" height="16" viewBox="0 0 20 16" fill="none" xmlns="http://www.w3.org/2000/svg">
<g clip-path="url(#clip0_5002_15757)">
<rect x="0.25" y="0.200195" width="19.5" height="15.6" rx="3" fill="#15195A"/>
<rect x="-0.585938" y="-0.450195" width="20.8" height="16.9" fill="#0E397A"/>
<path d="M14.4682 8.45103C14.4682 10.0219 14.1094 11.1915 13.3919 11.9557C12.6744 12.7178 11.5663 13.0999 10.0719 13.0999C8.67514 13.0999 7.61588 12.7185 6.89414 11.9557C6.17239 11.1929 5.81152 10.0424 5.81152 8.5041V3.34365C5.81152 3.22265 5.90917 3.125 6.03017 3.125H8.56263C8.68151 3.125 8.78128 3.22265 8.78128 3.34365V8.6166C8.78128 9.24494 8.89803 9.72893 9.13366 10.0686C9.55821 10.6332 10.3606 10.7457 10.9253 10.3191C11.0102 10.2554 11.0866 10.1811 11.1524 10.0983C11.3845 9.77846 11.4998 9.30721 11.4984 8.68453V7.69744H14.4682V8.45103Z" fill="white"/>
<path d="M14.2385 7.12005H11.498V3.35426C11.498 3.22689 11.6021 3.125 11.7273 3.125H12.1391C12.1391 4.4114 13.1814 5.45368 14.4678 5.45368V7.12005H14.2385Z" fill="white"/>
<path d="M12.7229 3.125H14.2386C14.3659 3.125 14.4678 3.22689 14.4678 3.35426V4.87416C13.5041 4.87416 12.7229 4.09086 12.7229 3.12712V3.125Z" fill="#EF7F1A"/>
</g>
<defs>
<clipPath id="clip0_5002_15757">
<rect x="0.25" y="0.200195" width="19.5" height="15.6" rx="3" fill="white"/>
</clipPath>
</defs>
</svg>
