<svg width="22" height="18" viewBox="0 0 22 18" fill="none" xmlns="http://www.w3.org/2000/svg">
<rect y="1" width="22" height="16" fill="#F1F1F2"/>
<path d="M18.6665 11.9134L18.4977 11.0436H16.6122L16.3123 11.9072L14.801 11.9103C15.5205 10.1267 16.2415 8.34367 16.964 6.56134C17.087 6.25902 17.3053 6.10516 17.627 6.1067C17.873 6.10902 18.2742 6.10902 18.8315 6.10747L20 11.9111L18.6665 11.9134ZM17.0367 9.85206H18.2518L17.798 7.67165L17.0367 9.85206ZM7.295 6.10593L8.8145 6.10747L6.4655 11.9142L4.92725 11.9126C4.54044 10.3789 4.15843 8.8438 3.78125 7.30747C3.70625 7.00129 3.55775 6.78711 3.272 6.68582C2.84992 6.54002 2.42588 6.40031 2 6.26675L2 6.10825H4.42775C4.84775 6.10825 5.093 6.31778 5.17175 6.74768C5.25125 7.17835 5.45075 8.27474 5.77175 10.0369L7.295 6.10593ZM10.9025 6.10747L9.701 11.9126L8.255 11.9111L9.455 6.10593L10.9025 6.10747V6.10747ZM13.835 6C14.2677 6 14.813 6.13918 15.1265 6.26675L14.873 7.47062C14.5895 7.35309 14.123 7.19459 13.7307 7.2C13.1607 7.21005 12.8083 7.4567 12.8083 7.6933C12.8083 8.07835 13.4202 8.27242 14.0502 8.69304C14.7695 9.17242 14.864 9.60309 14.855 10.0709C14.8452 11.042 14.0503 12 12.3733 12C11.6083 11.9884 11.3323 11.9219 10.7083 11.6938L10.9723 10.4374C11.6075 10.7119 11.8767 10.7992 12.4197 10.7992C12.917 10.7992 13.3438 10.592 13.3475 10.2309C13.3505 9.97423 13.1975 9.84665 12.6395 9.52964C12.0815 9.21186 11.2985 8.77191 11.309 7.88892C11.3217 6.75851 12.3605 6 13.8358 6H13.835Z" fill="#A1A5B7"/>
</svg>
