<svg width="188" height="162" viewBox="0 0 188 162" fill="none" xmlns="http://www.w3.org/2000/svg">
<path d="M173.707 89.0937C182.512 91.1289 192.439 86.56 196.593 78.5436C200.788 70.5273 198.836 59.8112 192.107 53.747C185.295 47.5997 174.288 45.7721 170.509 37.4235C166.646 28.8257 172.793 17.6526 167.684 9.71934C164.694 5.1089 158.837 3.32287 153.396 2.86598C141.06 1.82759 128.35 6.06422 119.088 14.2882C110.614 21.8062 105.049 32.3562 95.7862 38.8357C83.8656 47.1428 67.0437 47.8489 57.3659 58.6897C49.8895 67.0798 48.8096 79.9974 53.0877 90.3813C57.4074 100.765 66.3375 108.698 76.3891 113.724C86.4407 118.75 97.6137 121.076 108.704 122.821C115.183 123.817 121.912 124.607 128.142 122.613C135.037 120.411 140.395 115.095 145.795 110.277C154.102 102.883 163.115 96.3624 172.71 90.7551" fill="#F4F6F9"/>
<path d="M73.7722 84.068C74.1876 84.4003 74.8936 84.9817 75.7659 85.6879C75.8905 85.4802 76.0567 85.2725 76.2644 85.1479C77.5104 84.2757 79.1718 85.314 80.5424 86.0617C84.0314 87.8892 88.185 87.3493 92.0893 87.8892C92.4632 87.9308 92.8785 88.0138 93.2523 88.0969L93.2108 78.9176C93.0446 77.5469 93.3769 76.0516 93.9584 75.2209L93.2523 74.8055C92.0063 74.5563 90.8433 74.1825 89.6803 73.7256L90.3449 74.6809C90.5941 75.4701 89.7219 76.2178 88.9327 76.2178C88.725 76.2178 88.5588 76.1762 88.3511 76.1347L87.479 75.7193C87.3959 75.6778 87.4374 75.2624 87.5204 74.764C87.5204 74.764 87.5205 74.764 87.479 74.764C86.8559 75.1378 86.0667 75.1378 85.4022 74.9717C84.8207 74.8471 84.2807 74.5563 83.7408 74.2656C83.3669 74.1825 82.9931 74.0579 82.6608 73.8918C79.8364 72.5211 77.9673 69.489 77.7181 66.3738C77.6766 65.9585 77.6766 65.5431 77.7181 65.1693C77.635 65.0447 77.5104 64.9201 77.4273 64.754C76.8873 63.8402 76.6796 62.5941 77.2196 61.6803C77.5934 61.0158 78.2996 60.6004 79.0472 60.4758C79.1303 60.2681 79.2549 60.0189 79.338 59.8112C80.1271 57.9837 80.9163 56.0315 82.7854 55.0762C84.1976 54.3701 85.859 54.4532 87.4374 54.5778L89.5142 56.9868C88.4758 55.5331 87.3543 54.2039 86.2744 52.7917C84.2391 50.1335 86.0667 52.1687 84.4883 49.3443C82.8684 46.3953 82.1208 42.4494 83.0346 39.2096C83.4084 37.8805 84.3222 36.4683 85.6929 36.4683C86.5236 36.4683 87.2297 37.0083 87.6866 37.6728C88.1435 38.3374 88.3927 39.1265 88.6004 39.9157C92.5878 52.6256 98.4443 58.7729 109.867 65.6262L111.154 65.4185C115.266 66.54 118.464 69.7798 120.873 73.2687C123.283 76.7577 125.069 80.662 127.519 84.151C129.679 87.1831 132.296 89.8414 134.954 92.4997C135.992 91.2952 137.114 90.1737 138.277 89.0522L139.315 89.6753C140.104 82.8219 142.97 59.3544 142.97 59.3544C138.318 57.153 128.931 52.5425 128.931 52.5425C136.158 46.5614 144.092 39.5419 152.233 32.7301C158.38 27.5797 168.39 25.7521 174.039 32.6055C174.454 33.1039 174.828 33.6439 175.16 34.2254C176.863 37.1744 177.237 40.7464 176.946 44.1523C176.697 47.3921 175.866 50.5488 175.16 53.7471C177.445 53.7886 179.771 54.9101 181.058 56.8622C182.969 59.6866 182.429 63.8817 179.854 66.1662C178.525 67.3292 176.739 67.9107 174.994 67.8691C176.49 74.681 177.985 80.7867 179.688 87.1416H178.774C186.416 98.19 191.775 107.452 193.104 120.827C193.976 129.715 193.27 128.802 199.334 135.364C199.334 135.364 174.745 122.53 164.652 140.972C149.491 168.593 115.557 157.42 115.058 154.678C114.56 151.937 114.809 149.071 113.937 146.371C112.109 140.473 105.879 137.4 101.186 133.454C92.1309 125.811 89.0988 114.597 90.5941 103.216L90.6772 103.174C85.2776 103.174 79.4626 97.6086 76.3474 93.8288C74.7275 91.8767 74.1876 91.0875 73.0246 88.8446C71.8616 86.6016 72.1108 84.691 71.7785 82.1989C73.3984 83.528 72.2354 82.8219 73.7722 84.068Z" fill="white"/>
<path d="M56.0781 7.06104C56.0781 10.9654 59.2348 14.1221 63.1392 14.1221C67.0435 14.1221 70.2002 10.9654 70.2002 7.06104C70.2002 3.1567 67.0435 0 63.1392 0C59.2348 0 56.0781 3.1567 56.0781 7.06104ZM20.1499 78.0867C22.1021 78.0867 23.6804 79.6651 23.6804 81.6173C23.6804 83.5694 22.1021 85.1478 20.1499 85.1478C18.1977 85.1478 16.6194 83.5694 16.6194 81.6173C16.6194 79.6651 18.1977 78.0867 20.1499 78.0867Z" fill="#FFE945"/>
<path d="M23.4725 19.0233C23.5141 19.0233 23.5141 19.0233 23.5141 19.0233C23.4726 18.9818 23.4725 18.9818 23.4725 19.0233ZM22.8495 18.6495C22.808 18.6495 22.808 18.6495 22.8495 18.6495C22.8495 18.608 22.8079 18.608 22.8079 18.608C22.8079 18.608 22.808 18.608 22.8495 18.6495ZM24.0125 18.9402C23.971 18.9402 23.971 18.9402 24.0125 18.9402C23.971 18.9818 23.9709 18.9818 23.9709 18.9818C23.9709 18.9403 24.0125 18.9402 24.0125 18.9402ZM22.6418 20.0202C23.3479 20.3525 24.1371 20.3525 24.8016 19.8956C25.0509 20.0202 25.3416 19.9786 25.5077 19.7709C26.2969 18.8572 26.3385 17.5696 25.5909 16.6558C25.0094 15.9497 23.9294 15.6174 23.0572 15.9082C22.1849 16.2404 21.5619 17.0296 21.4788 17.9434C21.3542 18.8572 21.8526 19.6879 22.6418 20.0202ZM23.1818 17.2373L23.1402 17.2788C23.0987 17.2788 23.1403 17.2788 23.1818 17.2373ZM22.6834 18.2757C22.6834 18.2341 22.6834 18.2342 22.6834 18.2342C22.6834 18.1926 22.6834 18.1511 22.6834 18.1095C22.6834 18.1511 22.6419 18.1511 22.6834 18.068C22.6834 18.0265 22.6834 18.0265 22.6834 17.9849C22.6834 17.9434 22.7249 17.9019 22.7249 17.8603C22.7249 17.8188 22.7249 17.8188 22.7249 17.8188C22.7664 17.7773 22.7664 17.6942 22.8079 17.6942C22.8079 17.6526 22.8495 17.6111 22.8911 17.5696C22.8911 17.5696 22.9741 17.445 22.9325 17.528C22.891 17.6111 22.9326 17.528 22.9741 17.4865C23.0157 17.445 23.0156 17.445 23.0572 17.4034C23.0987 17.3619 23.0987 17.3619 23.1402 17.3204L23.1818 17.2788C23.2233 17.2373 23.3064 17.2373 23.3064 17.1958C23.348 17.1958 23.3479 17.1542 23.3895 17.1542C23.4725 17.1542 23.5141 17.1127 23.5972 17.1127H23.6386C23.6802 17.1127 23.6802 17.1127 23.7218 17.1127C23.7633 17.1127 23.8048 17.1127 23.8463 17.1127H23.9295C23.971 17.1127 24.0125 17.1127 24.054 17.1542C24.0955 17.1542 24.0956 17.1542 24.1371 17.1958C24.1787 17.1958 24.1787 17.1958 24.2202 17.2373C24.1787 17.2373 24.1787 17.2373 24.1371 17.1958C24.1787 17.1958 24.3032 17.2788 24.3863 17.3204C24.3863 17.3204 24.3863 17.3204 24.4279 17.3204C24.4279 17.3204 24.4694 17.3619 24.5109 17.3619C24.5525 17.4034 24.6355 17.4865 24.677 17.528C24.677 17.5696 24.7186 17.5696 24.7186 17.6111C24.7601 17.6527 24.7601 17.6942 24.8016 17.7357C24.8432 17.8188 24.8432 17.9019 24.8847 17.9849V18.0265V18.068C24.8847 18.1511 24.8847 18.2341 24.8847 18.3172C24.8847 18.3172 24.8847 18.3172 24.8847 18.3588C24.8847 18.4003 24.8848 18.4418 24.8432 18.4834C24.8432 18.4834 24.8017 18.6495 24.7602 18.691C24.5525 18.6495 24.3033 18.691 24.1371 18.8572C24.1371 18.8572 24.1371 18.8572 24.0956 18.8987C24.054 18.8987 24.054 18.9402 24.0125 18.9402C24.0125 18.9402 23.9709 18.9403 23.9709 18.9818C23.9709 18.9818 23.971 18.9818 23.9295 19.0233C23.9295 19.0233 23.9294 19.0233 23.8879 19.0233C23.8464 19.0233 23.7633 19.0649 23.7218 19.0649C23.7633 19.0649 23.7633 19.0649 23.6802 19.0649C23.6387 19.0649 23.5972 19.0649 23.5972 19.0649C23.5556 19.0649 23.5141 19.0649 23.4725 19.0649C23.4725 19.0649 23.4726 19.0649 23.5141 19.0649H23.4725C23.431 19.0649 23.3895 19.0649 23.3064 19.0233C23.2649 19.0233 23.2233 18.9818 23.1818 18.9818C23.1403 18.9403 23.0572 18.8987 22.9741 18.8987C22.9741 18.8987 22.9326 18.8572 22.8911 18.8572C22.8495 18.8157 22.808 18.7741 22.7664 18.7326L22.7249 18.691C22.7249 18.6495 22.6834 18.608 22.6834 18.608L22.6418 18.5249C22.6418 18.4833 22.6418 18.4834 22.6418 18.4418C22.6834 18.2757 22.6834 18.2341 22.6834 18.2757ZM22.6834 18.2757V18.3172V18.2757ZM22.6834 18.068V18.0265V18.068ZM46.5247 65.1693C46.4832 65.1693 46.4832 65.1693 46.5247 65.1693C46.5247 65.1277 46.4832 65.1277 46.4832 65.1277C46.4832 65.1277 46.4832 65.1277 46.5247 65.1693ZM47.6877 65.46C47.6462 65.46 47.6462 65.46 47.6877 65.46C47.6462 65.5015 47.6462 65.5016 47.6462 65.5016C47.6462 65.46 47.6877 65.46 47.6877 65.46ZM47.1893 65.5431C47.1478 65.5431 47.1478 65.5431 47.1478 65.5431C47.1478 65.5015 47.1478 65.5015 47.1893 65.5431ZM46.3586 64.837V64.7954V64.837ZM48.4354 66.4569C48.6846 66.5815 48.9753 66.5399 49.1415 66.3323C49.9307 65.4185 49.9722 64.1309 49.2245 63.2171C48.643 62.511 47.5631 62.1787 46.6908 62.4695C45.8186 62.8018 45.1956 63.5909 45.1126 64.5047C45.0295 65.3769 45.5279 66.2077 46.3171 66.5399C47.0232 66.8722 47.8124 66.8722 48.4354 66.4569ZM46.857 63.7571L46.8155 63.7986C46.7739 63.7986 46.8155 63.7986 46.857 63.7571ZM48.5185 64.5047V64.5462V64.5878C48.5185 64.6708 48.5185 64.7539 48.5185 64.837C48.5185 64.837 48.5185 64.837 48.5185 64.8785C48.5185 64.9201 48.5184 64.9616 48.4769 65.0031C48.4769 65.0031 48.4354 65.1693 48.3938 65.2108C48.1862 65.1693 47.9369 65.2108 47.7708 65.3769C47.7708 65.3769 47.7708 65.3769 47.7292 65.4185C47.6877 65.4185 47.6877 65.46 47.6462 65.46C47.6462 65.46 47.6047 65.46 47.6047 65.5016C47.6047 65.5016 47.6047 65.5015 47.5631 65.5431C47.5631 65.5431 47.5631 65.5431 47.5215 65.5431C47.48 65.5431 47.397 65.5846 47.3554 65.5846C47.397 65.5846 47.3969 65.5846 47.3139 65.5846C47.2723 65.5846 47.2308 65.5846 47.2308 65.5846C47.1893 65.5846 47.1477 65.5846 47.1062 65.5846C47.1062 65.5846 47.1062 65.5846 47.1478 65.5846H47.1062C47.0647 65.5846 47.0232 65.5846 46.9401 65.5431C46.8986 65.5431 46.857 65.5016 46.8155 65.5016C46.7739 65.46 46.6909 65.4185 46.6078 65.4185C46.6078 65.4185 46.5663 65.3769 46.5247 65.3769C46.4832 65.3354 46.4416 65.2939 46.4001 65.2523L46.3586 65.2108C46.3586 65.1693 46.3171 65.1277 46.3171 65.1277L46.2755 65.0446C46.2755 65.0031 46.2755 65.0031 46.2755 64.9616C46.2755 64.9201 46.2755 64.92 46.2755 64.92C46.2755 64.8785 46.2755 64.8785 46.2755 64.8785C46.2755 64.837 46.2755 64.7955 46.2755 64.7539C46.2755 64.7955 46.2339 64.7954 46.2755 64.7124C46.2755 64.6708 46.2755 64.6708 46.2755 64.6293C46.2755 64.5878 46.3171 64.5462 46.3171 64.5047C46.3171 64.4632 46.3171 64.4632 46.3171 64.4632C46.3586 64.4216 46.3586 64.3386 46.4001 64.3386C46.4001 64.297 46.4416 64.2555 46.4832 64.2139C46.4832 64.2139 46.5663 64.0893 46.5247 64.1724C46.4832 64.2555 46.5248 64.1724 46.5663 64.1309C46.6078 64.0893 46.6078 64.0893 46.6494 64.0478C46.6909 64.0063 46.6909 64.0063 46.7324 63.9647L46.774 63.9232C46.8155 63.8817 46.8985 63.8817 46.8985 63.8401C46.94 63.8401 46.9401 63.7986 46.9817 63.7986C47.0647 63.7986 47.1063 63.7571 47.1893 63.7571H47.2308C47.2724 63.7571 47.2723 63.7571 47.3139 63.7571C47.3554 63.7571 47.397 63.7571 47.4385 63.7571H47.5215C47.5631 63.7571 47.6046 63.757 47.6462 63.7986C47.6877 63.7986 47.6877 63.7986 47.7292 63.8401C47.7708 63.8401 47.7708 63.8401 47.8124 63.8817C47.7708 63.8817 47.7708 63.8817 47.7292 63.8401C47.7708 63.8401 47.8954 63.9232 47.9785 63.9647C47.9785 63.9647 47.9785 63.9647 48.0201 63.9647C48.0201 63.9647 48.0616 64.0063 48.1031 64.0063C48.1446 64.0478 48.2277 64.1309 48.2692 64.1724C48.2692 64.2139 48.3108 64.214 48.3108 64.2555C48.3523 64.297 48.3523 64.3386 48.3938 64.3801C48.4769 64.3386 48.5185 64.4216 48.5185 64.5047ZM46.3586 64.5878V64.5462V64.5878ZM26.6293 56.3637C26.9616 61.7218 29.1629 67.2876 33.1503 70.9842C35.3932 73.061 38.093 74.5148 40.5021 76.3839C42.9527 78.2945 44.8633 80.7036 46.0678 83.5695C47.2308 86.3939 47.7708 89.5506 47.3139 92.5827C46.8985 95.241 45.7356 97.9823 43.5342 99.6437C42.9112 100.142 43.5342 101.222 44.1572 100.724C45.1125 99.976 45.9432 99.1038 46.6078 98.0654C49.7229 93.2473 49.1414 86.7677 46.6908 81.825C45.3617 79.1667 43.4511 77.0069 41.1251 75.2208C38.8407 73.4764 36.307 72.0642 34.1471 70.112C30.3674 66.6645 28.2491 61.4726 27.9168 56.4053C27.6261 52.0025 28.9552 47.2259 32.735 44.6507C33.4411 46.0214 34.3549 47.2675 35.4348 48.3889C37.0962 50.0503 39.3391 51.4625 41.7897 51.421C42.9527 51.421 44.1157 51.0472 44.9879 50.258C45.9848 49.3442 46.3171 47.8905 45.9433 46.6029C45.1956 43.9862 42.4542 42.4909 39.9621 41.9924C37.6777 41.5356 35.3102 41.8679 33.2334 42.8647C31.3643 38.3373 31.8212 32.7716 34.6041 28.7426C37.7608 24.1737 43.7003 23.0523 48.8922 23.9245C53.835 24.7552 58.4038 27.2058 62.2666 30.3625C66.6279 33.9346 70.1584 38.4204 72.7752 43.4047C73.149 44.1108 74.2289 43.4877 73.8551 42.7816C73.149 41.4525 72.4014 40.1649 71.5707 38.8773C68.3724 34.0592 64.2604 29.8226 59.3177 26.7489C54.8734 24.0076 49.6399 22.1385 44.3649 22.4708C41.499 22.6369 38.5915 23.5091 36.2655 25.2536C34.0226 26.9566 32.4442 29.3656 31.6135 32.0239C30.409 35.7621 30.6167 39.9157 32.1119 43.5293C27.9168 46.2706 26.3385 51.5041 26.6293 56.3637ZM34.0641 44.6922C33.9395 44.4846 33.8148 44.2769 33.7318 44.0277C35.7255 43.0308 38.0515 42.7816 40.2114 43.3631C41.3744 43.6539 42.5373 44.1523 43.4096 44.983C44.3234 45.8137 45.071 47.0598 44.7387 48.3058C44.1157 50.5903 41.042 50.3826 39.3391 49.635C37.0962 48.7212 35.3102 46.769 34.0641 44.6922ZM54.9149 52.0856C57.1163 54.4531 59.2761 56.8622 61.4775 59.2297C62.0175 59.8112 61.1452 60.6834 60.6052 60.1019C58.4038 57.7344 56.2441 55.3253 54.0427 52.9578C53.5027 52.3763 54.3749 51.5041 54.9149 52.0856ZM55.1641 60.808C56.784 61.3895 58.4039 61.971 60.0238 62.511C60.3561 62.6356 60.5637 62.9263 60.4391 63.2586C60.3561 63.5494 59.9822 63.7986 59.6915 63.674C58.0716 63.0925 56.4517 62.511 54.8318 61.971C54.4995 61.8464 54.2919 61.5557 54.4165 61.2234C54.4995 60.9742 54.8734 60.725 55.1641 60.808Z" fill="#3F4254"/>
<path d="M71.8623 149.902C69.3286 149.735 66.795 150.109 64.4275 150.94C64.7182 149.154 64.2197 147.243 63.0983 145.831C61.2292 148.531 59.6924 151.522 58.6125 154.637C55.0405 152.601 51.4684 150.566 47.8963 148.531C47.2318 148.157 46.5672 147.742 46.1933 147.119C45.3626 145.665 46.4011 143.879 47.481 142.591C48.5609 141.304 49.7654 139.725 49.2255 138.147C47.564 138.355 45.861 138.562 44.1996 138.77C43.8673 136.818 42.9952 134.949 41.666 133.412C46.4011 130.297 53.0051 130.297 57.6987 133.495C56.6603 134.907 57.0342 137.15 58.4879 138.189C59.9416 139.227 62.1845 138.77 63.1398 137.316C67.5841 139.684 70.7408 144.377 71.2393 149.362" fill="#9ED5F0"/>
<path d="M27.1283 153.515C26.8376 153.806 26.2145 153.764 26.0483 153.266C23.3901 145.042 21.8948 136.486 20.1087 128.012C19.6103 125.728 19.1119 123.443 18.572 121.2C18.572 121.159 18.5305 121.117 18.5305 121.076C18.5305 121.034 18.5305 121.034 18.5305 120.993C18.3643 120.37 19.1535 120.037 19.5273 120.328C22.9332 120.328 26.3806 120.328 29.7865 120.328C31.2403 118.335 32.6941 116.299 34.1063 114.306C33.8571 113.932 33.7324 113.475 33.7324 113.018C33.7324 111.689 34.8124 110.609 36.1415 110.609H64.801C66.1301 110.609 67.2101 111.689 67.2101 113.018C67.2101 113.226 67.1686 113.475 67.127 113.683C67.127 113.724 67.1685 113.724 67.1685 113.766C68.2069 115.801 69.2453 117.836 70.2837 119.871C70.3667 120.079 70.3667 120.245 70.2837 120.411C73.6896 120.411 77.0955 120.411 80.5429 120.411C81.249 120.411 81.3321 121.408 80.7506 121.616C80.7506 121.699 80.7506 121.782 80.7091 121.865C78.1339 130.38 75.3094 138.853 72.2358 147.243C71.3636 149.611 70.4914 151.937 69.6191 154.263C69.453 154.72 68.9546 154.761 68.6638 154.595C68.5807 154.761 68.4146 154.927 68.1654 154.969C57.3246 156.049 46.4007 156.007 35.6015 154.72C32.7771 154.429 29.9112 154.013 27.1283 153.515ZM64.801 111.897H36.0999C35.4769 111.897 34.937 112.395 34.937 113.059C34.937 113.226 34.9785 113.392 35.0615 113.516C35.1446 113.516 35.2277 113.558 35.3108 113.599C35.4769 113.683 35.6015 113.89 35.6015 114.098C35.7261 114.181 35.8923 114.222 36.0584 114.222H64.801C65.424 114.222 65.964 113.724 65.964 113.059C65.964 112.395 65.4656 111.897 64.801 111.897ZM66.3378 114.887C65.9224 115.219 65.3825 115.427 64.801 115.427H36.0999C35.7261 115.427 35.3523 115.344 35.0201 115.178C33.774 116.922 32.5279 118.667 31.2819 120.37C35.2277 120.37 39.132 120.37 43.0779 120.411C51.0527 120.411 59.0691 120.453 67.0439 120.453C67.75 120.453 68.4561 120.453 69.1622 120.453C68.2069 118.625 67.2931 116.756 66.3378 114.887ZM39.7551 136.61C46.6915 137.109 53.6694 137.233 60.6059 137.025C61.312 133.952 62.0181 130.878 62.7242 127.805C63.1811 125.769 63.6795 123.734 64.1364 121.699C61.6027 121.699 59.0691 121.699 56.5355 121.699C50.5544 121.699 44.5317 121.657 38.5506 121.657C39.0075 126.642 39.3812 131.626 39.7551 136.61ZM59.0691 154.387C62.1012 154.263 65.1333 154.055 68.1654 153.723C68.29 153.723 68.4145 153.723 68.4976 153.806C71.6543 145.54 74.6034 137.192 77.3032 128.76C78.0509 126.434 78.7569 124.108 79.5045 121.74C74.811 121.74 70.1591 121.74 65.4656 121.699C64.3026 126.808 63.0981 131.875 61.9351 136.984C65.2164 136.859 68.4977 136.652 71.779 136.402C72.5681 136.319 72.5681 137.565 71.779 137.649C68.4146 137.939 65.0502 138.147 61.6443 138.272C61.1043 140.681 60.5228 143.09 59.9828 145.457C59.4429 147.742 58.9445 150.026 58.4046 152.311C58.2384 153.1 57.0338 152.767 57.2 151.978C58.2384 147.409 59.3183 142.882 60.3567 138.313C53.5449 138.521 46.6915 138.355 39.8797 137.898C40.0874 140.681 40.2951 143.463 40.5443 146.205C40.7104 148.531 40.918 150.815 41.0842 153.141C41.1672 153.93 39.9212 153.93 39.8381 153.141C39.4228 148.032 39.049 142.924 38.6336 137.815C37.1383 137.69 35.643 137.565 34.1478 137.399C30.6588 137.067 27.1698 136.61 23.6808 136.07C22.8917 135.946 23.224 134.741 24.0131 134.866C28.8313 135.613 33.6909 136.153 38.5506 136.527C38.3429 133.869 38.1352 131.252 37.9275 128.594C37.7614 126.268 37.5537 123.983 37.3876 121.657C35.8092 121.657 34.2309 121.657 32.6526 121.657C28.4159 121.657 24.2208 121.657 19.9842 121.616C21.9364 129.715 23.2655 137.939 25.3423 146.039C25.8822 148.115 26.4637 150.192 27.0867 152.269C37.5952 154.097 48.3529 154.844 59.0691 154.387ZM0.587059 156.713C3.12073 156.63 5.61294 156.589 8.14661 156.547C17.0767 156.464 26.0068 156.755 34.8954 157.336C35.6846 157.378 35.6846 156.132 34.8954 156.09C32.4033 155.924 29.8696 155.758 27.3775 155.633C18.4473 155.218 9.55877 155.135 0.628639 155.426C-0.202072 155.509 -0.202118 156.755 0.587059 156.713ZM25.01 160.244C30.7419 160.493 36.4322 160.784 42.1641 161.033C42.9533 161.075 42.9533 159.828 42.1641 159.787C36.4322 159.538 30.7419 159.247 25.01 158.998C24.1792 158.956 24.1792 160.202 25.01 160.244Z" fill="#3F4254"/>
<path d="M106.669 96.9022C107.084 96.2376 106.004 95.6146 105.589 96.2792C104.093 98.6052 101.601 100.142 99.0675 101.097C96.4508 102.136 93.5848 102.676 90.7604 102.593C89.9712 102.551 89.9712 103.797 90.7604 103.839C93.7925 103.922 96.8661 103.299 99.6906 102.177C102.39 101.056 105.049 99.4359 106.669 96.9022ZM177.777 58.1911C178.566 58.3573 178.234 59.5618 177.445 59.3957C175.244 58.9388 172.793 59.5203 171.049 60.974C170.799 61.1817 170.425 61.2232 170.176 60.974C169.969 60.7663 169.927 60.3094 170.176 60.1018C172.295 58.3157 175.119 57.6096 177.777 58.1911ZM150.364 70.1118C151.153 70.2364 151.942 70.2364 152.731 70.1118C152.648 70.0287 152.565 69.9041 152.524 69.7795C152.15 69.0319 152.358 68.1597 152.981 67.6612C153.438 67.2459 154.019 67.0797 154.642 67.1213C154.684 66.789 154.808 66.4567 155.057 66.2075C155.971 65.003 157.923 65.003 158.879 66.2075C159.045 66.4152 159.169 66.6644 159.294 66.8721C160.083 66.0413 160.748 65.0445 161.205 63.9646C161.495 63.2169 162.7 63.5492 162.409 64.2968C161.911 65.5429 161.163 66.6644 160.291 67.6197C160.415 67.7443 160.457 67.9104 160.498 68.0766C160.665 69.738 160.748 71.6486 159.419 72.8947C158.879 73.4347 158.131 73.767 157.342 73.6839C156.594 73.6423 155.93 73.2685 155.431 72.7285C154.974 72.2717 154.6 71.6902 154.268 71.1087C152.939 71.3994 151.568 71.4825 150.156 71.3164C149.824 71.2748 149.658 70.8595 149.741 70.5687C149.699 70.1949 150.032 70.0703 150.364 70.1118ZM153.977 68.4504C153.728 68.6165 153.521 68.8658 153.604 69.0734C153.645 69.198 153.728 69.3226 153.853 69.4057C153.936 69.4888 154.019 69.4888 154.144 69.4473C154.393 69.3642 154.642 69.4472 154.767 69.6134C155.057 69.5303 155.348 69.4057 155.639 69.2811C155.265 69.0734 155.016 68.6996 154.85 68.3258C154.517 68.3258 154.227 68.3258 153.977 68.4504ZM156.511 66.5813C156.096 66.7059 155.805 67.0797 155.847 67.4951V67.5366C156.303 67.8274 156.677 68.2427 156.926 68.6996C157.383 68.4504 157.799 68.1181 158.214 67.7858C158.172 67.4536 158.048 67.1213 157.799 66.8721C157.425 66.4982 156.968 66.4152 156.511 66.5813ZM156.262 71.8978C156.719 72.3547 157.259 72.5624 157.882 72.3547C158.422 72.1471 158.92 71.524 159.086 70.9425C159.294 70.3195 159.294 69.6134 159.252 68.9488C159.086 69.115 158.796 69.1565 158.588 69.0319C157.633 69.738 156.553 70.3195 155.39 70.7348C155.639 71.1502 155.888 71.5656 156.262 71.8978ZM158.505 40.497C158.546 40.3309 158.505 40.1647 158.422 39.9986C158.172 39.4586 157.965 38.9187 157.716 38.3787C157.633 38.2541 157.466 38.1295 157.342 38.088C157.176 38.0464 157.01 38.088 156.843 38.171C156.719 38.2541 156.594 38.3787 156.553 38.5448C156.511 38.711 156.553 38.8771 156.636 39.0433C156.885 39.5832 157.093 40.1232 157.342 40.6632C157.425 40.7878 157.591 40.9124 157.716 40.9539C157.882 40.9954 158.048 40.9539 158.214 40.8708C158.339 40.7878 158.463 40.6632 158.505 40.497ZM154.6 35.7204C154.725 35.5958 154.767 35.4297 154.767 35.2635C154.767 35.0974 154.684 34.9312 154.6 34.8066C154.559 34.7651 154.476 34.7236 154.393 34.682C154.31 34.6405 154.227 34.6405 154.144 34.6405C153.853 34.599 153.521 34.599 153.23 34.5574C153.064 34.5574 152.898 34.6405 152.773 34.7236C152.648 34.8482 152.607 35.0143 152.607 35.1805C152.607 35.3466 152.69 35.5127 152.773 35.6374C152.814 35.6789 152.898 35.7204 152.981 35.762C153.064 35.8035 153.147 35.8035 153.23 35.8035C153.521 35.845 153.853 35.845 154.144 35.8866C154.31 35.9281 154.476 35.845 154.6 35.7204ZM152.441 44.8167C152.358 45.1075 152.524 45.5228 152.856 45.5643C154.85 45.9382 156.511 47.2258 157.342 49.0949C157.466 49.3856 157.923 49.4687 158.214 49.3025C158.546 49.1364 158.588 48.7626 158.422 48.4303C157.508 46.312 155.473 44.6921 153.188 44.3183C152.856 44.3183 152.524 44.4844 152.441 44.8167ZM146.833 40.0817C146.75 40.3724 146.958 40.7878 147.249 40.8293C147.373 40.8708 147.539 40.8708 147.664 40.9124C147.747 40.9539 147.83 40.9539 147.872 40.9954L147.955 41.037C148.079 41.0785 148.204 41.1616 148.329 41.2446C148.37 41.2862 148.453 41.3277 148.495 41.3692C148.536 41.3692 148.536 41.4108 148.578 41.4108C148.702 41.4939 148.786 41.5769 148.91 41.7015C148.952 41.7431 148.993 41.8261 149.076 41.8677C149.118 41.9092 149.159 41.9923 149.201 42.0338C149.201 42.0754 149.242 42.0754 149.242 42.1169C149.284 42.1584 149.326 42.2415 149.367 42.283C149.409 42.3246 149.45 42.4076 149.45 42.4907C149.492 42.5322 149.575 42.7399 149.492 42.5738C149.575 42.7399 149.616 42.8645 149.782 42.9476C149.907 43.0307 150.115 43.0307 150.281 43.0307C150.447 42.9891 150.572 42.8645 150.655 42.7399C150.738 42.6153 150.779 42.4076 150.738 42.2415C150.447 41.5769 150.073 40.9954 149.492 40.5385C148.952 40.0816 148.287 39.7494 147.622 39.6248C147.249 39.5832 146.958 39.7494 146.833 40.0817ZM109.285 95.49C108.372 95.7808 107.541 96.3207 106.835 96.9438C106.627 97.2761 106.046 97.4007 105.755 96.9438C103.886 94.244 101.352 92.0841 98.4861 90.5473C97.0323 89.7997 95.4955 89.2182 93.9172 88.8443C92.2142 88.429 90.4697 88.3044 88.7252 88.2213C86.9392 88.1382 85.1116 88.0551 83.3256 87.6813C82.4534 87.4737 81.581 87.2244 80.7503 86.8506C79.9611 86.4768 79.255 86.0199 78.4659 85.6876C77.8013 85.4384 76.9291 85.2307 76.4307 85.8953C76.0568 86.3522 76.1815 87.0168 76.3476 87.5567C76.763 88.6782 77.5522 89.1351 78.549 89.6335C80.4596 90.6304 83.8239 92.001 83.4501 94.6593C83.3255 95.4485 82.121 95.1162 82.2456 94.327C82.3702 93.3717 81.2487 92.5825 80.5426 92.1672C79.5458 91.5026 78.4659 91.0042 77.4275 90.4642C76.306 89.8412 75.4338 88.9274 75.06 87.6813C74.6446 86.2691 75.1846 84.6077 76.763 84.2754C78.5905 83.9016 80.1689 85.3138 81.7472 85.9369C83.5333 86.643 85.4854 86.8091 87.396 86.9337C89.2651 87.0583 91.1757 87.0998 93.0033 87.4321C94.7062 87.7229 96.3262 88.2628 97.9045 88.9689C101.227 90.4642 104.176 92.8317 106.336 95.7808C109.618 93.2056 114.145 93.4548 117.634 95.6146C121.289 97.8575 123.656 101.72 125.609 105.5C127.852 100.89 130.884 96.7361 134.331 92.9563C132.711 91.3365 131.091 89.7166 129.596 87.9721C128.018 86.103 126.606 84.1508 125.318 82.074C122.826 77.962 120.749 73.4762 117.302 70.0703C115.516 68.3258 113.439 66.872 110.988 66.1659C110.864 66.1244 110.781 66.0829 110.739 65.9998C109.867 68.6166 108.205 71.0256 106.046 72.7701C103.47 74.8053 100.272 75.9268 96.9907 75.9268C96.1185 75.9268 95.2878 75.8437 94.457 75.7191C94.4155 75.8022 94.3325 75.8853 94.2909 76.0099C94.2494 76.0514 94.2079 76.1345 94.2079 76.176C94.2079 76.2176 94.2078 76.2175 94.1663 76.2591C94.1663 76.2591 94.1663 76.2591 94.1663 76.3006C94.0417 76.5914 93.9587 76.8821 93.9172 77.1729C93.9172 77.2559 93.8756 77.339 93.8756 77.4221C93.8756 77.4636 93.8756 77.5051 93.8756 77.5467C93.8756 77.5467 93.8756 77.5467 93.8756 77.5882C93.8756 77.7543 93.834 77.9205 93.834 78.0866C93.834 78.4189 93.834 78.7512 93.8756 79.0835C93.9171 79.4158 93.5433 79.7065 93.2525 79.7065C92.8787 79.7065 92.671 79.4158 92.6295 79.0835C92.5464 78.3359 92.588 77.5882 92.7541 76.8821C92.8372 76.4252 93.0033 76.0099 93.1695 75.5945H93.1279C92.4218 75.4699 91.7572 75.2622 91.0511 75.0546C91.0927 75.9683 90.3035 76.799 89.4313 76.9652C88.3098 77.1729 87.3545 76.5498 86.4822 75.9683C86.4407 75.9683 86.4407 75.9268 86.3992 75.9268C85.4023 75.9683 84.4886 75.553 83.6163 75.0961C83.4502 75.0545 83.3255 75.013 83.1594 74.9715C81.498 74.4315 80.0857 73.1855 79.0889 71.8148C78.009 70.361 77.3859 68.575 77.2198 66.789C77.1783 66.3736 77.1783 65.9998 77.1783 65.5845C76.8045 65.003 76.5137 64.3384 76.4307 63.6323C76.2645 62.3447 76.8045 61.0986 77.9675 60.4756C78.2167 60.351 78.4659 60.2679 78.7151 60.1848C79.3797 58.565 80.0857 56.862 81.3733 55.6575C82.7856 54.3283 84.5716 54.0376 86.3992 54.1206C86.233 53.8714 86.0253 53.6222 85.8592 53.3315C85.07 52.127 84.447 50.7978 83.8655 49.4687C82.9517 47.2258 82.2871 44.8167 82.2041 42.3661C82.121 40.3724 82.4533 37.8387 84.1978 36.5511C85.1531 35.845 86.3992 35.8866 87.3545 36.5511C88.4344 37.2988 88.8913 38.5448 89.2651 39.7909C89.9712 42.0338 90.7604 44.2767 91.7572 46.3951C93.4602 50.0917 95.7031 53.4561 98.5275 56.4051C101.85 59.8525 105.796 62.5939 109.908 65.0445C110.158 64.5461 110.864 64.6291 111.071 65.086C111.196 65.0445 111.32 65.0029 111.487 65.0445C115.889 66.2905 119.212 69.738 121.704 73.4347C123.158 75.5945 124.404 77.879 125.692 80.1219C126.979 82.3233 128.35 84.4416 129.97 86.3937C131.631 88.429 133.459 90.2981 135.328 92.1256C136.408 91.0042 137.488 89.8827 138.609 88.8028C138.734 88.6782 138.859 88.6367 138.983 88.6367C139.44 84.6493 139.938 80.6618 140.395 76.6744C140.977 71.9809 141.517 67.2459 142.098 62.5523C142.223 61.6801 142.306 60.8079 142.431 59.9772C138.277 57.9835 134.123 55.9482 129.97 53.913C129.555 53.7053 129.139 53.4976 128.765 53.3315C128.433 53.1653 128.35 52.5838 128.641 52.3346C133.584 48.2226 138.402 44.0275 143.261 39.874C145.836 37.6726 148.412 35.4712 150.987 33.3114C151.112 33.2283 151.236 33.1037 151.361 33.0206C152.358 28.0779 161.703 21.6399 167.103 26.2503C172.71 23.7997 181.723 28.1194 184.963 33.3114C189.117 39.9571 188.909 48.2226 186.25 53.7053C185.295 55.699 184.132 57.5681 182.845 59.3541C183.343 61.8047 182.678 64.5045 180.976 66.3736C182.097 68.2843 183.8 69.8211 185.835 70.6933C188.576 71.8979 191.858 71.7732 194.558 70.4441C195.222 70.1118 196.178 69.8211 196.51 70.4441C196.718 70.8595 196.468 71.3579 196.178 71.7732C192.273 77.3805 185.835 81.1603 179.023 81.8664V81.9079C179.48 83.6524 179.937 85.4384 180.394 87.1829C180.477 87.4737 180.352 87.7229 180.145 87.8475C184.755 93.2056 188.493 99.3528 190.861 106.082C192.066 109.487 192.855 112.976 193.312 116.549C193.685 119.664 193.851 122.862 194.558 125.936C195.347 129.508 196.925 132.789 199.791 135.156C200.414 135.655 199.5 136.569 198.919 136.029C196.385 133.91 194.724 131.044 193.81 127.888C192.938 124.856 192.689 121.699 192.356 118.584C191.982 115.095 191.401 111.689 190.363 108.324C189.283 104.835 187.829 101.43 186.043 98.2314C184.049 94.6593 181.64 91.3365 178.94 88.2628C169.013 92.9564 158.006 97.4007 146.875 94.5762C144.092 93.8701 141.434 92.7071 139.066 91.0042C139.149 91.1703 139.149 91.3365 138.983 91.5442C137.986 92.9148 138.069 94.9085 139.357 96.1131C140.603 97.2761 142.721 97.1099 143.884 95.9884C144.258 95.6146 144.923 95.9054 144.964 96.4453C144.964 97.7329 145.961 98.6467 146.999 99.2282C148.329 99.9759 149.907 100.225 151.444 100.308C154.974 100.516 158.422 99.5605 161.703 98.3144C163.614 97.5668 165.483 96.7361 167.352 95.8638C168.058 95.5315 168.723 96.6115 167.975 96.9438C164.403 98.6052 160.748 100.267 156.843 101.056C154.933 101.471 152.981 101.637 151.07 101.513C149.409 101.388 147.747 101.097 146.293 100.267C145.172 99.6436 144.258 98.7298 143.884 97.5252C142.223 98.4806 140.063 98.356 138.568 97.1099C137.031 95.8223 136.657 93.4132 137.529 91.6272C133.168 96.0715 129.264 101.014 126.606 106.663C126.564 106.788 126.481 106.829 126.398 106.912C128.516 111.066 130.427 115.552 133.708 118.958C137.031 122.405 141.641 123.817 145.878 125.769C148.079 126.766 150.364 127.929 152.358 129.425C152.358 129.425 152.358 129.383 152.399 129.383C153.562 127.389 155.224 125.936 157.051 124.565C158.92 123.111 160.748 121.74 161.994 119.664C163.198 117.67 163.946 115.427 165.151 113.433C167.352 109.654 171.339 107.245 175.742 107.12C176.78 107.078 177.777 107.203 178.774 107.411C179.563 107.577 179.231 108.781 178.442 108.615C174.621 107.743 170.426 109.114 167.726 111.98C166.23 113.599 165.358 115.635 164.444 117.587C163.531 119.539 162.492 121.45 160.914 122.945C159.294 124.482 157.383 125.686 155.763 127.182C154.808 128.054 153.977 129.092 153.313 130.214C154.061 130.837 154.808 131.543 155.431 132.29C156.594 133.703 157.466 135.323 157.716 137.15C157.965 139.019 157.55 141.262 156.303 142.716C155.639 143.464 154.684 143.92 153.687 143.754C152.731 143.547 151.984 142.757 151.527 141.927C150.53 140.099 150.281 137.732 150.405 135.696C150.53 133.91 150.987 132.166 151.735 130.546C150.032 129.258 148.121 128.262 146.293 127.348C142.347 125.437 138.069 124.191 134.539 121.45C131.008 118.667 128.807 114.596 126.813 110.65C124.82 106.705 122.95 102.468 119.877 99.2282C117.219 96.1546 113.231 94.1609 109.285 95.49ZM88.1022 75.3868C88.1437 75.3868 88.1852 75.4284 88.2267 75.4284H88.2683C88.3513 75.4699 88.4759 75.5114 88.559 75.5114C88.6005 75.5114 88.6421 75.553 88.7252 75.553H88.8083C88.8498 75.553 88.8913 75.553 88.8913 75.553C88.9328 75.553 88.9744 75.553 89.0159 75.553H89.0574C89.0574 75.553 89.0575 75.553 89.0159 75.553C89.0575 75.553 89.099 75.553 89.099 75.5114C89.1405 75.5114 89.1821 75.4699 89.2236 75.4699C89.2236 75.4699 89.2236 75.4699 89.2651 75.4699C89.3482 75.4284 89.3897 75.3868 89.4728 75.3453C89.5143 75.3038 89.5559 75.3038 89.5559 75.2622C89.5975 75.2207 89.5974 75.2207 89.639 75.1792C89.639 75.1376 89.6805 75.1376 89.6805 75.0961C89.6805 75.0545 89.6805 75.0545 89.722 75.013C89.722 75.013 89.722 74.9715 89.722 74.93C89.722 74.93 89.722 74.8884 89.722 74.8469C89.6805 74.7223 89.7221 74.5561 89.7636 74.4315C89.4729 74.3069 89.1405 74.1823 88.8497 74.0577C88.6836 74.5561 88.3099 74.9715 87.8945 75.2622C87.9776 75.3038 88.0191 75.3453 88.1022 75.3868ZM86.5238 74.473C86.9392 74.4315 87.2714 74.2654 87.5206 73.9746C87.6037 73.8915 87.6868 73.6839 87.7283 73.6008C87.7283 73.5593 87.7283 73.5593 87.7283 73.5177C87.3129 73.3101 86.9392 73.1024 86.5238 72.8532C86.4823 73.4762 86.233 74.0577 85.7346 74.4315C86.0253 74.4731 86.2746 74.5146 86.5238 74.473ZM79.9612 70.7764C80.6257 71.8563 82.2457 73.5177 83.9486 73.6839C85.1947 73.85 85.3608 72.9778 85.1947 72.0225C83.9902 71.2333 82.8271 70.4026 81.7057 69.5303C80.5842 68.6581 79.4627 67.7858 78.3828 66.8305C78.632 68.2427 79.2135 69.5719 79.9612 70.7764ZM82.2041 56.2805C81.1657 57.2358 80.5842 58.565 80.0442 59.811C81.7472 59.9356 83.3671 61.1817 84.6131 62.3862L84.6547 62.4277C84.6547 62.3862 84.6962 62.3862 84.6962 62.3447C85.1946 61.3063 85.9423 60.351 86.9806 59.811C88.0606 59.2295 89.2651 59.2295 90.4281 59.5618C89.8051 58.4404 88.9744 57.3604 88.1852 56.3636C87.8945 55.9898 87.6037 55.6159 87.3129 55.2421C85.5269 55.0344 83.6163 54.9929 82.2041 56.2805ZM89.7636 62.5523C89.7221 62.5523 89.6805 62.5523 89.639 62.5523C89.5144 62.5939 89.4313 62.5939 89.3067 62.6354C89.2651 62.6354 89.099 62.7185 89.2236 62.677C89.1821 62.677 89.1405 62.7185 89.099 62.7185C89.0159 62.76 88.8913 62.8431 88.8083 62.8847C88.7667 62.9262 88.7252 62.9262 88.7252 62.9677C88.7252 62.9677 88.6421 63.0092 88.6421 63.0508C88.4759 63.1754 88.3514 63.3415 88.1852 63.5077C88.1437 63.5492 88.1437 63.5908 88.1022 63.6323C88.0606 63.7154 87.9775 63.7984 87.936 63.8815C87.8944 63.9646 87.8529 64.0476 87.8113 64.1307C87.8113 64.1307 87.8113 64.1307 87.8113 64.1722C87.8113 64.2138 87.7699 64.2553 87.7699 64.2553C87.7283 64.3799 87.6868 64.5045 87.6868 64.6291C87.936 64.7122 88.1852 64.7953 88.4344 64.8368C89.4728 65.0029 90.6358 64.5876 91.0511 63.5907V63.5492C91.0927 63.4246 91.1342 63.3 91.1758 63.1754C91.2173 63.0508 91.2588 62.9262 91.3419 62.8847C91.3419 62.8016 91.3834 62.76 91.3834 62.677C91.3004 62.7185 91.1757 62.7185 91.0511 62.677C90.9265 62.6354 90.7604 62.5939 90.6358 62.5523L90.4697 62.5108C90.4281 62.5108 90.3866 62.5108 90.3451 62.5108C90.2205 62.5108 90.0959 62.5108 89.9713 62.5108C89.8882 62.5524 89.7221 62.5523 89.7636 62.5523ZM87.8113 62.137C88.8082 61.3478 90.0543 61.1401 91.2588 61.514C91.2173 61.3894 91.1757 61.2232 91.1342 61.0986C91.0927 61.0986 91.0512 61.0986 90.9681 61.0571C89.7636 60.5587 88.3929 60.3094 87.2299 61.0986C86.4407 61.597 85.9008 62.5108 85.5685 63.3415C85.8592 63.5907 86.15 63.84 86.4408 64.0476C86.7315 63.3 87.2299 62.5939 87.8113 62.137ZM99.0259 58.5234C96.16 55.8652 93.7095 52.75 91.8404 49.261C90.802 47.3919 89.9297 45.3982 89.182 43.4045C88.7667 42.3246 88.3929 41.2031 88.0606 40.0817C87.7283 39.0017 87.313 37.3819 86.0254 37.1326C84.9039 36.8834 84.1563 38.0879 83.824 38.9602C83.5333 39.7909 83.4086 40.7047 83.4086 41.6185C83.4086 44.0275 84.0316 46.395 84.9039 48.638C85.4438 50.0502 86.1499 51.3793 86.9806 52.6669C87.8113 53.9545 88.7667 55.1175 89.722 56.2805C90.5943 57.402 91.425 58.6065 92.048 59.9356C92.6711 61.3063 92.9203 62.5939 92.2557 63.923C91.965 64.8368 91.2173 65.5429 90.3035 65.9167C89.2236 66.3321 88.0606 66.2075 86.9806 65.7506C85.7761 65.2106 84.7793 64.2553 83.824 63.3415C82.9102 62.4693 81.9134 61.514 80.6258 61.1817C79.712 60.9325 78.4659 61.0986 77.8844 61.9293C77.0952 63.0508 77.8844 64.5045 78.7151 65.3768C79.6289 66.3736 80.7504 67.1628 81.8303 67.9935C82.9102 68.8242 83.9485 69.6965 85.1115 70.4441C95.1631 76.8406 104.093 74.1823 107.748 69.1565C108.454 68.2012 109.036 67.1628 109.451 66.0413C105.755 63.84 102.183 61.4309 99.0259 58.5234ZM153.687 94.0363C159.169 94.1194 164.527 92.7071 169.636 90.7965C172.585 89.675 175.451 88.3874 178.276 87.0168C178.359 86.726 178.65 86.5183 178.94 86.5183C177.362 80.5788 175.908 74.5976 174.579 68.575C174.579 68.5335 174.579 68.5335 174.579 68.4919C172.959 68.3673 171.422 67.7858 170.176 66.7059C169.927 66.4982 169.886 66.0829 170.093 65.8337C170.301 65.5845 170.716 65.5429 170.966 65.7506C173.292 67.7443 177.196 67.7443 179.522 65.7091C181.848 63.6738 182.346 59.811 180.602 57.2358C178.899 54.6606 175.119 53.6638 172.336 55.0344C172.045 55.2006 171.672 55.076 171.505 54.7437C171.339 54.4529 171.464 54.0791 171.796 53.913C172.087 53.7468 172.419 53.6638 172.751 53.5392C172.627 51.8777 172.544 50.2163 172.585 48.5964L172.295 47.5996C170.01 47.8072 167.726 47.0181 165.607 46.0628C163.198 44.9413 160.789 43.4045 159.585 41.037C158.588 39.0433 158.546 36.6757 159.045 34.4744C159.46 32.6053 160.291 30.8608 161.122 29.1578C160.166 29.3655 159.252 29.6147 158.38 29.947C156.303 30.6946 154.351 31.8576 152.69 33.2283C150.198 35.3051 147.706 37.4234 145.255 39.5417C140.188 43.8614 135.203 48.2226 130.095 52.4592C133.293 54.0376 136.491 55.5744 139.731 57.1527C140.935 57.7342 142.14 58.3157 143.344 58.8972C143.511 58.9803 143.677 59.2295 143.635 59.4372C143.303 62.2201 142.971 65.003 142.638 67.7858C142.015 72.9362 141.392 78.1282 140.769 83.2786C140.52 85.4384 140.271 87.5983 140.022 89.7581C140.022 89.8412 139.98 89.9243 139.938 90.0073C143.967 92.7487 148.827 93.9947 153.687 94.0363ZM138.692 90.5888C138.692 90.5888 138.692 90.5473 138.651 90.5473C138.609 90.5058 138.568 90.5058 138.526 90.4642C138.526 90.4227 138.485 90.4227 138.485 90.3811C138.443 90.4227 138.402 90.4642 138.36 90.5058C138.485 90.5058 138.609 90.5473 138.692 90.5888ZM151.693 137.981C151.818 138.936 152.025 139.933 152.441 140.805C152.773 141.511 153.396 142.425 154.31 142.342C155.224 142.217 155.805 141.179 156.054 140.431C156.345 139.559 156.511 138.645 156.511 137.732C156.47 136.112 155.763 134.616 154.808 133.329C154.185 132.54 153.479 131.834 152.731 131.169C152.607 131.418 152.524 131.709 152.399 131.958C151.693 133.869 151.402 135.946 151.693 137.981ZM152.441 115.095C152.025 115.386 151.527 115.51 151.028 115.469C150.987 115.676 150.945 115.842 150.862 116.05C150.239 117.338 148.536 118.085 147.166 118.085C145.837 118.085 144.466 117.13 144.424 115.759C143.427 115.469 142.555 114.679 142.347 113.475C142.181 112.353 142.597 111.232 143.552 110.609C144.134 110.194 144.881 110.069 145.587 110.152C145.712 108.657 147.207 107.452 148.744 108.117C149.99 107.66 151.319 107.535 152.399 108.408C153.313 109.155 153.77 110.65 153.147 111.689C153.811 112.769 153.562 114.347 152.441 115.095ZM151.859 111.232C152.482 110.692 152.067 109.695 151.444 109.28C150.945 108.948 150.405 108.948 149.824 109.072C150.156 109.612 150.281 110.235 150.073 110.858C149.741 111.897 148.661 112.686 147.581 112.561C147.249 112.52 146.958 112.312 146.958 111.938C146.958 111.647 147.249 111.274 147.581 111.315C148.619 111.44 149.325 110.235 148.619 109.529C148.329 109.654 148.079 109.82 147.872 109.944C147.498 110.194 147.124 109.944 146.999 109.612C146.792 109.903 146.667 110.318 146.875 110.692C147.124 111.232 146.584 111.855 146.003 111.564C144.798 110.9 143.344 111.938 143.552 113.267C143.677 113.973 144.175 114.43 144.715 114.555C145.255 113.766 146.335 113.392 147.207 113.932C147.581 114.139 147.623 114.596 147.332 114.929C146.875 115.427 146.252 115.718 145.67 115.842C145.836 116.632 146.75 116.922 147.456 116.839C148.204 116.756 149.118 116.382 149.575 115.759C149.741 115.552 149.824 115.344 149.824 115.095C149.367 114.804 148.952 114.389 148.744 113.849C148.578 113.516 148.952 113.018 149.325 113.06C150.073 113.143 150.572 113.6 150.862 114.181C151.195 114.223 151.527 114.181 151.776 114.015C152.358 113.558 152.316 112.603 151.818 112.104C151.61 111.897 151.61 111.44 151.859 111.232ZM71.0726 83.0294C71.4049 85.3138 72.0695 87.5983 73.0248 89.7166C76.2645 96.6945 82.9933 100.765 89.722 103.88C89.099 108.864 89.3897 113.973 90.8435 118.791C92.1311 123.111 94.3325 127.099 97.323 130.463C98.8599 132.207 100.563 133.744 102.39 135.156C104.135 136.486 105.921 137.732 107.624 139.102C109.244 140.431 110.822 141.844 112.027 143.588C113.397 145.623 113.937 147.908 114.145 150.317C114.353 152.767 114.394 155.26 115.432 157.544C116.263 159.413 117.758 161.075 119.794 161.573C120.583 161.781 120.915 160.576 120.126 160.368C117.842 159.787 116.554 157.586 115.972 155.426C115.225 152.601 115.557 149.611 114.809 146.745C113.73 142.591 110.448 139.642 107.167 137.15C105.464 135.863 103.719 134.658 102.058 133.287C100.314 131.834 98.6937 130.214 97.2815 128.428C91.8403 121.574 89.9712 112.769 90.9265 104.212C91.4249 104.088 91.7157 103.34 91.1342 103.091C89.0574 102.177 87.0222 101.18 85.0701 100.017C81.9134 98.1898 78.9228 95.9884 76.6383 93.0809C74.2293 90.0489 72.8586 86.3937 72.2771 82.614C72.1525 81.9079 70.948 82.2402 71.0726 83.0294Z" fill="#3F4254"/>
<path d="M64.6342 66.166C64.6342 63.6738 67.5832 62.3032 69.4939 63.9646L88.8079 80.7034C89.4309 81.2434 89.8047 82.0741 89.8047 82.9048V87.0168C89.0155 86.9753 88.2263 86.9337 87.3956 86.8922C85.485 86.7676 83.5329 86.6014 81.7468 85.8953C80.1685 85.2723 78.5901 83.8186 76.7626 84.2339C76.0149 84.4001 75.5165 84.8154 75.2258 85.3969L72.2351 82.8217C72.2351 82.7802 72.2352 82.7386 72.1937 82.6971C72.1521 82.3233 71.8614 82.1987 71.5706 82.2402L65.548 77.0483C64.925 76.5083 64.5511 75.6776 64.5511 74.8469L64.6342 66.166Z" fill="#9ED5F0"/>
<path d="M77.3868 84.7323C76.0992 83.7354 74.8116 82.697 73.524 81.7002C71.5718 80.1634 69.5366 78.6681 67.6259 77.0482C67.1275 76.6328 66.6706 76.1759 66.5045 75.5114C66.2968 74.6807 66.463 73.7669 66.5045 72.8946C66.6706 69.9872 66.7952 67.1212 66.9613 64.2137C67.0029 63.4245 68.2489 63.4245 68.2074 64.2137C68.0828 66.7058 67.9582 69.1564 67.8336 71.6486C67.7921 72.687 67.6674 73.7253 67.6674 74.7637C67.6674 75.3452 67.9582 75.636 68.3736 76.0098C70.2012 77.5466 72.1118 78.9588 73.9809 80.4126C75.9331 81.9494 77.8852 83.4862 79.8789 85.023" fill="#3F4254"/>
</svg>
