<svg width="28" height="22" viewBox="0 0 28 22" fill="none" xmlns="http://www.w3.org/2000/svg">
<g clip-path="url(#clip0_2167_7296)">
<rect width="28" height="22" rx="4" fill="white"/>
<rect x="-0.286133" width="29" height="22" fill="#F1F1F2"/>
<path fill-rule="evenodd" clip-rule="evenodd" d="M19.3265 3.01486C19.402 3.02769 19.4527 3.03947 19.5251 3.061C19.5559 3.07016 19.5971 3.08205 19.6167 3.08742C19.6363 3.09278 19.6844 3.1109 19.7236 3.12768C19.7628 3.14445 19.8155 3.16691 19.8407 3.1776C19.8659 3.18827 19.9186 3.2152 19.9578 3.23745C19.997 3.25969 20.0536 3.29175 20.0835 3.30869C20.1135 3.32563 20.1501 3.35071 20.165 3.36442C20.1799 3.37813 20.2081 3.40025 20.2277 3.41358C20.2473 3.42691 20.2656 3.44048 20.2684 3.44373C20.2712 3.44699 20.2895 3.46057 20.3091 3.4739C20.3551 3.50519 20.4803 3.62722 20.5124 3.67207C20.5261 3.69119 20.5446 3.71352 20.5535 3.72171C20.5624 3.7299 20.5809 3.75224 20.5946 3.77135C20.6083 3.79046 20.631 3.81794 20.645 3.83243C20.6679 3.85593 20.7003 3.90692 20.8401 4.13928C20.8617 4.1751 20.8793 4.20988 20.8793 4.21655C20.8793 4.22323 20.8907 4.25056 20.9046 4.27729C20.9185 4.30401 20.9409 4.35635 20.9543 4.39361C20.9678 4.43086 20.9837 4.47474 20.9896 4.49113C21.0191 4.57267 21.0451 4.66609 21.0626 4.75421C21.0675 4.77879 21.0768 4.81899 21.0833 4.84357C21.0898 4.86814 21.0992 4.92175 21.1041 4.9627C21.109 5.00365 21.1183 5.07067 21.1248 5.11162C21.1401 5.2073 21.1502 15.4918 21.1351 15.5458C21.1298 15.5649 21.1208 15.5984 21.1152 15.6203C21.0855 15.736 21.0474 15.8333 21.0052 15.9015C20.9792 15.9434 20.9549 15.9799 20.9512 15.9827C20.9475 15.9854 20.9334 16.0033 20.9197 16.0224C20.8279 16.1507 20.625 16.2851 20.4415 16.3389C20.3995 16.3513 20.3511 16.3655 20.3339 16.3706C20.3159 16.3759 19.9896 16.3798 19.5664 16.3798C18.8495 16.3798 18.8285 16.3792 18.7627 16.3591C18.6848 16.3353 18.6464 16.3227 18.6036 16.3067C18.5665 16.2928 18.4109 16.2028 18.3867 16.1813C18.3772 16.1728 18.3533 16.1549 18.3337 16.1416C18.2894 16.1114 18.2829 16.1051 18.2524 16.0621C18.2389 16.043 18.2201 16.0205 18.2106 16.0122C18.2012 16.0039 18.168 15.9553 18.1368 15.9042C18.0854 15.8197 18.0565 15.7515 18.0251 15.6401C18.0171 15.6119 18.0123 14.8364 18.0083 12.9646L18.0028 10.3287L17.6261 10.3211C17.4188 10.3169 16.7521 10.3091 16.1445 10.3038C15.5369 10.2985 14.7396 10.2896 14.3728 10.2841C14.0059 10.2786 13.3965 10.2697 13.0185 10.2644C12.6405 10.259 12.2579 10.2535 12.1683 10.252L12.0053 10.2493L12.0076 10.4628C12.0099 10.6823 12.0225 10.9803 12.0407 11.2421C12.0674 11.6282 12.0832 11.8269 12.1019 12.009C12.1076 12.065 12.1167 12.1543 12.1221 12.2076C12.1276 12.2608 12.1368 12.3424 12.1427 12.3888C12.1486 12.4352 12.1577 12.5111 12.1629 12.5575C12.168 12.6039 12.1773 12.671 12.1835 12.7065C12.1897 12.7419 12.1988 12.809 12.2037 12.8554C12.2086 12.9018 12.2178 12.9643 12.2242 12.9944C12.2306 13.0244 12.2398 13.0825 12.2446 13.1234C12.2495 13.1644 12.2586 13.2225 12.2648 13.2525C12.271 13.2825 12.2803 13.3317 12.2854 13.3617C12.2905 13.3917 12.2996 13.4409 12.3057 13.4709C12.3118 13.5009 12.321 13.5501 12.3261 13.5801C12.3347 13.6308 12.3392 13.6542 12.3668 13.7886C12.3724 13.8159 12.3813 13.8595 12.3865 13.8854C12.3918 13.9113 12.4013 13.9527 12.4077 13.9772C12.4141 14.0018 12.4228 14.0465 12.427 14.0765C12.4313 14.1065 12.4423 14.1512 12.4516 14.1758C12.4608 14.2004 12.4684 14.2313 12.4685 14.2446C12.4686 14.2694 12.4722 14.2829 12.5085 14.3955C12.5202 14.4317 12.5297 14.472 12.5297 14.485C12.5297 14.498 12.5389 14.5331 12.5501 14.563C12.5613 14.5928 12.5705 14.6298 12.5705 14.6451C12.5705 14.6604 12.5796 14.6905 12.5908 14.7119C12.602 14.7333 12.6112 14.7585 12.6112 14.7679C12.6112 14.7773 12.6154 14.7987 12.6206 14.8154C12.6514 14.9148 12.7158 15.1181 12.7239 15.1413C12.7291 15.1563 12.738 15.182 12.7436 15.1984C12.7492 15.2147 12.7583 15.2415 12.7639 15.2579C12.7695 15.2743 12.7787 15.3011 12.7843 15.3175C12.8334 15.4611 12.8666 15.5481 12.8872 15.5876C12.8987 15.6095 12.9163 15.6527 12.9264 15.6835C12.9365 15.7142 12.9609 15.7729 12.9805 15.8139C13.0002 15.8548 13.031 15.9219 13.049 15.9628C13.1285 16.1435 13.1885 16.2581 13.2948 16.4326C13.3336 16.4961 13.3365 16.5889 13.3011 16.6291C13.2408 16.6974 13.1452 16.7168 13.057 16.6787C13.033 16.6683 12.9882 16.65 12.9574 16.6379C12.9266 16.6258 12.8808 16.6068 12.8556 16.5957C12.8304 16.5846 12.7874 16.5674 12.7602 16.5575C12.7329 16.5476 12.6802 16.5221 12.6431 16.5008C12.6059 16.4796 12.5412 16.4427 12.4992 16.419C12.4179 16.3729 12.2735 16.2815 12.265 16.2706C12.2622 16.267 12.2301 16.2447 12.1937 16.2209C12.1573 16.1971 12.1207 16.1704 12.1123 16.1616C12.1039 16.1528 12.0809 16.1347 12.0613 16.1215C12.0417 16.1083 12.0097 16.0815 11.9901 16.0621C11.9705 16.0426 11.9384 16.0157 11.9188 16.0023C11.8726 15.9706 11.6258 15.73 11.5932 15.6848C11.5794 15.6657 11.5472 15.63 11.5217 15.6054C11.4962 15.5808 11.4642 15.5451 11.4506 15.526C11.437 15.5069 11.4186 15.4845 11.4097 15.4763C11.4007 15.4681 11.3824 15.4458 11.369 15.4267C11.3555 15.4076 11.3417 15.3897 11.3384 15.387C11.3351 15.3843 11.3213 15.3664 11.3078 15.3473C11.2944 15.3282 11.2806 15.3103 11.2773 15.3076C11.274 15.3048 11.2602 15.287 11.2468 15.2679C11.2333 15.2487 11.2193 15.2309 11.2157 15.2281C11.2122 15.2254 11.1591 15.1495 11.0978 15.0594C10.9988 14.9139 10.9282 14.8017 10.798 14.5828C10.7526 14.5064 10.4887 13.9838 10.4434 13.8804C10.426 13.8408 10.3985 13.7783 10.3824 13.7414C10.3662 13.7046 10.3433 13.651 10.3314 13.6223C10.2945 13.5326 10.2675 13.4676 10.2481 13.4213C10.2095 13.3291 10.077 12.9458 10.0061 12.7213C9.98368 12.6504 9.95297 12.5543 9.93786 12.5079C9.92274 12.4615 9.90613 12.4056 9.90096 12.3838C9.89167 12.3446 9.88043 12.3001 9.86147 12.2274C9.85613 12.207 9.84739 12.1735 9.84204 12.153C9.8367 12.1325 9.82732 12.0956 9.82121 12.0711C9.80896 12.0218 9.79518 11.9679 9.77938 11.9073C9.77368 11.8854 9.76501 11.8474 9.76012 11.8229C9.75522 11.7983 9.74605 11.7581 9.73975 11.7335C9.73345 11.709 9.724 11.6676 9.71874 11.6417C9.7135 11.6158 9.70462 11.5722 9.69902 11.5449C9.69342 11.5176 9.68426 11.4729 9.67866 11.4456C9.65106 11.3111 9.64649 11.2877 9.63746 11.2346C9.63211 11.2033 9.623 11.1496 9.61721 11.1155C9.61141 11.0814 9.6024 11.0244 9.5972 10.9889C9.59199 10.9534 9.58275 10.8954 9.57666 10.8599C9.57057 10.8244 9.56134 10.7574 9.55617 10.7109C9.55099 10.6645 9.5419 10.5886 9.53597 10.5422C9.53004 10.4958 9.52085 10.4109 9.51554 10.3535C9.51023 10.2962 9.50098 10.2024 9.495 10.1451C9.45239 9.73714 9.45243 8.39186 9.49506 8.03042C9.50117 7.97855 9.51037 7.88473 9.51549 7.82193C9.52063 7.75914 9.52981 7.67426 9.53592 7.6333C9.54202 7.59235 9.55119 7.52087 9.5563 7.47446C9.56141 7.42804 9.57057 7.36103 9.57666 7.32554C9.58275 7.29005 9.59199 7.23197 9.5972 7.19648C9.6024 7.16098 9.61141 7.10403 9.61721 7.0699C9.623 7.03577 9.63211 6.98216 9.63746 6.95076C9.64831 6.88704 9.65863 6.83476 9.69871 6.64051C9.70378 6.61594 9.71308 6.57573 9.71939 6.55116C9.72569 6.52659 9.73446 6.48638 9.73887 6.46181C9.74328 6.43724 9.75438 6.39703 9.76354 6.37246C9.77269 6.34789 9.78025 6.3172 9.78033 6.30427C9.78041 6.29133 9.78933 6.25336 9.80013 6.21988C9.81095 6.1864 9.82505 6.13891 9.83147 6.11434C9.84279 6.07113 9.91455 5.83982 9.9339 5.78423C9.93912 5.76921 9.94798 5.74353 9.95358 5.72715C9.97696 5.65876 9.9877 5.62909 10.0147 5.55837C10.0303 5.51742 10.0527 5.46046 10.0645 5.43179C10.0763 5.40312 10.0956 5.35622 10.1074 5.32755C10.1192 5.29888 10.1352 5.25869 10.143 5.23822C10.1685 5.17101 10.3727 4.78056 10.4116 4.72459C10.4325 4.69447 10.457 4.65573 10.4661 4.6385C10.4752 4.62127 10.4886 4.60117 10.4959 4.59383C10.5032 4.58648 10.5203 4.56484 10.5338 4.54573C10.5474 4.52662 10.5612 4.50875 10.5645 4.50602C10.5679 4.50329 10.5816 4.48542 10.5951 4.46631C10.6085 4.44719 10.6269 4.42486 10.6358 4.41667C10.6447 4.40848 10.6633 4.38614 10.677 4.36703C10.7093 4.3219 10.9765 4.06143 11.0227 4.0299C11.0423 4.01653 11.0653 3.99847 11.0737 3.98977C11.0821 3.98106 11.105 3.96319 11.1246 3.95007C11.1442 3.93693 11.1625 3.92337 11.1653 3.91991C11.1732 3.91015 11.3452 3.79925 11.43 3.74918C11.5057 3.70454 11.6745 3.62289 11.8119 3.56442C11.8754 3.53738 11.926 3.51861 12.0257 3.48501C12.0957 3.46145 12.2322 3.42082 12.2701 3.41228C12.2925 3.40724 12.3291 3.39857 12.3515 3.39302C12.3739 3.38746 12.4129 3.37901 12.4381 3.37424C12.4633 3.36946 12.5045 3.36032 12.5297 3.35393C12.5979 3.33665 12.693 3.3309 12.7057 3.34329C12.7135 3.35086 12.7075 3.38195 12.6851 3.45095C12.6678 3.50431 12.6438 3.58148 12.6317 3.62243C12.6197 3.66339 12.6056 3.70918 12.6003 3.7242C12.5951 3.73921 12.5865 3.76379 12.5813 3.7788C12.5724 3.8043 12.5633 3.83728 12.5383 3.93516C12.5327 3.957 12.5197 4.00391 12.5094 4.03941C12.4991 4.0749 12.4854 4.12404 12.4789 4.14861C12.4725 4.17318 12.4584 4.22068 12.4476 4.25416C12.4368 4.28763 12.4278 4.32561 12.4278 4.33854C12.4277 4.35148 12.4201 4.38217 12.411 4.40674C12.4018 4.43131 12.3907 4.47152 12.3863 4.49609C12.3819 4.52066 12.3731 4.56087 12.3668 4.58544C12.3605 4.61001 12.3514 4.65022 12.3465 4.67479C12.3416 4.69936 12.3323 4.73957 12.3259 4.76414C12.3196 4.78871 12.3103 4.83339 12.3054 4.86342C12.2932 4.9379 12.2787 5.00858 12.2647 5.06198C12.2583 5.08655 12.2491 5.13569 12.2443 5.17119C12.2395 5.20668 12.2305 5.26029 12.2242 5.29032C12.2179 5.32035 12.2088 5.37843 12.2039 5.41938C12.199 5.46034 12.1898 5.51841 12.1835 5.54845C12.1771 5.57848 12.1677 5.64102 12.1627 5.68744C12.1576 5.73385 12.1487 5.8098 12.1428 5.85621C12.1263 5.98726 12.1127 6.11054 12.1034 6.21361C12.0987 6.26549 12.092 6.31686 12.0885 6.32779C12.0819 6.34876 12.0743 6.45702 12.0617 6.71001C12.0574 6.79464 12.0512 6.87506 12.0477 6.88871C12.0353 6.93762 12.0281 7.21942 12.0269 7.7028L12.0257 8.19423L13.5123 8.2017C14.33 8.20582 15.6748 8.21029 16.5009 8.21163L18.0028 8.21408L18.0102 7.73258C18.0143 7.46776 18.0224 7.11482 18.0281 6.94828C18.0709 5.71171 18.0712 4.84775 18.0292 4.53084C17.9974 4.2916 17.9946 4.27701 17.959 4.17241C17.9265 4.07664 17.8793 3.99398 17.8296 3.94547C17.7573 3.87499 17.7124 3.85669 17.5573 3.83434C17.5283 3.83015 17.5191 3.82424 17.5191 3.80958C17.5191 3.78752 17.6116 3.64964 17.6512 3.61251C17.6658 3.59886 17.689 3.57205 17.7027 3.55294C17.7348 3.50818 17.8197 3.42551 17.8653 3.39445C17.8849 3.38112 17.9079 3.36297 17.9163 3.3541C17.9344 3.33498 18.0551 3.25622 18.1569 3.19713C18.2381 3.15 18.2842 3.13137 18.461 3.07445C18.6344 3.01861 18.6413 3.01685 18.6858 3.01668C18.7078 3.0166 18.7326 3.01212 18.741 3.00672C18.7608 2.99404 19.2436 3.00075 19.3265 3.01486ZM9.04793 5.88947C9.04292 5.90231 9.00637 5.97597 8.96671 6.05317C8.92704 6.13037 8.8882 6.21034 8.88039 6.23088C8.87258 6.25141 8.85601 6.29279 8.84355 6.32282C8.82237 6.37391 8.7445 6.59864 8.70033 6.73613C8.68957 6.76961 8.68071 6.80758 8.68062 6.82052C8.68054 6.83345 8.67293 6.86414 8.66369 6.88871C8.65447 6.91328 8.64329 6.95796 8.63885 6.98799C8.63442 7.01802 8.62579 7.06716 8.61968 7.0972C8.60292 7.17957 8.58931 7.26243 8.5785 7.34788C8.57315 7.3902 8.56403 7.46167 8.55822 7.50672C8.55243 7.55177 8.5433 7.63554 8.53795 7.69287C8.53259 7.7502 8.52337 7.84849 8.51745 7.91128C8.49608 8.13775 8.48638 8.51324 8.48617 9.12249C8.48597 9.7174 8.49349 9.9619 8.51764 10.1451C8.52376 10.1915 8.53296 10.2764 8.53809 10.3337C8.54322 10.391 8.55213 10.4692 8.55791 10.5074C8.56784 10.5733 8.5767 10.6341 8.59874 10.7879C8.60402 10.8248 8.61345 10.8795 8.61968 10.9095C8.62591 10.9395 8.63508 10.9931 8.64005 11.0286C8.64502 11.0641 8.65413 11.1177 8.6603 11.1478C8.66647 11.1778 8.67554 11.227 8.68046 11.257C8.68538 11.287 8.69463 11.3317 8.701 11.3563C8.70738 11.3808 8.71689 11.4222 8.72215 11.4481C8.72739 11.474 8.73599 11.5165 8.74123 11.5424C8.74648 11.5683 8.75593 11.6097 8.76224 11.6342C8.76854 11.6588 8.7777 11.699 8.7826 11.7236C8.7875 11.7482 8.79666 11.7884 8.80297 11.8129C8.80927 11.8375 8.81812 11.8777 8.82264 11.9023C8.82715 11.9269 8.83868 11.9715 8.84825 12.0016C8.85782 12.0316 8.86988 12.0729 8.87504 12.0934C8.88717 12.1415 8.90199 12.1993 8.91578 12.2523C8.93343 12.3201 8.98524 12.497 9.03714 12.6667C9.07543 12.7919 9.30168 13.4545 9.34055 13.5553C9.3574 13.599 9.38107 13.6615 9.39315 13.6943C9.4167 13.7582 9.44015 13.8151 9.48519 13.9177C9.50077 13.9531 9.52368 14.0068 9.5361 14.0368C9.55848 14.0909 9.58456 14.1511 9.6479 14.2949C9.68881 14.3878 9.98137 14.9619 10.0327 15.0501C10.0923 15.1523 10.3848 15.5935 10.401 15.6054C10.4047 15.6081 10.4187 15.626 10.4322 15.6451C10.4456 15.6642 10.4594 15.6821 10.4627 15.6848C10.466 15.6876 10.4798 15.7054 10.4934 15.7245C10.5069 15.7436 10.5297 15.7705 10.5442 15.7841C10.5586 15.7978 10.5815 15.8246 10.5951 15.8437C10.6086 15.8628 10.6315 15.8896 10.646 15.9032C10.6604 15.9169 10.6835 15.9437 10.6972 15.9628C10.7298 16.008 11.0986 16.3676 11.1449 16.3993C11.1645 16.4127 11.192 16.4352 11.206 16.4493C11.22 16.4633 11.2475 16.4856 11.2671 16.4988C11.2867 16.512 11.3096 16.5299 11.318 16.5386C11.3264 16.5473 11.3493 16.5652 11.3689 16.5783C11.3885 16.5915 11.4069 16.605 11.4097 16.6084C11.4125 16.6118 11.4445 16.634 11.4809 16.6578C11.5174 16.6815 11.5494 16.7039 11.5522 16.7075C11.5605 16.7181 11.7046 16.8095 11.7813 16.8528C11.8205 16.8749 11.8847 16.9112 11.9239 16.9334C12.0387 16.9985 12.3078 17.1225 12.489 17.1939C12.5198 17.206 12.5611 17.2229 12.5807 17.2315C12.6003 17.24 12.6426 17.2507 12.6748 17.2552C12.845 17.2789 12.8681 17.2837 12.9286 17.3077C12.9379 17.3114 12.9574 17.3319 12.9718 17.3532C13.016 17.4184 13.0066 17.5229 12.9482 17.6145C12.921 17.6571 12.7855 17.7491 12.6925 17.7881C12.6618 17.801 12.616 17.8206 12.5908 17.8317C12.5193 17.8633 12.4453 17.8888 12.425 17.8888C12.4149 17.8888 12.3919 17.8963 12.3739 17.9054C12.3265 17.9295 12.23 17.9494 11.9646 17.9897C11.8713 18.0038 11.3005 18.0033 11.1755 17.9889C11.1223 17.9828 11.0352 17.9737 10.982 17.9686C10.9288 17.9636 10.8555 17.9546 10.8191 17.9486C10.7827 17.9426 10.7231 17.9337 10.6867 17.9287C10.6503 17.9238 10.5965 17.915 10.5671 17.9092C10.5377 17.9035 10.4918 17.8946 10.4653 17.8894C10.4387 17.8843 10.3963 17.8751 10.3711 17.869C10.3459 17.8628 10.3046 17.8539 10.2794 17.8491C10.2542 17.8443 10.2141 17.8357 10.1903 17.8299C10.1665 17.8241 10.1287 17.8149 10.1063 17.8094C10.0839 17.8039 10.0484 17.7957 10.0274 17.7912C10.0064 17.7867 9.97456 17.7755 9.95664 17.7664C9.93871 17.7573 9.91678 17.7498 9.90791 17.7498C9.89078 17.7498 9.58299 17.6514 9.52475 17.6273C9.50579 17.6195 9.46508 17.6031 9.43428 17.5911C9.15747 17.4823 8.78271 17.2946 8.58914 17.1677C8.53033 17.1291 8.46776 17.0903 8.45009 17.0814C8.43242 17.0725 8.4118 17.0593 8.40427 17.0521C8.39674 17.0448 8.36079 17.0193 8.32439 16.9955C8.28799 16.9716 8.25133 16.9448 8.24293 16.936C8.23453 16.9271 8.21162 16.9092 8.19202 16.896C8.17242 16.8829 8.15409 16.8695 8.15129 16.8662C8.14849 16.863 8.13016 16.8495 8.11056 16.8363C8.09096 16.8231 8.05888 16.7963 8.03928 16.7769C8.01968 16.7574 7.98761 16.7305 7.96801 16.717C7.92147 16.6851 7.45099 16.2263 7.4185 16.1812C7.40474 16.1621 7.38168 16.1353 7.36724 16.1216C7.3528 16.108 7.32993 16.0812 7.31642 16.0621C7.3029 16.043 7.28453 16.0206 7.2756 16.0124C7.26667 16.0043 7.24834 15.9819 7.23487 15.9628C7.2214 15.9437 7.20307 15.9214 7.19414 15.9132C7.18521 15.905 7.16688 15.8826 7.15342 15.8635C7.13995 15.8444 7.12599 15.8265 7.1224 15.8238C7.11879 15.8211 7.05654 15.7317 6.98404 15.6253C6.86702 15.4534 6.79714 15.3428 6.66395 15.1189C6.62075 15.0463 6.45875 14.7236 6.41224 14.6176C6.34983 14.4753 6.33852 14.446 6.29909 14.3247C6.23186 14.1179 6.22446 14.0931 6.21593 14.0467C6.21141 14.0221 6.20245 13.9819 6.19601 13.9574C6.18957 13.9328 6.18027 13.8837 6.17537 13.8482C6.17045 13.8127 6.16105 13.7546 6.15447 13.7191C6.13881 13.6346 6.13854 13.1496 6.15412 13.0663C6.16049 13.0322 6.16995 12.9786 6.17512 12.9472C6.1803 12.9158 6.18974 12.87 6.19612 12.8454C6.2025 12.8209 6.21116 12.7807 6.21536 12.7561C6.21957 12.7315 6.23074 12.6971 6.24019 12.6797C6.24963 12.6622 6.25736 12.6398 6.25736 12.6299C6.25736 12.6126 6.27276 12.5695 6.31952 12.4558C6.3313 12.4271 6.34741 12.3866 6.35531 12.3658C6.38654 12.2836 6.56196 11.9812 6.59981 11.9442C6.60754 11.9367 6.61875 11.9216 6.62472 11.9108C6.63824 11.8861 6.75291 11.8129 6.77797 11.8129C6.79717 11.8129 6.82757 11.859 6.82757 11.8881C6.82757 11.8972 6.83642 11.932 6.84722 11.9655C6.85804 11.999 6.87214 12.0465 6.87858 12.0711C6.92988 12.267 7.1032 12.7953 7.21245 13.0887C7.23481 13.1487 7.26302 13.2247 7.27514 13.2575C7.28726 13.2902 7.30607 13.3382 7.31693 13.3642C7.32781 13.3901 7.34636 13.4348 7.35817 13.4635C7.38922 13.5388 7.47945 13.744 7.5426 13.8829C7.59993 14.009 7.86623 14.5295 7.93116 14.6424C8.06049 14.8673 8.08313 14.9047 8.25304 15.1735C8.30759 15.2599 8.41709 15.42 8.42612 15.4267C8.42981 15.4294 8.45277 15.4607 8.47713 15.4962C8.50148 15.5317 8.52427 15.563 8.52777 15.5657C8.53126 15.5684 8.54513 15.5863 8.55859 15.6054C8.57205 15.6245 8.5858 15.6424 8.58914 15.6451C8.59247 15.6478 8.60622 15.6657 8.61969 15.6848C8.63315 15.7039 8.65148 15.7263 8.66041 15.7345C8.66934 15.7427 8.68771 15.765 8.70123 15.7841C8.71475 15.8032 8.73762 15.83 8.75205 15.8437C8.76649 15.8573 8.7894 15.8841 8.80297 15.9032C8.81653 15.9223 8.83944 15.9492 8.85388 15.9628C8.86832 15.9765 8.89138 16.0033 8.90514 16.0224C8.93768 16.0676 9.32681 16.447 9.37318 16.4787C9.39278 16.4921 9.42028 16.5146 9.43428 16.5287C9.44828 16.5428 9.47577 16.5651 9.49537 16.5782C9.51497 16.5914 9.53788 16.6093 9.54628 16.618C9.55469 16.6268 9.5776 16.6446 9.5972 16.6577C9.6168 16.6709 9.63513 16.6843 9.63793 16.6875C9.64073 16.6908 9.65906 16.7043 9.67866 16.7175C9.69826 16.7308 9.72195 16.7484 9.73132 16.7568C9.79875 16.8168 10.3652 17.1144 10.4121 17.1144C10.4236 17.1144 10.45 17.1226 10.4707 17.1325C10.5076 17.15 10.6097 17.1823 10.6918 17.2022C10.7142 17.2076 10.752 17.2176 10.7758 17.2244C10.8141 17.2353 10.8213 17.2347 10.8394 17.2187C10.8624 17.1984 10.8664 17.1494 10.8483 17.1106C10.8378 17.0881 10.6849 16.9809 10.6084 16.9423C10.5909 16.9335 10.5705 16.9203 10.563 16.9131C10.5554 16.9058 10.5195 16.8804 10.4831 16.8565C10.4467 16.8326 10.41 16.8058 10.4016 16.797C10.3932 16.7881 10.3703 16.7702 10.3507 16.757C10.3311 16.7439 10.3128 16.7305 10.31 16.7273C10.3072 16.724 10.2888 16.7105 10.2692 16.6973C10.2496 16.684 10.213 16.6528 10.1878 16.628C10.1626 16.6031 10.1259 16.5717 10.1063 16.5582C10.06 16.5264 9.69126 16.1669 9.65848 16.1216C9.64465 16.1025 9.60791 16.0623 9.57683 16.0323C9.54576 16.0023 9.50921 15.9621 9.49562 15.9429C9.48202 15.9238 9.46816 15.906 9.46483 15.9032C9.46149 15.9005 9.4477 15.8826 9.43418 15.8635C9.42066 15.8444 9.3978 15.8176 9.38337 15.804C9.36893 15.7903 9.34607 15.7635 9.33256 15.7444C9.31903 15.7253 9.30525 15.7074 9.30191 15.7047C9.29857 15.7019 9.28482 15.6841 9.27136 15.665C9.2579 15.6459 9.24403 15.628 9.24054 15.6253C9.23704 15.6225 9.21426 15.5913 9.1899 15.5558C9.16554 15.5203 9.14246 15.489 9.13861 15.4863C9.11937 15.4726 8.84994 15.0629 8.73379 14.8707C8.55651 14.5774 8.29999 14.0701 8.17277 13.7613C8.16095 13.7326 8.14159 13.6857 8.12973 13.6571C8.11788 13.6284 8.10008 13.5848 8.0902 13.5603C8.08031 13.5357 8.06278 13.4932 8.05126 13.4659C8.00759 13.3625 7.80493 12.777 7.76348 12.6345C7.75276 12.5976 7.73518 12.5373 7.72443 12.5005C7.70478 12.4332 7.68983 12.3781 7.67117 12.3044C7.66564 12.2825 7.65227 12.2373 7.64146 12.2038C7.63065 12.1703 7.62173 12.1323 7.62165 12.1194C7.62157 12.1065 7.61401 12.0758 7.60486 12.0512C7.59571 12.0266 7.58461 11.9864 7.58019 11.9619C7.57578 11.9373 7.56701 11.8971 7.56071 11.8725C7.55441 11.8479 7.54496 11.8066 7.5397 11.7807C7.53446 11.7547 7.52558 11.7112 7.51998 11.6839C7.4924 11.5494 7.48784 11.5261 7.47925 11.4754C7.47416 11.4454 7.46494 11.3962 7.45877 11.3662C7.4526 11.3362 7.44349 11.2825 7.43852 11.2471C7.43355 11.2116 7.42439 11.158 7.41815 11.1279C7.39583 11.0204 7.35901 10.7327 7.33621 10.4876C7.30968 10.2025 7.30467 10.0677 7.30462 9.63874C7.30457 9.14326 7.31494 8.9496 7.35651 8.67077C7.3622 8.63254 7.37127 8.57 7.37666 8.53178C7.38205 8.49355 7.39115 8.43994 7.39688 8.41264C7.41092 8.34585 7.42562 8.27413 7.43755 8.21408C7.44298 8.18678 7.4523 8.14545 7.45824 8.12225C7.4642 8.09905 7.47304 8.06331 7.47789 8.04283C7.48276 8.02236 7.49415 7.9855 7.50321 7.96092C7.51227 7.93635 7.51974 7.90826 7.51983 7.89848C7.51991 7.88871 7.52914 7.86319 7.54034 7.84179C7.55154 7.82038 7.56071 7.79388 7.56071 7.78289C7.56071 7.77189 7.56938 7.74379 7.57999 7.72044C7.59059 7.69709 7.6094 7.65341 7.62178 7.62337C7.70043 7.43255 7.8041 7.22983 7.91496 7.05006C7.95509 6.98498 8.07089 6.81596 8.07992 6.80929C8.08361 6.80656 8.10659 6.77529 8.13097 6.73979C8.15535 6.7043 8.18272 6.66856 8.19179 6.66037C8.20085 6.65218 8.21932 6.62984 8.23284 6.61073C8.24635 6.59162 8.26922 6.56481 8.28366 6.55116C8.2981 6.53751 8.32116 6.51071 8.33491 6.4916C8.34867 6.47248 8.43784 6.38088 8.53308 6.28802C8.62832 6.19517 8.72227 6.10822 8.74187 6.09481C8.76147 6.0814 8.78897 6.05892 8.80297 6.04484C8.81697 6.03076 8.84446 6.00846 8.86406 5.99529C8.88366 5.98211 8.90657 5.9642 8.91497 5.95549C8.92337 5.94678 8.94628 5.92884 8.96589 5.91563C8.98549 5.90242 9.00758 5.88589 9.01497 5.87888C9.03853 5.85658 9.05827 5.86293 9.04793 5.88947Z" fill="#A1A5B7"/>
</g>
<defs>
<clipPath id="clip0_2167_7296">
<rect width="28" height="22" rx="4" fill="white"/>
</clipPath>
</defs>
</svg>
