<svg width="32" height="32" viewBox="0 0 32 32" fill="none" xmlns="http://www.w3.org/2000/svg">
<g clip-path="url(#clip0_4107_463)">
<rect width="32" height="32" fill="white"/>
<path d="M11.6621 7.87622H20.3059V23.4076H11.6621V7.87622Z" fill="#A1A5B7"/>
<path d="M12.2111 15.6421C12.2111 12.4864 13.6929 9.68743 15.9704 7.8763C14.2966 6.55918 12.1837 5.76343 9.87875 5.76343C4.41787 5.76343 0 10.1813 0 15.6421C0 21.1027 4.41787 25.5207 9.87862 25.5207C12.1836 25.5207 14.2965 24.7249 15.9704 23.4077C13.6929 21.6241 12.2111 18.7977 12.2111 15.6421V15.6421Z" fill="#5E6278"/>
<path d="M31.9684 15.6421C31.9684 21.1027 27.5505 25.5207 22.0898 25.5207C19.7848 25.5207 17.6719 24.7249 15.998 23.4077C18.303 21.5967 19.7574 18.7977 19.7574 15.6421C19.7574 12.4864 18.2755 9.68743 15.998 7.8763C17.6718 6.55918 19.7848 5.76343 22.0898 5.76343C27.5505 5.76343 31.9685 10.2088 31.9685 15.6421H31.9684Z" fill="#E1E3EA"/>
</g>
<defs>
<clipPath id="clip0_4107_463">
<rect width="32" height="32" fill="white"/>
</clipPath>
</defs>
</svg>
