<svg width="30" height="24" viewBox="0 0 30 24" fill="none" xmlns="http://www.w3.org/2000/svg">
<g clip-path="url(#clip0_2167_7284)">
<rect width="30" height="24" rx="4" fill="#D8D8E5"/>
<rect x="-1.28613" y="-1" width="32" height="26" fill="#F1F1F2"/>
<path d="M21.8736 12.6939C21.8736 15.1106 21.3217 16.91 20.2178 18.0857C19.114 19.2581 17.4092 19.846 15.1101 19.846C12.9612 19.846 11.3316 19.2592 10.2212 18.0857C9.11085 16.9122 8.55566 15.1421 8.55566 12.7755V4.83638C8.55566 4.65023 8.70589 4.5 8.89204 4.5H12.7881C12.971 4.5 13.1245 4.65023 13.1245 4.83638V12.9486C13.1245 13.9153 13.3041 14.6599 13.6666 15.1824C14.3198 16.0511 15.5543 16.2242 16.423 15.5678C16.5536 15.4698 16.6712 15.3555 16.7724 15.2281C17.1295 14.7361 17.3069 14.0111 17.3047 13.0531V11.5345H21.8736V12.6939Z" fill="#A1A5B7"/>
<path d="M21.5208 10.6464H17.3047V4.85283C17.3047 4.65688 17.4647 4.50012 17.6574 4.50012H18.291C18.291 6.4792 19.8945 8.0827 21.8735 8.0827V10.6464H21.5208Z" fill="#A1A5B7"/>
<path d="M19.1885 4.50012H21.5203C21.7162 4.50012 21.873 4.65688 21.873 4.85283V7.19114C20.3903 7.19114 19.1885 5.98606 19.1885 4.50339V4.50012Z" fill="#3F4254"/>
</g>
<defs>
<clipPath id="clip0_2167_7284">
<rect width="30" height="24" rx="4" fill="white"/>
</clipPath>
</defs>
</svg>
