<svg width="32" height="32" viewBox="0 0 32 32" fill="none" xmlns="http://www.w3.org/2000/svg">
<rect width="32" height="32" fill="white"/>
<path d="M0 9.29029C0 7.00989 1.84863 5.16125 4.12903 5.16125H27.871C30.1514 5.16125 32 7.00989 32 9.29029V23.7419C32 26.0223 30.1514 27.8709 27.871 27.8709H4.12903C1.84863 27.8709 0 26.0223 0 23.7419V9.29029Z" fill="#F1F1F2"/>
<path d="M26.112 19.953L25.8894 18.8401H23.4024L23.0067 19.9451L21.0134 19.949C21.9623 17.667 22.9133 15.3858 23.8664 13.1054C24.0286 12.7186 24.3165 12.5217 24.7409 12.5237C25.0653 12.5267 25.5946 12.5267 26.3296 12.5247L27.8708 19.95L26.112 19.953ZM23.9623 17.3156H25.5649L24.9664 14.526L23.9623 17.3156ZM11.113 12.5227L13.1172 12.5247L10.0189 19.954L7.98994 19.952C7.47973 17.9896 6.97587 16.0256 6.47837 14.06C6.37944 13.6683 6.18357 13.3943 5.80667 13.2647C5.24995 13.0781 4.69064 12.8994 4.12891 12.7285L4.12891 12.5257H7.3311C7.88508 12.5257 8.20856 12.7938 8.31243 13.3438C8.41729 13.8948 8.68043 15.2976 9.10383 17.5521L11.113 12.5227ZM15.8713 12.5247L14.2865 19.952L12.3792 19.95L13.962 12.5227L15.8713 12.5247ZM19.7392 12.3872C20.31 12.3872 21.0292 12.5653 21.4427 12.7285L21.1083 14.2688C20.7344 14.1184 20.1191 13.9156 19.6017 13.9225C18.8499 13.9354 18.3849 14.2509 18.3849 14.5537C18.3849 15.0463 19.1922 15.2946 20.0231 15.8328C20.9718 16.4461 21.0965 16.9971 21.0846 17.5956C21.0717 18.8381 20.0231 20.0638 17.8112 20.0638C16.8022 20.0489 16.4381 19.9639 15.6151 19.672L15.9633 18.0645C16.8012 18.4157 17.1563 18.5275 17.8725 18.5275C18.5284 18.5275 19.0913 18.2623 19.0962 17.8004C19.1002 17.4719 18.8984 17.3087 18.1624 16.9031C17.4264 16.4965 16.3936 15.9337 16.4074 14.8039C16.4243 13.3577 17.7944 12.3872 19.7402 12.3872H19.7392Z" fill="#5E6278"/>
</svg>
